%TF.GenerationSoftware,KiCad,Pcbnew,7.0.8-1.fc38*%
%TF.CreationDate,2023-10-28T17:25:38+02:00*%
%TF.ProjectId,AppleVGA,4170706c-6556-4474-912e-6b696361645f,A*%
%TF.SameCoordinates,Original*%
%TF.FileFunction,Drillmap*%
%TF.FilePolarity,Positive*%
%FSLAX45Y45*%
G04 Gerber Fmt 4.5, Leading zero omitted, Abs format (unit mm)*
G04 Created by KiCad (PCBNEW 7.0.8-1.fc38) date 2023-10-28 17:25:38*
%MOMM*%
%LPD*%
G01*
G04 APERTURE LIST*
%ADD10C,0.254000*%
%ADD11C,0.200000*%
%ADD12C,0.040000*%
%ADD13C,0.060000*%
%ADD14C,0.080000*%
%ADD15C,0.100000*%
%ADD16C,0.102000*%
%ADD17C,0.110000*%
G04 APERTURE END LIST*
D10*
X21158200Y-12750800D02*
X21158200Y-11938000D01*
X21971000Y-11938000D02*
X21971000Y-5842000D01*
X21971000Y-5842000D02*
X10922000Y-5842000D01*
X14655800Y-12750800D02*
X21158200Y-12750800D01*
X21158200Y-11938000D02*
X21971000Y-11938000D01*
X10922000Y-11938000D02*
X14655800Y-11938000D01*
X14655800Y-11938000D02*
X14655800Y-12750800D01*
X10922000Y-5842000D02*
X10922000Y-11938000D01*
D11*
D12*
X11917999Y-10241600D02*
X11957999Y-10281600D01*
X11957999Y-10241600D02*
X11917999Y-10281600D01*
X12172000Y-10165400D02*
X12212000Y-10205400D01*
X12212000Y-10165400D02*
X12172000Y-10205400D01*
X12426000Y-10089200D02*
X12466000Y-10129200D01*
X12466000Y-10089200D02*
X12426000Y-10129200D01*
X12680000Y-10013000D02*
X12720000Y-10053000D01*
X12720000Y-10013000D02*
X12680000Y-10053000D01*
X12934000Y-9936800D02*
X12974000Y-9976800D01*
X12974000Y-9936800D02*
X12934000Y-9976800D01*
X13188000Y-9860600D02*
X13228000Y-9900600D01*
X13228000Y-9860600D02*
X13188000Y-9900600D01*
X13442000Y-9784400D02*
X13482000Y-9824400D01*
X13482000Y-9784400D02*
X13442000Y-9824400D01*
X13696000Y-8107999D02*
X13736000Y-8147999D01*
X13736000Y-8107999D02*
X13696000Y-8147999D01*
X13696000Y-9708200D02*
X13736000Y-9748200D01*
X13736000Y-9708200D02*
X13696000Y-9748200D01*
X14712000Y-10241600D02*
X14752000Y-10281600D01*
X14752000Y-10241600D02*
X14712000Y-10281600D01*
X14966000Y-10165401D02*
X15006000Y-10205401D01*
X15006000Y-10165401D02*
X14966000Y-10205401D01*
X15220000Y-10089200D02*
X15260000Y-10129200D01*
X15260000Y-10089200D02*
X15220000Y-10129200D01*
X15347000Y-10902000D02*
X15387000Y-10942000D01*
X15387000Y-10902000D02*
X15347000Y-10942000D01*
X15474000Y-9632000D02*
X15514000Y-9672000D01*
X15514000Y-9632000D02*
X15474000Y-9672000D01*
X15474000Y-10013000D02*
X15514000Y-10053000D01*
X15514000Y-10013000D02*
X15474000Y-10053000D01*
X15728000Y-9936800D02*
X15768000Y-9976800D01*
X15768000Y-9936800D02*
X15728000Y-9976800D01*
X15982000Y-7346000D02*
X16022000Y-7386000D01*
X16022000Y-7346000D02*
X15982000Y-7386000D01*
X15982000Y-9860600D02*
X16022000Y-9900600D01*
X16022000Y-9860600D02*
X15982000Y-9900600D01*
X16236000Y-9784400D02*
X16276000Y-9824400D01*
X16276000Y-9784400D02*
X16236000Y-9824400D01*
X16490000Y-9708200D02*
X16530000Y-9748200D01*
X16530000Y-9708200D02*
X16490000Y-9748200D01*
X16490000Y-10902000D02*
X16530000Y-10942000D01*
X16530000Y-10902000D02*
X16490000Y-10942000D01*
X17226600Y-8108000D02*
X17266600Y-8148000D01*
X17266600Y-8108000D02*
X17226600Y-8148000D01*
X17506000Y-10241600D02*
X17546000Y-10281600D01*
X17546000Y-10241600D02*
X17506000Y-10281600D01*
X17633000Y-7600000D02*
X17673000Y-7640000D01*
X17673000Y-7600000D02*
X17633000Y-7640000D01*
X17760000Y-10165401D02*
X17800000Y-10205401D01*
X17800000Y-10165401D02*
X17760000Y-10205401D01*
X18014000Y-10089200D02*
X18054000Y-10129200D01*
X18054000Y-10089200D02*
X18014000Y-10129200D01*
X18268000Y-10013000D02*
X18308000Y-10053000D01*
X18308000Y-10013000D02*
X18268000Y-10053000D01*
X18522000Y-8997000D02*
X18562000Y-9037000D01*
X18562000Y-8997000D02*
X18522000Y-9037000D01*
X18522000Y-9936800D02*
X18562000Y-9976800D01*
X18562000Y-9936800D02*
X18522000Y-9976800D01*
X18649000Y-11511600D02*
X18689000Y-11551600D01*
X18689000Y-11511600D02*
X18649000Y-11551600D01*
X18776000Y-9860600D02*
X18816000Y-9900600D01*
X18816000Y-9860600D02*
X18776000Y-9900600D01*
X18903000Y-11511600D02*
X18943000Y-11551600D01*
X18943000Y-11511600D02*
X18903000Y-11551600D01*
X19030000Y-8768400D02*
X19070000Y-8808400D01*
X19070000Y-8768400D02*
X19030000Y-8808400D01*
X19030000Y-9784400D02*
X19070000Y-9824400D01*
X19070000Y-9784400D02*
X19030000Y-9824400D01*
X19284000Y-9708200D02*
X19324000Y-9748200D01*
X19324000Y-9708200D02*
X19284000Y-9748200D01*
X19538000Y-9225601D02*
X19578000Y-9265601D01*
X19578000Y-9225601D02*
X19538000Y-9265601D01*
X19868200Y-9632000D02*
X19908200Y-9672000D01*
X19908200Y-9632000D02*
X19868200Y-9672000D01*
X20427000Y-11854500D02*
X20467000Y-11894500D01*
X20467000Y-11854500D02*
X20427000Y-11894500D01*
X20681000Y-11854500D02*
X20721000Y-11894500D01*
X20721000Y-11854500D02*
X20681000Y-11894500D01*
D13*
X11307600Y-6350000D02*
G75*
G03*
X11307600Y-6350000I-30000J0D01*
G01*
X11307600Y-8255000D02*
G75*
G03*
X11307600Y-8255000I-30000J0D01*
G01*
X11307600Y-10922000D02*
G75*
G03*
X11307600Y-10922000I-30000J0D01*
G01*
D14*
X11684000Y-10374000D02*
X11684000Y-10454000D01*
X11644000Y-10414000D02*
X11724000Y-10414000D01*
X11684000Y-11136000D02*
X11684000Y-11216000D01*
X11644000Y-11176000D02*
X11724000Y-11176000D01*
X11938000Y-10374000D02*
X11938000Y-10454000D01*
X11898000Y-10414000D02*
X11978000Y-10414000D01*
X11938000Y-11136000D02*
X11938000Y-11216000D01*
X11898000Y-11176000D02*
X11978000Y-11176000D01*
X12192000Y-10374000D02*
X12192000Y-10454000D01*
X12152000Y-10414000D02*
X12232000Y-10414000D01*
X12192000Y-11136000D02*
X12192000Y-11216000D01*
X12152000Y-11176000D02*
X12232000Y-11176000D01*
X12446000Y-10374000D02*
X12446000Y-10454000D01*
X12406000Y-10414000D02*
X12486000Y-10414000D01*
X12446000Y-11136000D02*
X12446000Y-11216000D01*
X12406000Y-11176000D02*
X12486000Y-11176000D01*
X12700000Y-10374000D02*
X12700000Y-10454000D01*
X12660000Y-10414000D02*
X12740000Y-10414000D01*
X12700000Y-11136000D02*
X12700000Y-11216000D01*
X12660000Y-11176000D02*
X12740000Y-11176000D01*
X12954000Y-10374000D02*
X12954000Y-10454000D01*
X12914000Y-10414000D02*
X12994000Y-10414000D01*
X12954000Y-11136000D02*
X12954000Y-11216000D01*
X12914000Y-11176000D02*
X12994000Y-11176000D01*
X13208000Y-10374000D02*
X13208000Y-10454000D01*
X13168000Y-10414000D02*
X13248000Y-10414000D01*
X13208000Y-11136000D02*
X13208000Y-11216000D01*
X13168000Y-11176000D02*
X13248000Y-11176000D01*
X13462000Y-10374000D02*
X13462000Y-10454000D01*
X13422000Y-10414000D02*
X13502000Y-10414000D01*
X13462000Y-11136000D02*
X13462000Y-11216000D01*
X13422000Y-11176000D02*
X13502000Y-11176000D01*
X13716000Y-10374000D02*
X13716000Y-10454000D01*
X13676000Y-10414000D02*
X13756000Y-10414000D01*
X13716000Y-11136000D02*
X13716000Y-11216000D01*
X13676000Y-11176000D02*
X13756000Y-11176000D01*
X13970000Y-10374000D02*
X13970000Y-10454000D01*
X13930000Y-10414000D02*
X14010000Y-10414000D01*
X13970000Y-11136000D02*
X13970000Y-11216000D01*
X13930000Y-11176000D02*
X14010000Y-11176000D01*
X14224000Y-10636000D02*
X14224000Y-10716000D01*
X14184000Y-10676000D02*
X14264000Y-10676000D01*
X14224000Y-11136000D02*
X14224000Y-11216000D01*
X14184000Y-11176000D02*
X14264000Y-11176000D01*
X14478000Y-10374000D02*
X14478000Y-10454000D01*
X14438000Y-10414000D02*
X14518000Y-10414000D01*
X14478000Y-11136000D02*
X14478000Y-11216000D01*
X14438000Y-11176000D02*
X14518000Y-11176000D01*
X14732000Y-10374000D02*
X14732000Y-10454000D01*
X14692000Y-10414000D02*
X14772000Y-10414000D01*
X14732000Y-11136000D02*
X14732000Y-11216000D01*
X14692000Y-11176000D02*
X14772000Y-11176000D01*
X14986000Y-10374000D02*
X14986000Y-10454000D01*
X14946000Y-10414000D02*
X15026000Y-10414000D01*
X14986000Y-11136000D02*
X14986000Y-11216000D01*
X14946000Y-11176000D02*
X15026000Y-11176000D01*
X15240000Y-9358000D02*
X15240000Y-9438000D01*
X15200000Y-9398000D02*
X15280000Y-9398000D01*
X15240000Y-10374000D02*
X15240000Y-10454000D01*
X15200000Y-10414000D02*
X15280000Y-10414000D01*
X15240000Y-11136000D02*
X15240000Y-11216000D01*
X15200000Y-11176000D02*
X15280000Y-11176000D01*
X15494000Y-10374000D02*
X15494000Y-10454000D01*
X15454000Y-10414000D02*
X15534000Y-10414000D01*
X15494000Y-11136000D02*
X15494000Y-11216000D01*
X15454000Y-11176000D02*
X15534000Y-11176000D01*
X15748000Y-10374000D02*
X15748000Y-10454000D01*
X15708000Y-10414000D02*
X15788000Y-10414000D01*
X15748000Y-11136000D02*
X15748000Y-11216000D01*
X15708000Y-11176000D02*
X15788000Y-11176000D01*
X16002000Y-10374000D02*
X16002000Y-10454000D01*
X15962000Y-10414000D02*
X16042000Y-10414000D01*
X16002000Y-11136000D02*
X16002000Y-11216000D01*
X15962000Y-11176000D02*
X16042000Y-11176000D01*
X16256000Y-9358000D02*
X16256000Y-9438000D01*
X16216000Y-9398000D02*
X16296000Y-9398000D01*
X16256000Y-10374000D02*
X16256000Y-10454000D01*
X16216000Y-10414000D02*
X16296000Y-10414000D01*
X16256000Y-11136000D02*
X16256000Y-11216000D01*
X16216000Y-11176000D02*
X16296000Y-11176000D01*
X16510000Y-10374000D02*
X16510000Y-10454000D01*
X16470000Y-10414000D02*
X16550000Y-10414000D01*
X16510000Y-11136000D02*
X16510000Y-11216000D01*
X16470000Y-11176000D02*
X16550000Y-11176000D01*
X16764000Y-10374000D02*
X16764000Y-10454000D01*
X16724000Y-10414000D02*
X16804000Y-10414000D01*
X16764000Y-11136000D02*
X16764000Y-11216000D01*
X16724000Y-11176000D02*
X16804000Y-11176000D01*
X17018000Y-10636000D02*
X17018000Y-10716000D01*
X16978000Y-10676000D02*
X17058000Y-10676000D01*
X17018000Y-11136000D02*
X17018000Y-11216000D01*
X16978000Y-11176000D02*
X17058000Y-11176000D01*
X17246600Y-8596000D02*
X17246600Y-8676000D01*
X17206600Y-8636000D02*
X17286600Y-8636000D01*
X17246600Y-8850000D02*
X17246600Y-8930000D01*
X17206600Y-8890000D02*
X17286600Y-8890000D01*
X17246600Y-9104000D02*
X17246600Y-9184000D01*
X17206600Y-9144000D02*
X17286600Y-9144000D01*
X17246600Y-9358000D02*
X17246600Y-9438000D01*
X17206600Y-9398000D02*
X17286600Y-9398000D01*
X17272000Y-10374000D02*
X17272000Y-10454000D01*
X17232000Y-10414000D02*
X17312000Y-10414000D01*
X17272000Y-11136000D02*
X17272000Y-11216000D01*
X17232000Y-11176000D02*
X17312000Y-11176000D01*
X17526000Y-10374000D02*
X17526000Y-10454000D01*
X17486000Y-10414000D02*
X17566000Y-10414000D01*
X17526000Y-11136000D02*
X17526000Y-11216000D01*
X17486000Y-11176000D02*
X17566000Y-11176000D01*
X17780000Y-10374000D02*
X17780000Y-10454000D01*
X17740000Y-10414000D02*
X17820000Y-10414000D01*
X17780000Y-11136000D02*
X17780000Y-11216000D01*
X17740000Y-11176000D02*
X17820000Y-11176000D01*
X18034000Y-10374000D02*
X18034000Y-10454000D01*
X17994000Y-10414000D02*
X18074000Y-10414000D01*
X18034000Y-11136000D02*
X18034000Y-11216000D01*
X17994000Y-11176000D02*
X18074000Y-11176000D01*
X18262600Y-8596000D02*
X18262600Y-8676000D01*
X18222600Y-8636000D02*
X18302600Y-8636000D01*
X18262600Y-8850000D02*
X18262600Y-8930000D01*
X18222600Y-8890000D02*
X18302600Y-8890000D01*
X18262600Y-9104000D02*
X18262600Y-9184000D01*
X18222600Y-9144000D02*
X18302600Y-9144000D01*
X18262600Y-9358000D02*
X18262600Y-9438000D01*
X18222600Y-9398000D02*
X18302600Y-9398000D01*
X18288000Y-6056000D02*
X18288000Y-6136000D01*
X18248000Y-6096000D02*
X18328000Y-6096000D01*
X18288000Y-6310000D02*
X18288000Y-6390000D01*
X18248000Y-6350000D02*
X18328000Y-6350000D01*
X18288000Y-6564000D02*
X18288000Y-6644000D01*
X18248000Y-6604000D02*
X18328000Y-6604000D01*
X18288000Y-6818000D02*
X18288000Y-6898000D01*
X18248000Y-6858000D02*
X18328000Y-6858000D01*
X18288000Y-7072000D02*
X18288000Y-7152000D01*
X18248000Y-7112000D02*
X18328000Y-7112000D01*
X18288000Y-7326000D02*
X18288000Y-7406000D01*
X18248000Y-7366000D02*
X18328000Y-7366000D01*
X18288000Y-10374000D02*
X18288000Y-10454000D01*
X18248000Y-10414000D02*
X18328000Y-10414000D01*
X18288000Y-11136000D02*
X18288000Y-11216000D01*
X18248000Y-11176000D02*
X18328000Y-11176000D01*
X18542000Y-8596000D02*
X18542000Y-8676000D01*
X18502000Y-8636000D02*
X18582000Y-8636000D01*
X18542000Y-9358000D02*
X18542000Y-9438000D01*
X18502000Y-9398000D02*
X18582000Y-9398000D01*
X18542000Y-10374000D02*
X18542000Y-10454000D01*
X18502000Y-10414000D02*
X18582000Y-10414000D01*
X18542000Y-11136000D02*
X18542000Y-11216000D01*
X18502000Y-11176000D02*
X18582000Y-11176000D01*
X18796000Y-8596000D02*
X18796000Y-8676000D01*
X18756000Y-8636000D02*
X18836000Y-8636000D01*
X18796000Y-9358000D02*
X18796000Y-9438000D01*
X18756000Y-9398000D02*
X18836000Y-9398000D01*
X18796000Y-10374000D02*
X18796000Y-10454000D01*
X18756000Y-10414000D02*
X18836000Y-10414000D01*
X18796000Y-11136000D02*
X18796000Y-11216000D01*
X18756000Y-11176000D02*
X18836000Y-11176000D01*
X19050000Y-8596000D02*
X19050000Y-8676000D01*
X19010000Y-8636000D02*
X19090000Y-8636000D01*
X19050000Y-9358000D02*
X19050000Y-9438000D01*
X19010000Y-9398000D02*
X19090000Y-9398000D01*
X19050000Y-10374000D02*
X19050000Y-10454000D01*
X19010000Y-10414000D02*
X19090000Y-10414000D01*
X19050000Y-11136000D02*
X19050000Y-11216000D01*
X19010000Y-11176000D02*
X19090000Y-11176000D01*
X19304000Y-6056000D02*
X19304000Y-6136000D01*
X19264000Y-6096000D02*
X19344000Y-6096000D01*
X19304000Y-6310000D02*
X19304000Y-6390000D01*
X19264000Y-6350000D02*
X19344000Y-6350000D01*
X19304000Y-6564000D02*
X19304000Y-6644000D01*
X19264000Y-6604000D02*
X19344000Y-6604000D01*
X19304000Y-6818000D02*
X19304000Y-6898000D01*
X19264000Y-6858000D02*
X19344000Y-6858000D01*
X19304000Y-7072000D02*
X19304000Y-7152000D01*
X19264000Y-7112000D02*
X19344000Y-7112000D01*
X19304000Y-7326000D02*
X19304000Y-7406000D01*
X19264000Y-7366000D02*
X19344000Y-7366000D01*
X19304000Y-8596000D02*
X19304000Y-8676000D01*
X19264000Y-8636000D02*
X19344000Y-8636000D01*
X19304000Y-9358000D02*
X19304000Y-9438000D01*
X19264000Y-9398000D02*
X19344000Y-9398000D01*
X19304000Y-10374000D02*
X19304000Y-10454000D01*
X19264000Y-10414000D02*
X19344000Y-10414000D01*
X19304000Y-11136000D02*
X19304000Y-11216000D01*
X19264000Y-11176000D02*
X19344000Y-11176000D01*
X19304000Y-11644000D02*
X19304000Y-11724000D01*
X19264000Y-11684000D02*
X19344000Y-11684000D01*
X19558000Y-8596000D02*
X19558000Y-8676000D01*
X19518000Y-8636000D02*
X19598000Y-8636000D01*
X19558000Y-9358000D02*
X19558000Y-9438000D01*
X19518000Y-9398000D02*
X19598000Y-9398000D01*
X19558000Y-10374000D02*
X19558000Y-10454000D01*
X19518000Y-10414000D02*
X19598000Y-10414000D01*
X19558000Y-11136000D02*
X19558000Y-11216000D01*
X19518000Y-11176000D02*
X19598000Y-11176000D01*
X19812000Y-7072000D02*
X19812000Y-7152000D01*
X19772000Y-7112000D02*
X19852000Y-7112000D01*
X19812000Y-7326000D02*
X19812000Y-7406000D01*
X19772000Y-7366000D02*
X19852000Y-7366000D01*
X19812000Y-7580000D02*
X19812000Y-7660000D01*
X19772000Y-7620000D02*
X19852000Y-7620000D01*
X19812000Y-7834000D02*
X19812000Y-7914000D01*
X19772000Y-7874000D02*
X19852000Y-7874000D01*
X19812000Y-8088000D02*
X19812000Y-8168000D01*
X19772000Y-8128000D02*
X19852000Y-8128000D01*
X19812000Y-8596000D02*
X19812000Y-8676000D01*
X19772000Y-8636000D02*
X19852000Y-8636000D01*
X19812000Y-9358000D02*
X19812000Y-9438000D01*
X19772000Y-9398000D02*
X19852000Y-9398000D01*
X19812000Y-10636000D02*
X19812000Y-10716000D01*
X19772000Y-10676000D02*
X19852000Y-10676000D01*
X19812000Y-11136000D02*
X19812000Y-11216000D01*
X19772000Y-11176000D02*
X19852000Y-11176000D01*
X20066000Y-8596000D02*
X20066000Y-8676000D01*
X20026000Y-8636000D02*
X20106000Y-8636000D01*
X20066000Y-9358000D02*
X20066000Y-9438000D01*
X20026000Y-9398000D02*
X20106000Y-9398000D01*
X20320000Y-8858000D02*
X20320000Y-8938000D01*
X20280000Y-8898000D02*
X20360000Y-8898000D01*
X20320000Y-9358000D02*
X20320000Y-9438000D01*
X20280000Y-9398000D02*
X20360000Y-9398000D01*
X20320000Y-10382000D02*
X20320000Y-10462000D01*
X20280000Y-10422000D02*
X20360000Y-10422000D01*
X20320000Y-10882000D02*
X20320000Y-10962000D01*
X20280000Y-10922000D02*
X20360000Y-10922000D01*
X20320000Y-11644000D02*
X20320000Y-11724000D01*
X20280000Y-11684000D02*
X20360000Y-11684000D01*
X20828000Y-7072000D02*
X20828000Y-7152000D01*
X20788000Y-7112000D02*
X20868000Y-7112000D01*
X20828000Y-7326000D02*
X20828000Y-7406000D01*
X20788000Y-7366000D02*
X20868000Y-7366000D01*
X20828000Y-7580000D02*
X20828000Y-7660000D01*
X20788000Y-7620000D02*
X20868000Y-7620000D01*
X20828000Y-7834000D02*
X20828000Y-7914000D01*
X20788000Y-7874000D02*
X20868000Y-7874000D01*
X20828000Y-8088000D02*
X20828000Y-8168000D01*
X20788000Y-8128000D02*
X20868000Y-8128000D01*
X21844000Y-10382000D02*
X21844000Y-10462000D01*
X21804000Y-10422000D02*
X21884000Y-10422000D01*
X21844000Y-10882000D02*
X21844000Y-10962000D01*
X21804000Y-10922000D02*
X21884000Y-10922000D01*
D15*
X21320556Y-6436156D02*
X21320556Y-6365444D01*
X21249844Y-6365444D01*
X21249844Y-6436156D01*
X21320556Y-6436156D01*
X21320556Y-6690156D02*
X21320556Y-6619444D01*
X21249844Y-6619444D01*
X21249844Y-6690156D01*
X21320556Y-6690156D01*
X21320556Y-6944156D02*
X21320556Y-6873444D01*
X21249844Y-6873444D01*
X21249844Y-6944156D01*
X21320556Y-6944156D01*
X21320556Y-7198156D02*
X21320556Y-7127444D01*
X21249844Y-7127444D01*
X21249844Y-7198156D01*
X21320556Y-7198156D01*
X21320556Y-7452156D02*
X21320556Y-7381444D01*
X21249844Y-7381444D01*
X21249844Y-7452156D01*
X21320556Y-7452156D01*
X21320556Y-7706156D02*
X21320556Y-7635444D01*
X21249844Y-7635444D01*
X21249844Y-7706156D01*
X21320556Y-7706156D01*
X21320556Y-7960156D02*
X21320556Y-7889444D01*
X21249844Y-7889444D01*
X21249844Y-7960156D01*
X21320556Y-7960156D01*
X21320556Y-8214156D02*
X21320556Y-8143444D01*
X21249844Y-8143444D01*
X21249844Y-8214156D01*
X21320556Y-8214156D01*
X21574556Y-6436156D02*
X21574556Y-6365444D01*
X21503844Y-6365444D01*
X21503844Y-6436156D01*
X21574556Y-6436156D01*
X21574556Y-6690156D02*
X21574556Y-6619444D01*
X21503844Y-6619444D01*
X21503844Y-6690156D01*
X21574556Y-6690156D01*
X21574556Y-6944156D02*
X21574556Y-6873444D01*
X21503844Y-6873444D01*
X21503844Y-6944156D01*
X21574556Y-6944156D01*
X21574556Y-7198156D02*
X21574556Y-7127444D01*
X21503844Y-7127444D01*
X21503844Y-7198156D01*
X21574556Y-7198156D01*
X21574556Y-7452156D02*
X21574556Y-7381444D01*
X21503844Y-7381444D01*
X21503844Y-7452156D01*
X21574556Y-7452156D01*
X21574556Y-7706156D02*
X21574556Y-7635444D01*
X21503844Y-7635444D01*
X21503844Y-7706156D01*
X21574556Y-7706156D01*
X21574556Y-7960156D02*
X21574556Y-7889444D01*
X21503844Y-7889444D01*
X21503844Y-7960156D01*
X21574556Y-7960156D01*
X21574556Y-8214156D02*
X21574556Y-8143444D01*
X21503844Y-8143444D01*
X21503844Y-8214156D01*
X21574556Y-8214156D01*
D16*
X11430000Y-6909000D02*
X11481000Y-6858000D01*
X11430000Y-6807000D01*
X11379000Y-6858000D01*
X11430000Y-6909000D01*
X11430000Y-8687000D02*
X11481000Y-8636000D01*
X11430000Y-8585000D01*
X11379000Y-8636000D01*
X11430000Y-8687000D01*
X11684000Y-6909000D02*
X11735000Y-6858000D01*
X11684000Y-6807000D01*
X11633000Y-6858000D01*
X11684000Y-6909000D01*
X11684000Y-8687000D02*
X11735000Y-8636000D01*
X11684000Y-8585000D01*
X11633000Y-8636000D01*
X11684000Y-8687000D01*
X11938000Y-6909000D02*
X11989000Y-6858000D01*
X11938000Y-6807000D01*
X11887000Y-6858000D01*
X11938000Y-6909000D01*
X11938000Y-8687000D02*
X11989000Y-8636000D01*
X11938000Y-8585000D01*
X11887000Y-8636000D01*
X11938000Y-8687000D01*
X12192000Y-6909000D02*
X12243000Y-6858000D01*
X12192000Y-6807000D01*
X12141000Y-6858000D01*
X12192000Y-6909000D01*
X12192000Y-8687000D02*
X12243000Y-8636000D01*
X12192000Y-8585000D01*
X12141000Y-8636000D01*
X12192000Y-8687000D01*
X12446000Y-6909000D02*
X12497000Y-6858000D01*
X12446000Y-6807000D01*
X12395000Y-6858000D01*
X12446000Y-6909000D01*
X12446000Y-8687000D02*
X12497000Y-8636000D01*
X12446000Y-8585000D01*
X12395000Y-8636000D01*
X12446000Y-8687000D01*
X12700000Y-6909000D02*
X12751000Y-6858000D01*
X12700000Y-6807000D01*
X12649000Y-6858000D01*
X12700000Y-6909000D01*
X12700000Y-8687000D02*
X12751000Y-8636000D01*
X12700000Y-8585000D01*
X12649000Y-8636000D01*
X12700000Y-8687000D01*
X12954000Y-6909000D02*
X13005000Y-6858000D01*
X12954000Y-6807000D01*
X12903000Y-6858000D01*
X12954000Y-6909000D01*
X12954000Y-8687000D02*
X13005000Y-8636000D01*
X12954000Y-8585000D01*
X12903000Y-8636000D01*
X12954000Y-8687000D01*
X13208000Y-6909000D02*
X13259000Y-6858000D01*
X13208000Y-6807000D01*
X13157000Y-6858000D01*
X13208000Y-6909000D01*
X13208000Y-8687000D02*
X13259000Y-8636000D01*
X13208000Y-8585000D01*
X13157000Y-8636000D01*
X13208000Y-8687000D01*
X13462000Y-6909000D02*
X13513000Y-6858000D01*
X13462000Y-6807000D01*
X13411000Y-6858000D01*
X13462000Y-6909000D01*
X13462000Y-8687000D02*
X13513000Y-8636000D01*
X13462000Y-8585000D01*
X13411000Y-8636000D01*
X13462000Y-8687000D01*
X13716000Y-6909000D02*
X13767000Y-6858000D01*
X13716000Y-6807000D01*
X13665000Y-6858000D01*
X13716000Y-6909000D01*
X13716000Y-8687000D02*
X13767000Y-8636000D01*
X13716000Y-8585000D01*
X13665000Y-8636000D01*
X13716000Y-8687000D01*
X13970000Y-6909000D02*
X14021000Y-6858000D01*
X13970000Y-6807000D01*
X13919000Y-6858000D01*
X13970000Y-6909000D01*
X13970000Y-8687000D02*
X14021000Y-8636000D01*
X13970000Y-8585000D01*
X13919000Y-8636000D01*
X13970000Y-8687000D01*
X14224000Y-6909000D02*
X14275000Y-6858000D01*
X14224000Y-6807000D01*
X14173000Y-6858000D01*
X14224000Y-6909000D01*
X14224000Y-8687000D02*
X14275000Y-8636000D01*
X14224000Y-8585000D01*
X14173000Y-8636000D01*
X14224000Y-8687000D01*
X14478000Y-6909000D02*
X14529000Y-6858000D01*
X14478000Y-6807000D01*
X14427000Y-6858000D01*
X14478000Y-6909000D01*
X14478000Y-8687000D02*
X14529000Y-8636000D01*
X14478000Y-8585000D01*
X14427000Y-8636000D01*
X14478000Y-8687000D01*
X14732000Y-6909000D02*
X14783000Y-6858000D01*
X14732000Y-6807000D01*
X14681000Y-6858000D01*
X14732000Y-6909000D01*
X14732000Y-8687000D02*
X14783000Y-8636000D01*
X14732000Y-8585000D01*
X14681000Y-8636000D01*
X14732000Y-8687000D01*
X14986000Y-6909000D02*
X15037000Y-6858000D01*
X14986000Y-6807000D01*
X14935000Y-6858000D01*
X14986000Y-6909000D01*
X14986000Y-8687000D02*
X15037000Y-8636000D01*
X14986000Y-8585000D01*
X14935000Y-8636000D01*
X14986000Y-8687000D01*
X15240000Y-6909000D02*
X15291000Y-6858000D01*
X15240000Y-6807000D01*
X15189000Y-6858000D01*
X15240000Y-6909000D01*
X15240000Y-8687000D02*
X15291000Y-8636000D01*
X15240000Y-8585000D01*
X15189000Y-8636000D01*
X15240000Y-8687000D01*
X15494000Y-6909000D02*
X15545000Y-6858000D01*
X15494000Y-6807000D01*
X15443000Y-6858000D01*
X15494000Y-6909000D01*
X15494000Y-8687000D02*
X15545000Y-8636000D01*
X15494000Y-8585000D01*
X15443000Y-8636000D01*
X15494000Y-8687000D01*
X15748000Y-6909000D02*
X15799000Y-6858000D01*
X15748000Y-6807000D01*
X15697000Y-6858000D01*
X15748000Y-6909000D01*
X15748000Y-8687000D02*
X15799000Y-8636000D01*
X15748000Y-8585000D01*
X15697000Y-8636000D01*
X15748000Y-8687000D01*
X16002000Y-6909000D02*
X16053000Y-6858000D01*
X16002000Y-6807000D01*
X15951000Y-6858000D01*
X16002000Y-6909000D01*
X16002000Y-8687000D02*
X16053000Y-8636000D01*
X16002000Y-8585000D01*
X15951000Y-8636000D01*
X16002000Y-8687000D01*
X16233000Y-7544000D02*
X16284000Y-7493000D01*
X16233000Y-7442000D01*
X16182000Y-7493000D01*
X16233000Y-7544000D01*
X16233000Y-7798000D02*
X16284000Y-7747000D01*
X16233000Y-7696000D01*
X16182000Y-7747000D01*
X16233000Y-7798000D01*
X16233000Y-8052000D02*
X16284000Y-8001000D01*
X16233000Y-7950000D01*
X16182000Y-8001000D01*
X16233000Y-8052000D01*
X16256000Y-6909000D02*
X16307000Y-6858000D01*
X16256000Y-6807000D01*
X16205000Y-6858000D01*
X16256000Y-6909000D01*
X16256000Y-8687000D02*
X16307000Y-8636000D01*
X16256000Y-8585000D01*
X16205000Y-8636000D01*
X16256000Y-8687000D01*
D17*
X11629000Y-6041000D02*
X11739000Y-6151000D01*
X11739000Y-6041000D02*
X11629000Y-6151000D01*
X11739000Y-6096000D02*
G75*
G03*
X11739000Y-6096000I-55000J0D01*
G01*
X12645000Y-6041000D02*
X12755000Y-6151000D01*
X12755000Y-6041000D02*
X12645000Y-6151000D01*
X12755000Y-6096000D02*
G75*
G03*
X12755000Y-6096000I-55000J0D01*
G01*
X19884000Y-6117200D02*
X19994000Y-6227200D01*
X19994000Y-6117200D02*
X19884000Y-6227200D01*
X19994000Y-6172200D02*
G75*
G03*
X19994000Y-6172200I-55000J0D01*
G01*
X19884000Y-6567200D02*
X19994000Y-6677200D01*
X19994000Y-6567200D02*
X19884000Y-6677200D01*
X19994000Y-6622200D02*
G75*
G03*
X19994000Y-6622200I-55000J0D01*
G01*
X20534000Y-6117200D02*
X20644000Y-6227200D01*
X20644000Y-6117200D02*
X20534000Y-6227200D01*
X20644000Y-6172200D02*
G75*
G03*
X20644000Y-6172200I-55000J0D01*
G01*
X20534000Y-6567200D02*
X20644000Y-6677200D01*
X20644000Y-6567200D02*
X20534000Y-6677200D01*
X20644000Y-6622200D02*
G75*
G03*
X20644000Y-6622200I-55000J0D01*
G01*
X20773000Y-10867000D02*
X20883000Y-10977000D01*
X20883000Y-10867000D02*
X20773000Y-10977000D01*
X20883000Y-10922000D02*
G75*
G03*
X20883000Y-10922000I-55000J0D01*
G01*
X21027000Y-10867000D02*
X21137000Y-10977000D01*
X21137000Y-10867000D02*
X21027000Y-10977000D01*
X21137000Y-10922000D02*
G75*
G03*
X21137000Y-10922000I-55000J0D01*
G01*
X21281000Y-10867000D02*
X21391000Y-10977000D01*
X21391000Y-10867000D02*
X21281000Y-10977000D01*
X21391000Y-10922000D02*
G75*
G03*
X21391000Y-10922000I-55000J0D01*
G01*
D11*
X11170077Y-13074984D02*
X11170077Y-12874984D01*
X11170077Y-12874984D02*
X11217696Y-12874984D01*
X11217696Y-12874984D02*
X11246267Y-12884508D01*
X11246267Y-12884508D02*
X11265315Y-12903555D01*
X11265315Y-12903555D02*
X11274839Y-12922603D01*
X11274839Y-12922603D02*
X11284362Y-12960698D01*
X11284362Y-12960698D02*
X11284362Y-12989269D01*
X11284362Y-12989269D02*
X11274839Y-13027365D01*
X11274839Y-13027365D02*
X11265315Y-13046412D01*
X11265315Y-13046412D02*
X11246267Y-13065460D01*
X11246267Y-13065460D02*
X11217696Y-13074984D01*
X11217696Y-13074984D02*
X11170077Y-13074984D01*
X11370077Y-13074984D02*
X11370077Y-12941650D01*
X11370077Y-12979746D02*
X11379601Y-12960698D01*
X11379601Y-12960698D02*
X11389124Y-12951174D01*
X11389124Y-12951174D02*
X11408172Y-12941650D01*
X11408172Y-12941650D02*
X11427220Y-12941650D01*
X11493886Y-13074984D02*
X11493886Y-12941650D01*
X11493886Y-12874984D02*
X11484362Y-12884508D01*
X11484362Y-12884508D02*
X11493886Y-12894031D01*
X11493886Y-12894031D02*
X11503410Y-12884508D01*
X11503410Y-12884508D02*
X11493886Y-12874984D01*
X11493886Y-12874984D02*
X11493886Y-12894031D01*
X11617696Y-13074984D02*
X11598648Y-13065460D01*
X11598648Y-13065460D02*
X11589124Y-13046412D01*
X11589124Y-13046412D02*
X11589124Y-12874984D01*
X11722458Y-13074984D02*
X11703410Y-13065460D01*
X11703410Y-13065460D02*
X11693886Y-13046412D01*
X11693886Y-13046412D02*
X11693886Y-12874984D01*
X11951029Y-13074984D02*
X11951029Y-12874984D01*
X11951029Y-12874984D02*
X12017696Y-13017841D01*
X12017696Y-13017841D02*
X12084362Y-12874984D01*
X12084362Y-12874984D02*
X12084362Y-13074984D01*
X12265315Y-13074984D02*
X12265315Y-12970222D01*
X12265315Y-12970222D02*
X12255791Y-12951174D01*
X12255791Y-12951174D02*
X12236743Y-12941650D01*
X12236743Y-12941650D02*
X12198648Y-12941650D01*
X12198648Y-12941650D02*
X12179601Y-12951174D01*
X12265315Y-13065460D02*
X12246267Y-13074984D01*
X12246267Y-13074984D02*
X12198648Y-13074984D01*
X12198648Y-13074984D02*
X12179601Y-13065460D01*
X12179601Y-13065460D02*
X12170077Y-13046412D01*
X12170077Y-13046412D02*
X12170077Y-13027365D01*
X12170077Y-13027365D02*
X12179601Y-13008317D01*
X12179601Y-13008317D02*
X12198648Y-12998793D01*
X12198648Y-12998793D02*
X12246267Y-12998793D01*
X12246267Y-12998793D02*
X12265315Y-12989269D01*
X12360553Y-12941650D02*
X12360553Y-13141650D01*
X12360553Y-12951174D02*
X12379601Y-12941650D01*
X12379601Y-12941650D02*
X12417696Y-12941650D01*
X12417696Y-12941650D02*
X12436743Y-12951174D01*
X12436743Y-12951174D02*
X12446267Y-12960698D01*
X12446267Y-12960698D02*
X12455791Y-12979746D01*
X12455791Y-12979746D02*
X12455791Y-13036888D01*
X12455791Y-13036888D02*
X12446267Y-13055936D01*
X12446267Y-13055936D02*
X12436743Y-13065460D01*
X12436743Y-13065460D02*
X12417696Y-13074984D01*
X12417696Y-13074984D02*
X12379601Y-13074984D01*
X12379601Y-13074984D02*
X12360553Y-13065460D01*
X12541505Y-13055936D02*
X12551029Y-13065460D01*
X12551029Y-13065460D02*
X12541505Y-13074984D01*
X12541505Y-13074984D02*
X12531982Y-13065460D01*
X12531982Y-13065460D02*
X12541505Y-13055936D01*
X12541505Y-13055936D02*
X12541505Y-13074984D01*
X12541505Y-12951174D02*
X12551029Y-12960698D01*
X12551029Y-12960698D02*
X12541505Y-12970222D01*
X12541505Y-12970222D02*
X12531982Y-12960698D01*
X12531982Y-12960698D02*
X12541505Y-12951174D01*
X12541505Y-12951174D02*
X12541505Y-12970222D01*
D12*
X10869300Y-13383500D02*
X10909300Y-13423500D01*
X10909300Y-13383500D02*
X10869300Y-13423500D01*
D11*
X11208172Y-13294984D02*
X11227220Y-13294984D01*
X11227220Y-13294984D02*
X11246267Y-13304508D01*
X11246267Y-13304508D02*
X11255791Y-13314031D01*
X11255791Y-13314031D02*
X11265315Y-13333079D01*
X11265315Y-13333079D02*
X11274839Y-13371174D01*
X11274839Y-13371174D02*
X11274839Y-13418793D01*
X11274839Y-13418793D02*
X11265315Y-13456888D01*
X11265315Y-13456888D02*
X11255791Y-13475936D01*
X11255791Y-13475936D02*
X11246267Y-13485460D01*
X11246267Y-13485460D02*
X11227220Y-13494984D01*
X11227220Y-13494984D02*
X11208172Y-13494984D01*
X11208172Y-13494984D02*
X11189124Y-13485460D01*
X11189124Y-13485460D02*
X11179601Y-13475936D01*
X11179601Y-13475936D02*
X11170077Y-13456888D01*
X11170077Y-13456888D02*
X11160553Y-13418793D01*
X11160553Y-13418793D02*
X11160553Y-13371174D01*
X11160553Y-13371174D02*
X11170077Y-13333079D01*
X11170077Y-13333079D02*
X11179601Y-13314031D01*
X11179601Y-13314031D02*
X11189124Y-13304508D01*
X11189124Y-13304508D02*
X11208172Y-13294984D01*
X11360553Y-13475936D02*
X11370077Y-13485460D01*
X11370077Y-13485460D02*
X11360553Y-13494984D01*
X11360553Y-13494984D02*
X11351029Y-13485460D01*
X11351029Y-13485460D02*
X11360553Y-13475936D01*
X11360553Y-13475936D02*
X11360553Y-13494984D01*
X11541505Y-13361650D02*
X11541505Y-13494984D01*
X11493886Y-13285460D02*
X11446267Y-13428317D01*
X11446267Y-13428317D02*
X11570077Y-13428317D01*
X11684362Y-13294984D02*
X11703410Y-13294984D01*
X11703410Y-13294984D02*
X11722458Y-13304508D01*
X11722458Y-13304508D02*
X11731982Y-13314031D01*
X11731982Y-13314031D02*
X11741505Y-13333079D01*
X11741505Y-13333079D02*
X11751029Y-13371174D01*
X11751029Y-13371174D02*
X11751029Y-13418793D01*
X11751029Y-13418793D02*
X11741505Y-13456888D01*
X11741505Y-13456888D02*
X11731982Y-13475936D01*
X11731982Y-13475936D02*
X11722458Y-13485460D01*
X11722458Y-13485460D02*
X11703410Y-13494984D01*
X11703410Y-13494984D02*
X11684362Y-13494984D01*
X11684362Y-13494984D02*
X11665315Y-13485460D01*
X11665315Y-13485460D02*
X11655791Y-13475936D01*
X11655791Y-13475936D02*
X11646267Y-13456888D01*
X11646267Y-13456888D02*
X11636743Y-13418793D01*
X11636743Y-13418793D02*
X11636743Y-13371174D01*
X11636743Y-13371174D02*
X11646267Y-13333079D01*
X11646267Y-13333079D02*
X11655791Y-13314031D01*
X11655791Y-13314031D02*
X11665315Y-13304508D01*
X11665315Y-13304508D02*
X11684362Y-13294984D01*
X11874839Y-13294984D02*
X11893886Y-13294984D01*
X11893886Y-13294984D02*
X11912934Y-13304508D01*
X11912934Y-13304508D02*
X11922458Y-13314031D01*
X11922458Y-13314031D02*
X11931982Y-13333079D01*
X11931982Y-13333079D02*
X11941505Y-13371174D01*
X11941505Y-13371174D02*
X11941505Y-13418793D01*
X11941505Y-13418793D02*
X11931982Y-13456888D01*
X11931982Y-13456888D02*
X11922458Y-13475936D01*
X11922458Y-13475936D02*
X11912934Y-13485460D01*
X11912934Y-13485460D02*
X11893886Y-13494984D01*
X11893886Y-13494984D02*
X11874839Y-13494984D01*
X11874839Y-13494984D02*
X11855791Y-13485460D01*
X11855791Y-13485460D02*
X11846267Y-13475936D01*
X11846267Y-13475936D02*
X11836743Y-13456888D01*
X11836743Y-13456888D02*
X11827220Y-13418793D01*
X11827220Y-13418793D02*
X11827220Y-13371174D01*
X11827220Y-13371174D02*
X11836743Y-13333079D01*
X11836743Y-13333079D02*
X11846267Y-13314031D01*
X11846267Y-13314031D02*
X11855791Y-13304508D01*
X11855791Y-13304508D02*
X11874839Y-13294984D01*
X12027220Y-13494984D02*
X12027220Y-13361650D01*
X12027220Y-13380698D02*
X12036743Y-13371174D01*
X12036743Y-13371174D02*
X12055791Y-13361650D01*
X12055791Y-13361650D02*
X12084363Y-13361650D01*
X12084363Y-13361650D02*
X12103410Y-13371174D01*
X12103410Y-13371174D02*
X12112934Y-13390222D01*
X12112934Y-13390222D02*
X12112934Y-13494984D01*
X12112934Y-13390222D02*
X12122458Y-13371174D01*
X12122458Y-13371174D02*
X12141505Y-13361650D01*
X12141505Y-13361650D02*
X12170077Y-13361650D01*
X12170077Y-13361650D02*
X12189124Y-13371174D01*
X12189124Y-13371174D02*
X12198648Y-13390222D01*
X12198648Y-13390222D02*
X12198648Y-13494984D01*
X12293886Y-13494984D02*
X12293886Y-13361650D01*
X12293886Y-13380698D02*
X12303410Y-13371174D01*
X12303410Y-13371174D02*
X12322458Y-13361650D01*
X12322458Y-13361650D02*
X12351029Y-13361650D01*
X12351029Y-13361650D02*
X12370077Y-13371174D01*
X12370077Y-13371174D02*
X12379601Y-13390222D01*
X12379601Y-13390222D02*
X12379601Y-13494984D01*
X12379601Y-13390222D02*
X12389124Y-13371174D01*
X12389124Y-13371174D02*
X12408172Y-13361650D01*
X12408172Y-13361650D02*
X12436743Y-13361650D01*
X12436743Y-13361650D02*
X12455791Y-13371174D01*
X12455791Y-13371174D02*
X12465315Y-13390222D01*
X12465315Y-13390222D02*
X12465315Y-13494984D01*
X12855791Y-13285460D02*
X12684363Y-13542603D01*
X13112934Y-13294984D02*
X13131982Y-13294984D01*
X13131982Y-13294984D02*
X13151029Y-13304508D01*
X13151029Y-13304508D02*
X13160553Y-13314031D01*
X13160553Y-13314031D02*
X13170077Y-13333079D01*
X13170077Y-13333079D02*
X13179601Y-13371174D01*
X13179601Y-13371174D02*
X13179601Y-13418793D01*
X13179601Y-13418793D02*
X13170077Y-13456888D01*
X13170077Y-13456888D02*
X13160553Y-13475936D01*
X13160553Y-13475936D02*
X13151029Y-13485460D01*
X13151029Y-13485460D02*
X13131982Y-13494984D01*
X13131982Y-13494984D02*
X13112934Y-13494984D01*
X13112934Y-13494984D02*
X13093886Y-13485460D01*
X13093886Y-13485460D02*
X13084363Y-13475936D01*
X13084363Y-13475936D02*
X13074839Y-13456888D01*
X13074839Y-13456888D02*
X13065315Y-13418793D01*
X13065315Y-13418793D02*
X13065315Y-13371174D01*
X13065315Y-13371174D02*
X13074839Y-13333079D01*
X13074839Y-13333079D02*
X13084363Y-13314031D01*
X13084363Y-13314031D02*
X13093886Y-13304508D01*
X13093886Y-13304508D02*
X13112934Y-13294984D01*
X13265315Y-13475936D02*
X13274839Y-13485460D01*
X13274839Y-13485460D02*
X13265315Y-13494984D01*
X13265315Y-13494984D02*
X13255791Y-13485460D01*
X13255791Y-13485460D02*
X13265315Y-13475936D01*
X13265315Y-13475936D02*
X13265315Y-13494984D01*
X13398648Y-13294984D02*
X13417696Y-13294984D01*
X13417696Y-13294984D02*
X13436744Y-13304508D01*
X13436744Y-13304508D02*
X13446267Y-13314031D01*
X13446267Y-13314031D02*
X13455791Y-13333079D01*
X13455791Y-13333079D02*
X13465315Y-13371174D01*
X13465315Y-13371174D02*
X13465315Y-13418793D01*
X13465315Y-13418793D02*
X13455791Y-13456888D01*
X13455791Y-13456888D02*
X13446267Y-13475936D01*
X13446267Y-13475936D02*
X13436744Y-13485460D01*
X13436744Y-13485460D02*
X13417696Y-13494984D01*
X13417696Y-13494984D02*
X13398648Y-13494984D01*
X13398648Y-13494984D02*
X13379601Y-13485460D01*
X13379601Y-13485460D02*
X13370077Y-13475936D01*
X13370077Y-13475936D02*
X13360553Y-13456888D01*
X13360553Y-13456888D02*
X13351029Y-13418793D01*
X13351029Y-13418793D02*
X13351029Y-13371174D01*
X13351029Y-13371174D02*
X13360553Y-13333079D01*
X13360553Y-13333079D02*
X13370077Y-13314031D01*
X13370077Y-13314031D02*
X13379601Y-13304508D01*
X13379601Y-13304508D02*
X13398648Y-13294984D01*
X13655791Y-13494984D02*
X13541506Y-13494984D01*
X13598648Y-13494984D02*
X13598648Y-13294984D01*
X13598648Y-13294984D02*
X13579601Y-13323555D01*
X13579601Y-13323555D02*
X13560553Y-13342603D01*
X13560553Y-13342603D02*
X13541506Y-13352127D01*
X13836744Y-13294984D02*
X13741506Y-13294984D01*
X13741506Y-13294984D02*
X13731982Y-13390222D01*
X13731982Y-13390222D02*
X13741506Y-13380698D01*
X13741506Y-13380698D02*
X13760553Y-13371174D01*
X13760553Y-13371174D02*
X13808172Y-13371174D01*
X13808172Y-13371174D02*
X13827220Y-13380698D01*
X13827220Y-13380698D02*
X13836744Y-13390222D01*
X13836744Y-13390222D02*
X13846267Y-13409269D01*
X13846267Y-13409269D02*
X13846267Y-13456888D01*
X13846267Y-13456888D02*
X13836744Y-13475936D01*
X13836744Y-13475936D02*
X13827220Y-13485460D01*
X13827220Y-13485460D02*
X13808172Y-13494984D01*
X13808172Y-13494984D02*
X13760553Y-13494984D01*
X13760553Y-13494984D02*
X13741506Y-13485460D01*
X13741506Y-13485460D02*
X13731982Y-13475936D01*
X13912934Y-13294984D02*
X14046267Y-13294984D01*
X14046267Y-13294984D02*
X13960553Y-13494984D01*
X14112934Y-13294984D02*
X14112934Y-13333079D01*
X14189125Y-13294984D02*
X14189125Y-13333079D01*
X14484363Y-13571174D02*
X14474839Y-13561650D01*
X14474839Y-13561650D02*
X14455791Y-13533079D01*
X14455791Y-13533079D02*
X14446268Y-13514031D01*
X14446268Y-13514031D02*
X14436744Y-13485460D01*
X14436744Y-13485460D02*
X14427220Y-13437841D01*
X14427220Y-13437841D02*
X14427220Y-13399746D01*
X14427220Y-13399746D02*
X14436744Y-13352127D01*
X14436744Y-13352127D02*
X14446268Y-13323555D01*
X14446268Y-13323555D02*
X14455791Y-13304508D01*
X14455791Y-13304508D02*
X14474839Y-13275936D01*
X14474839Y-13275936D02*
X14484363Y-13266412D01*
X14541506Y-13294984D02*
X14665315Y-13294984D01*
X14665315Y-13294984D02*
X14598648Y-13371174D01*
X14598648Y-13371174D02*
X14627220Y-13371174D01*
X14627220Y-13371174D02*
X14646268Y-13380698D01*
X14646268Y-13380698D02*
X14655791Y-13390222D01*
X14655791Y-13390222D02*
X14665315Y-13409269D01*
X14665315Y-13409269D02*
X14665315Y-13456888D01*
X14665315Y-13456888D02*
X14655791Y-13475936D01*
X14655791Y-13475936D02*
X14646268Y-13485460D01*
X14646268Y-13485460D02*
X14627220Y-13494984D01*
X14627220Y-13494984D02*
X14570077Y-13494984D01*
X14570077Y-13494984D02*
X14551029Y-13485460D01*
X14551029Y-13485460D02*
X14541506Y-13475936D01*
X14760553Y-13494984D02*
X14798648Y-13494984D01*
X14798648Y-13494984D02*
X14817696Y-13485460D01*
X14817696Y-13485460D02*
X14827220Y-13475936D01*
X14827220Y-13475936D02*
X14846268Y-13447365D01*
X14846268Y-13447365D02*
X14855791Y-13409269D01*
X14855791Y-13409269D02*
X14855791Y-13333079D01*
X14855791Y-13333079D02*
X14846268Y-13314031D01*
X14846268Y-13314031D02*
X14836744Y-13304508D01*
X14836744Y-13304508D02*
X14817696Y-13294984D01*
X14817696Y-13294984D02*
X14779601Y-13294984D01*
X14779601Y-13294984D02*
X14760553Y-13304508D01*
X14760553Y-13304508D02*
X14751029Y-13314031D01*
X14751029Y-13314031D02*
X14741506Y-13333079D01*
X14741506Y-13333079D02*
X14741506Y-13380698D01*
X14741506Y-13380698D02*
X14751029Y-13399746D01*
X14751029Y-13399746D02*
X14760553Y-13409269D01*
X14760553Y-13409269D02*
X14779601Y-13418793D01*
X14779601Y-13418793D02*
X14817696Y-13418793D01*
X14817696Y-13418793D02*
X14836744Y-13409269D01*
X14836744Y-13409269D02*
X14846268Y-13399746D01*
X14846268Y-13399746D02*
X14855791Y-13380698D01*
X15093887Y-13494984D02*
X15093887Y-13294984D01*
X15179601Y-13494984D02*
X15179601Y-13390222D01*
X15179601Y-13390222D02*
X15170077Y-13371174D01*
X15170077Y-13371174D02*
X15151030Y-13361650D01*
X15151030Y-13361650D02*
X15122458Y-13361650D01*
X15122458Y-13361650D02*
X15103410Y-13371174D01*
X15103410Y-13371174D02*
X15093887Y-13380698D01*
X15303410Y-13494984D02*
X15284363Y-13485460D01*
X15284363Y-13485460D02*
X15274839Y-13475936D01*
X15274839Y-13475936D02*
X15265315Y-13456888D01*
X15265315Y-13456888D02*
X15265315Y-13399746D01*
X15265315Y-13399746D02*
X15274839Y-13380698D01*
X15274839Y-13380698D02*
X15284363Y-13371174D01*
X15284363Y-13371174D02*
X15303410Y-13361650D01*
X15303410Y-13361650D02*
X15331982Y-13361650D01*
X15331982Y-13361650D02*
X15351030Y-13371174D01*
X15351030Y-13371174D02*
X15360553Y-13380698D01*
X15360553Y-13380698D02*
X15370077Y-13399746D01*
X15370077Y-13399746D02*
X15370077Y-13456888D01*
X15370077Y-13456888D02*
X15360553Y-13475936D01*
X15360553Y-13475936D02*
X15351030Y-13485460D01*
X15351030Y-13485460D02*
X15331982Y-13494984D01*
X15331982Y-13494984D02*
X15303410Y-13494984D01*
X15484363Y-13494984D02*
X15465315Y-13485460D01*
X15465315Y-13485460D02*
X15455791Y-13466412D01*
X15455791Y-13466412D02*
X15455791Y-13294984D01*
X15636744Y-13485460D02*
X15617696Y-13494984D01*
X15617696Y-13494984D02*
X15579601Y-13494984D01*
X15579601Y-13494984D02*
X15560553Y-13485460D01*
X15560553Y-13485460D02*
X15551030Y-13466412D01*
X15551030Y-13466412D02*
X15551030Y-13390222D01*
X15551030Y-13390222D02*
X15560553Y-13371174D01*
X15560553Y-13371174D02*
X15579601Y-13361650D01*
X15579601Y-13361650D02*
X15617696Y-13361650D01*
X15617696Y-13361650D02*
X15636744Y-13371174D01*
X15636744Y-13371174D02*
X15646268Y-13390222D01*
X15646268Y-13390222D02*
X15646268Y-13409269D01*
X15646268Y-13409269D02*
X15551030Y-13428317D01*
X15722458Y-13485460D02*
X15741506Y-13494984D01*
X15741506Y-13494984D02*
X15779601Y-13494984D01*
X15779601Y-13494984D02*
X15798649Y-13485460D01*
X15798649Y-13485460D02*
X15808172Y-13466412D01*
X15808172Y-13466412D02*
X15808172Y-13456888D01*
X15808172Y-13456888D02*
X15798649Y-13437841D01*
X15798649Y-13437841D02*
X15779601Y-13428317D01*
X15779601Y-13428317D02*
X15751030Y-13428317D01*
X15751030Y-13428317D02*
X15731982Y-13418793D01*
X15731982Y-13418793D02*
X15722458Y-13399746D01*
X15722458Y-13399746D02*
X15722458Y-13390222D01*
X15722458Y-13390222D02*
X15731982Y-13371174D01*
X15731982Y-13371174D02*
X15751030Y-13361650D01*
X15751030Y-13361650D02*
X15779601Y-13361650D01*
X15779601Y-13361650D02*
X15798649Y-13371174D01*
X15874839Y-13571174D02*
X15884363Y-13561650D01*
X15884363Y-13561650D02*
X15903411Y-13533079D01*
X15903411Y-13533079D02*
X15912934Y-13514031D01*
X15912934Y-13514031D02*
X15922458Y-13485460D01*
X15922458Y-13485460D02*
X15931982Y-13437841D01*
X15931982Y-13437841D02*
X15931982Y-13399746D01*
X15931982Y-13399746D02*
X15922458Y-13352127D01*
X15922458Y-13352127D02*
X15912934Y-13323555D01*
X15912934Y-13323555D02*
X15903411Y-13304508D01*
X15903411Y-13304508D02*
X15884363Y-13275936D01*
X15884363Y-13275936D02*
X15874839Y-13266412D01*
D13*
X10909300Y-13667500D02*
G75*
G03*
X10909300Y-13667500I-30000J0D01*
G01*
D11*
X11208172Y-13558984D02*
X11227220Y-13558984D01*
X11227220Y-13558984D02*
X11246267Y-13568508D01*
X11246267Y-13568508D02*
X11255791Y-13578031D01*
X11255791Y-13578031D02*
X11265315Y-13597079D01*
X11265315Y-13597079D02*
X11274839Y-13635174D01*
X11274839Y-13635174D02*
X11274839Y-13682793D01*
X11274839Y-13682793D02*
X11265315Y-13720888D01*
X11265315Y-13720888D02*
X11255791Y-13739936D01*
X11255791Y-13739936D02*
X11246267Y-13749460D01*
X11246267Y-13749460D02*
X11227220Y-13758984D01*
X11227220Y-13758984D02*
X11208172Y-13758984D01*
X11208172Y-13758984D02*
X11189124Y-13749460D01*
X11189124Y-13749460D02*
X11179601Y-13739936D01*
X11179601Y-13739936D02*
X11170077Y-13720888D01*
X11170077Y-13720888D02*
X11160553Y-13682793D01*
X11160553Y-13682793D02*
X11160553Y-13635174D01*
X11160553Y-13635174D02*
X11170077Y-13597079D01*
X11170077Y-13597079D02*
X11179601Y-13578031D01*
X11179601Y-13578031D02*
X11189124Y-13568508D01*
X11189124Y-13568508D02*
X11208172Y-13558984D01*
X11360553Y-13739936D02*
X11370077Y-13749460D01*
X11370077Y-13749460D02*
X11360553Y-13758984D01*
X11360553Y-13758984D02*
X11351029Y-13749460D01*
X11351029Y-13749460D02*
X11360553Y-13739936D01*
X11360553Y-13739936D02*
X11360553Y-13758984D01*
X11541505Y-13558984D02*
X11503410Y-13558984D01*
X11503410Y-13558984D02*
X11484362Y-13568508D01*
X11484362Y-13568508D02*
X11474839Y-13578031D01*
X11474839Y-13578031D02*
X11455791Y-13606603D01*
X11455791Y-13606603D02*
X11446267Y-13644698D01*
X11446267Y-13644698D02*
X11446267Y-13720888D01*
X11446267Y-13720888D02*
X11455791Y-13739936D01*
X11455791Y-13739936D02*
X11465315Y-13749460D01*
X11465315Y-13749460D02*
X11484362Y-13758984D01*
X11484362Y-13758984D02*
X11522458Y-13758984D01*
X11522458Y-13758984D02*
X11541505Y-13749460D01*
X11541505Y-13749460D02*
X11551029Y-13739936D01*
X11551029Y-13739936D02*
X11560553Y-13720888D01*
X11560553Y-13720888D02*
X11560553Y-13673269D01*
X11560553Y-13673269D02*
X11551029Y-13654222D01*
X11551029Y-13654222D02*
X11541505Y-13644698D01*
X11541505Y-13644698D02*
X11522458Y-13635174D01*
X11522458Y-13635174D02*
X11484362Y-13635174D01*
X11484362Y-13635174D02*
X11465315Y-13644698D01*
X11465315Y-13644698D02*
X11455791Y-13654222D01*
X11455791Y-13654222D02*
X11446267Y-13673269D01*
X11684362Y-13558984D02*
X11703410Y-13558984D01*
X11703410Y-13558984D02*
X11722458Y-13568508D01*
X11722458Y-13568508D02*
X11731982Y-13578031D01*
X11731982Y-13578031D02*
X11741505Y-13597079D01*
X11741505Y-13597079D02*
X11751029Y-13635174D01*
X11751029Y-13635174D02*
X11751029Y-13682793D01*
X11751029Y-13682793D02*
X11741505Y-13720888D01*
X11741505Y-13720888D02*
X11731982Y-13739936D01*
X11731982Y-13739936D02*
X11722458Y-13749460D01*
X11722458Y-13749460D02*
X11703410Y-13758984D01*
X11703410Y-13758984D02*
X11684362Y-13758984D01*
X11684362Y-13758984D02*
X11665315Y-13749460D01*
X11665315Y-13749460D02*
X11655791Y-13739936D01*
X11655791Y-13739936D02*
X11646267Y-13720888D01*
X11646267Y-13720888D02*
X11636743Y-13682793D01*
X11636743Y-13682793D02*
X11636743Y-13635174D01*
X11636743Y-13635174D02*
X11646267Y-13597079D01*
X11646267Y-13597079D02*
X11655791Y-13578031D01*
X11655791Y-13578031D02*
X11665315Y-13568508D01*
X11665315Y-13568508D02*
X11684362Y-13558984D01*
X11874839Y-13558984D02*
X11893886Y-13558984D01*
X11893886Y-13558984D02*
X11912934Y-13568508D01*
X11912934Y-13568508D02*
X11922458Y-13578031D01*
X11922458Y-13578031D02*
X11931982Y-13597079D01*
X11931982Y-13597079D02*
X11941505Y-13635174D01*
X11941505Y-13635174D02*
X11941505Y-13682793D01*
X11941505Y-13682793D02*
X11931982Y-13720888D01*
X11931982Y-13720888D02*
X11922458Y-13739936D01*
X11922458Y-13739936D02*
X11912934Y-13749460D01*
X11912934Y-13749460D02*
X11893886Y-13758984D01*
X11893886Y-13758984D02*
X11874839Y-13758984D01*
X11874839Y-13758984D02*
X11855791Y-13749460D01*
X11855791Y-13749460D02*
X11846267Y-13739936D01*
X11846267Y-13739936D02*
X11836743Y-13720888D01*
X11836743Y-13720888D02*
X11827220Y-13682793D01*
X11827220Y-13682793D02*
X11827220Y-13635174D01*
X11827220Y-13635174D02*
X11836743Y-13597079D01*
X11836743Y-13597079D02*
X11846267Y-13578031D01*
X11846267Y-13578031D02*
X11855791Y-13568508D01*
X11855791Y-13568508D02*
X11874839Y-13558984D01*
X12027220Y-13758984D02*
X12027220Y-13625650D01*
X12027220Y-13644698D02*
X12036743Y-13635174D01*
X12036743Y-13635174D02*
X12055791Y-13625650D01*
X12055791Y-13625650D02*
X12084363Y-13625650D01*
X12084363Y-13625650D02*
X12103410Y-13635174D01*
X12103410Y-13635174D02*
X12112934Y-13654222D01*
X12112934Y-13654222D02*
X12112934Y-13758984D01*
X12112934Y-13654222D02*
X12122458Y-13635174D01*
X12122458Y-13635174D02*
X12141505Y-13625650D01*
X12141505Y-13625650D02*
X12170077Y-13625650D01*
X12170077Y-13625650D02*
X12189124Y-13635174D01*
X12189124Y-13635174D02*
X12198648Y-13654222D01*
X12198648Y-13654222D02*
X12198648Y-13758984D01*
X12293886Y-13758984D02*
X12293886Y-13625650D01*
X12293886Y-13644698D02*
X12303410Y-13635174D01*
X12303410Y-13635174D02*
X12322458Y-13625650D01*
X12322458Y-13625650D02*
X12351029Y-13625650D01*
X12351029Y-13625650D02*
X12370077Y-13635174D01*
X12370077Y-13635174D02*
X12379601Y-13654222D01*
X12379601Y-13654222D02*
X12379601Y-13758984D01*
X12379601Y-13654222D02*
X12389124Y-13635174D01*
X12389124Y-13635174D02*
X12408172Y-13625650D01*
X12408172Y-13625650D02*
X12436743Y-13625650D01*
X12436743Y-13625650D02*
X12455791Y-13635174D01*
X12455791Y-13635174D02*
X12465315Y-13654222D01*
X12465315Y-13654222D02*
X12465315Y-13758984D01*
X12855791Y-13549460D02*
X12684363Y-13806603D01*
X13112934Y-13558984D02*
X13131982Y-13558984D01*
X13131982Y-13558984D02*
X13151029Y-13568508D01*
X13151029Y-13568508D02*
X13160553Y-13578031D01*
X13160553Y-13578031D02*
X13170077Y-13597079D01*
X13170077Y-13597079D02*
X13179601Y-13635174D01*
X13179601Y-13635174D02*
X13179601Y-13682793D01*
X13179601Y-13682793D02*
X13170077Y-13720888D01*
X13170077Y-13720888D02*
X13160553Y-13739936D01*
X13160553Y-13739936D02*
X13151029Y-13749460D01*
X13151029Y-13749460D02*
X13131982Y-13758984D01*
X13131982Y-13758984D02*
X13112934Y-13758984D01*
X13112934Y-13758984D02*
X13093886Y-13749460D01*
X13093886Y-13749460D02*
X13084363Y-13739936D01*
X13084363Y-13739936D02*
X13074839Y-13720888D01*
X13074839Y-13720888D02*
X13065315Y-13682793D01*
X13065315Y-13682793D02*
X13065315Y-13635174D01*
X13065315Y-13635174D02*
X13074839Y-13597079D01*
X13074839Y-13597079D02*
X13084363Y-13578031D01*
X13084363Y-13578031D02*
X13093886Y-13568508D01*
X13093886Y-13568508D02*
X13112934Y-13558984D01*
X13265315Y-13739936D02*
X13274839Y-13749460D01*
X13274839Y-13749460D02*
X13265315Y-13758984D01*
X13265315Y-13758984D02*
X13255791Y-13749460D01*
X13255791Y-13749460D02*
X13265315Y-13739936D01*
X13265315Y-13739936D02*
X13265315Y-13758984D01*
X13398648Y-13558984D02*
X13417696Y-13558984D01*
X13417696Y-13558984D02*
X13436744Y-13568508D01*
X13436744Y-13568508D02*
X13446267Y-13578031D01*
X13446267Y-13578031D02*
X13455791Y-13597079D01*
X13455791Y-13597079D02*
X13465315Y-13635174D01*
X13465315Y-13635174D02*
X13465315Y-13682793D01*
X13465315Y-13682793D02*
X13455791Y-13720888D01*
X13455791Y-13720888D02*
X13446267Y-13739936D01*
X13446267Y-13739936D02*
X13436744Y-13749460D01*
X13436744Y-13749460D02*
X13417696Y-13758984D01*
X13417696Y-13758984D02*
X13398648Y-13758984D01*
X13398648Y-13758984D02*
X13379601Y-13749460D01*
X13379601Y-13749460D02*
X13370077Y-13739936D01*
X13370077Y-13739936D02*
X13360553Y-13720888D01*
X13360553Y-13720888D02*
X13351029Y-13682793D01*
X13351029Y-13682793D02*
X13351029Y-13635174D01*
X13351029Y-13635174D02*
X13360553Y-13597079D01*
X13360553Y-13597079D02*
X13370077Y-13578031D01*
X13370077Y-13578031D02*
X13379601Y-13568508D01*
X13379601Y-13568508D02*
X13398648Y-13558984D01*
X13541506Y-13578031D02*
X13551029Y-13568508D01*
X13551029Y-13568508D02*
X13570077Y-13558984D01*
X13570077Y-13558984D02*
X13617696Y-13558984D01*
X13617696Y-13558984D02*
X13636744Y-13568508D01*
X13636744Y-13568508D02*
X13646267Y-13578031D01*
X13646267Y-13578031D02*
X13655791Y-13597079D01*
X13655791Y-13597079D02*
X13655791Y-13616127D01*
X13655791Y-13616127D02*
X13646267Y-13644698D01*
X13646267Y-13644698D02*
X13531982Y-13758984D01*
X13531982Y-13758984D02*
X13655791Y-13758984D01*
X13722458Y-13558984D02*
X13846267Y-13558984D01*
X13846267Y-13558984D02*
X13779601Y-13635174D01*
X13779601Y-13635174D02*
X13808172Y-13635174D01*
X13808172Y-13635174D02*
X13827220Y-13644698D01*
X13827220Y-13644698D02*
X13836744Y-13654222D01*
X13836744Y-13654222D02*
X13846267Y-13673269D01*
X13846267Y-13673269D02*
X13846267Y-13720888D01*
X13846267Y-13720888D02*
X13836744Y-13739936D01*
X13836744Y-13739936D02*
X13827220Y-13749460D01*
X13827220Y-13749460D02*
X13808172Y-13758984D01*
X13808172Y-13758984D02*
X13751029Y-13758984D01*
X13751029Y-13758984D02*
X13731982Y-13749460D01*
X13731982Y-13749460D02*
X13722458Y-13739936D01*
X14017696Y-13558984D02*
X13979601Y-13558984D01*
X13979601Y-13558984D02*
X13960553Y-13568508D01*
X13960553Y-13568508D02*
X13951029Y-13578031D01*
X13951029Y-13578031D02*
X13931982Y-13606603D01*
X13931982Y-13606603D02*
X13922458Y-13644698D01*
X13922458Y-13644698D02*
X13922458Y-13720888D01*
X13922458Y-13720888D02*
X13931982Y-13739936D01*
X13931982Y-13739936D02*
X13941506Y-13749460D01*
X13941506Y-13749460D02*
X13960553Y-13758984D01*
X13960553Y-13758984D02*
X13998648Y-13758984D01*
X13998648Y-13758984D02*
X14017696Y-13749460D01*
X14017696Y-13749460D02*
X14027220Y-13739936D01*
X14027220Y-13739936D02*
X14036744Y-13720888D01*
X14036744Y-13720888D02*
X14036744Y-13673269D01*
X14036744Y-13673269D02*
X14027220Y-13654222D01*
X14027220Y-13654222D02*
X14017696Y-13644698D01*
X14017696Y-13644698D02*
X13998648Y-13635174D01*
X13998648Y-13635174D02*
X13960553Y-13635174D01*
X13960553Y-13635174D02*
X13941506Y-13644698D01*
X13941506Y-13644698D02*
X13931982Y-13654222D01*
X13931982Y-13654222D02*
X13922458Y-13673269D01*
X14112934Y-13558984D02*
X14112934Y-13597079D01*
X14189125Y-13558984D02*
X14189125Y-13597079D01*
X14484363Y-13835174D02*
X14474839Y-13825650D01*
X14474839Y-13825650D02*
X14455791Y-13797079D01*
X14455791Y-13797079D02*
X14446268Y-13778031D01*
X14446268Y-13778031D02*
X14436744Y-13749460D01*
X14436744Y-13749460D02*
X14427220Y-13701841D01*
X14427220Y-13701841D02*
X14427220Y-13663746D01*
X14427220Y-13663746D02*
X14436744Y-13616127D01*
X14436744Y-13616127D02*
X14446268Y-13587555D01*
X14446268Y-13587555D02*
X14455791Y-13568508D01*
X14455791Y-13568508D02*
X14474839Y-13539936D01*
X14474839Y-13539936D02*
X14484363Y-13530412D01*
X14541506Y-13558984D02*
X14665315Y-13558984D01*
X14665315Y-13558984D02*
X14598648Y-13635174D01*
X14598648Y-13635174D02*
X14627220Y-13635174D01*
X14627220Y-13635174D02*
X14646268Y-13644698D01*
X14646268Y-13644698D02*
X14655791Y-13654222D01*
X14655791Y-13654222D02*
X14665315Y-13673269D01*
X14665315Y-13673269D02*
X14665315Y-13720888D01*
X14665315Y-13720888D02*
X14655791Y-13739936D01*
X14655791Y-13739936D02*
X14646268Y-13749460D01*
X14646268Y-13749460D02*
X14627220Y-13758984D01*
X14627220Y-13758984D02*
X14570077Y-13758984D01*
X14570077Y-13758984D02*
X14551029Y-13749460D01*
X14551029Y-13749460D02*
X14541506Y-13739936D01*
X14903410Y-13758984D02*
X14903410Y-13558984D01*
X14989125Y-13758984D02*
X14989125Y-13654222D01*
X14989125Y-13654222D02*
X14979601Y-13635174D01*
X14979601Y-13635174D02*
X14960553Y-13625650D01*
X14960553Y-13625650D02*
X14931982Y-13625650D01*
X14931982Y-13625650D02*
X14912934Y-13635174D01*
X14912934Y-13635174D02*
X14903410Y-13644698D01*
X15112934Y-13758984D02*
X15093887Y-13749460D01*
X15093887Y-13749460D02*
X15084363Y-13739936D01*
X15084363Y-13739936D02*
X15074839Y-13720888D01*
X15074839Y-13720888D02*
X15074839Y-13663746D01*
X15074839Y-13663746D02*
X15084363Y-13644698D01*
X15084363Y-13644698D02*
X15093887Y-13635174D01*
X15093887Y-13635174D02*
X15112934Y-13625650D01*
X15112934Y-13625650D02*
X15141506Y-13625650D01*
X15141506Y-13625650D02*
X15160553Y-13635174D01*
X15160553Y-13635174D02*
X15170077Y-13644698D01*
X15170077Y-13644698D02*
X15179601Y-13663746D01*
X15179601Y-13663746D02*
X15179601Y-13720888D01*
X15179601Y-13720888D02*
X15170077Y-13739936D01*
X15170077Y-13739936D02*
X15160553Y-13749460D01*
X15160553Y-13749460D02*
X15141506Y-13758984D01*
X15141506Y-13758984D02*
X15112934Y-13758984D01*
X15293887Y-13758984D02*
X15274839Y-13749460D01*
X15274839Y-13749460D02*
X15265315Y-13730412D01*
X15265315Y-13730412D02*
X15265315Y-13558984D01*
X15446268Y-13749460D02*
X15427220Y-13758984D01*
X15427220Y-13758984D02*
X15389125Y-13758984D01*
X15389125Y-13758984D02*
X15370077Y-13749460D01*
X15370077Y-13749460D02*
X15360553Y-13730412D01*
X15360553Y-13730412D02*
X15360553Y-13654222D01*
X15360553Y-13654222D02*
X15370077Y-13635174D01*
X15370077Y-13635174D02*
X15389125Y-13625650D01*
X15389125Y-13625650D02*
X15427220Y-13625650D01*
X15427220Y-13625650D02*
X15446268Y-13635174D01*
X15446268Y-13635174D02*
X15455791Y-13654222D01*
X15455791Y-13654222D02*
X15455791Y-13673269D01*
X15455791Y-13673269D02*
X15360553Y-13692317D01*
X15531982Y-13749460D02*
X15551030Y-13758984D01*
X15551030Y-13758984D02*
X15589125Y-13758984D01*
X15589125Y-13758984D02*
X15608172Y-13749460D01*
X15608172Y-13749460D02*
X15617696Y-13730412D01*
X15617696Y-13730412D02*
X15617696Y-13720888D01*
X15617696Y-13720888D02*
X15608172Y-13701841D01*
X15608172Y-13701841D02*
X15589125Y-13692317D01*
X15589125Y-13692317D02*
X15560553Y-13692317D01*
X15560553Y-13692317D02*
X15541506Y-13682793D01*
X15541506Y-13682793D02*
X15531982Y-13663746D01*
X15531982Y-13663746D02*
X15531982Y-13654222D01*
X15531982Y-13654222D02*
X15541506Y-13635174D01*
X15541506Y-13635174D02*
X15560553Y-13625650D01*
X15560553Y-13625650D02*
X15589125Y-13625650D01*
X15589125Y-13625650D02*
X15608172Y-13635174D01*
X15684363Y-13835174D02*
X15693887Y-13825650D01*
X15693887Y-13825650D02*
X15712934Y-13797079D01*
X15712934Y-13797079D02*
X15722458Y-13778031D01*
X15722458Y-13778031D02*
X15731982Y-13749460D01*
X15731982Y-13749460D02*
X15741506Y-13701841D01*
X15741506Y-13701841D02*
X15741506Y-13663746D01*
X15741506Y-13663746D02*
X15731982Y-13616127D01*
X15731982Y-13616127D02*
X15722458Y-13587555D01*
X15722458Y-13587555D02*
X15712934Y-13568508D01*
X15712934Y-13568508D02*
X15693887Y-13539936D01*
X15693887Y-13539936D02*
X15684363Y-13530412D01*
D14*
X10869300Y-13891500D02*
X10869300Y-13971500D01*
X10829300Y-13931500D02*
X10909300Y-13931500D01*
D11*
X11208172Y-13822984D02*
X11227220Y-13822984D01*
X11227220Y-13822984D02*
X11246267Y-13832508D01*
X11246267Y-13832508D02*
X11255791Y-13842031D01*
X11255791Y-13842031D02*
X11265315Y-13861079D01*
X11265315Y-13861079D02*
X11274839Y-13899174D01*
X11274839Y-13899174D02*
X11274839Y-13946793D01*
X11274839Y-13946793D02*
X11265315Y-13984888D01*
X11265315Y-13984888D02*
X11255791Y-14003936D01*
X11255791Y-14003936D02*
X11246267Y-14013460D01*
X11246267Y-14013460D02*
X11227220Y-14022984D01*
X11227220Y-14022984D02*
X11208172Y-14022984D01*
X11208172Y-14022984D02*
X11189124Y-14013460D01*
X11189124Y-14013460D02*
X11179601Y-14003936D01*
X11179601Y-14003936D02*
X11170077Y-13984888D01*
X11170077Y-13984888D02*
X11160553Y-13946793D01*
X11160553Y-13946793D02*
X11160553Y-13899174D01*
X11160553Y-13899174D02*
X11170077Y-13861079D01*
X11170077Y-13861079D02*
X11179601Y-13842031D01*
X11179601Y-13842031D02*
X11189124Y-13832508D01*
X11189124Y-13832508D02*
X11208172Y-13822984D01*
X11360553Y-14003936D02*
X11370077Y-14013460D01*
X11370077Y-14013460D02*
X11360553Y-14022984D01*
X11360553Y-14022984D02*
X11351029Y-14013460D01*
X11351029Y-14013460D02*
X11360553Y-14003936D01*
X11360553Y-14003936D02*
X11360553Y-14022984D01*
X11484362Y-13908698D02*
X11465315Y-13899174D01*
X11465315Y-13899174D02*
X11455791Y-13889650D01*
X11455791Y-13889650D02*
X11446267Y-13870603D01*
X11446267Y-13870603D02*
X11446267Y-13861079D01*
X11446267Y-13861079D02*
X11455791Y-13842031D01*
X11455791Y-13842031D02*
X11465315Y-13832508D01*
X11465315Y-13832508D02*
X11484362Y-13822984D01*
X11484362Y-13822984D02*
X11522458Y-13822984D01*
X11522458Y-13822984D02*
X11541505Y-13832508D01*
X11541505Y-13832508D02*
X11551029Y-13842031D01*
X11551029Y-13842031D02*
X11560553Y-13861079D01*
X11560553Y-13861079D02*
X11560553Y-13870603D01*
X11560553Y-13870603D02*
X11551029Y-13889650D01*
X11551029Y-13889650D02*
X11541505Y-13899174D01*
X11541505Y-13899174D02*
X11522458Y-13908698D01*
X11522458Y-13908698D02*
X11484362Y-13908698D01*
X11484362Y-13908698D02*
X11465315Y-13918222D01*
X11465315Y-13918222D02*
X11455791Y-13927746D01*
X11455791Y-13927746D02*
X11446267Y-13946793D01*
X11446267Y-13946793D02*
X11446267Y-13984888D01*
X11446267Y-13984888D02*
X11455791Y-14003936D01*
X11455791Y-14003936D02*
X11465315Y-14013460D01*
X11465315Y-14013460D02*
X11484362Y-14022984D01*
X11484362Y-14022984D02*
X11522458Y-14022984D01*
X11522458Y-14022984D02*
X11541505Y-14013460D01*
X11541505Y-14013460D02*
X11551029Y-14003936D01*
X11551029Y-14003936D02*
X11560553Y-13984888D01*
X11560553Y-13984888D02*
X11560553Y-13946793D01*
X11560553Y-13946793D02*
X11551029Y-13927746D01*
X11551029Y-13927746D02*
X11541505Y-13918222D01*
X11541505Y-13918222D02*
X11522458Y-13908698D01*
X11684362Y-13822984D02*
X11703410Y-13822984D01*
X11703410Y-13822984D02*
X11722458Y-13832508D01*
X11722458Y-13832508D02*
X11731982Y-13842031D01*
X11731982Y-13842031D02*
X11741505Y-13861079D01*
X11741505Y-13861079D02*
X11751029Y-13899174D01*
X11751029Y-13899174D02*
X11751029Y-13946793D01*
X11751029Y-13946793D02*
X11741505Y-13984888D01*
X11741505Y-13984888D02*
X11731982Y-14003936D01*
X11731982Y-14003936D02*
X11722458Y-14013460D01*
X11722458Y-14013460D02*
X11703410Y-14022984D01*
X11703410Y-14022984D02*
X11684362Y-14022984D01*
X11684362Y-14022984D02*
X11665315Y-14013460D01*
X11665315Y-14013460D02*
X11655791Y-14003936D01*
X11655791Y-14003936D02*
X11646267Y-13984888D01*
X11646267Y-13984888D02*
X11636743Y-13946793D01*
X11636743Y-13946793D02*
X11636743Y-13899174D01*
X11636743Y-13899174D02*
X11646267Y-13861079D01*
X11646267Y-13861079D02*
X11655791Y-13842031D01*
X11655791Y-13842031D02*
X11665315Y-13832508D01*
X11665315Y-13832508D02*
X11684362Y-13822984D01*
X11874839Y-13822984D02*
X11893886Y-13822984D01*
X11893886Y-13822984D02*
X11912934Y-13832508D01*
X11912934Y-13832508D02*
X11922458Y-13842031D01*
X11922458Y-13842031D02*
X11931982Y-13861079D01*
X11931982Y-13861079D02*
X11941505Y-13899174D01*
X11941505Y-13899174D02*
X11941505Y-13946793D01*
X11941505Y-13946793D02*
X11931982Y-13984888D01*
X11931982Y-13984888D02*
X11922458Y-14003936D01*
X11922458Y-14003936D02*
X11912934Y-14013460D01*
X11912934Y-14013460D02*
X11893886Y-14022984D01*
X11893886Y-14022984D02*
X11874839Y-14022984D01*
X11874839Y-14022984D02*
X11855791Y-14013460D01*
X11855791Y-14013460D02*
X11846267Y-14003936D01*
X11846267Y-14003936D02*
X11836743Y-13984888D01*
X11836743Y-13984888D02*
X11827220Y-13946793D01*
X11827220Y-13946793D02*
X11827220Y-13899174D01*
X11827220Y-13899174D02*
X11836743Y-13861079D01*
X11836743Y-13861079D02*
X11846267Y-13842031D01*
X11846267Y-13842031D02*
X11855791Y-13832508D01*
X11855791Y-13832508D02*
X11874839Y-13822984D01*
X12027220Y-14022984D02*
X12027220Y-13889650D01*
X12027220Y-13908698D02*
X12036743Y-13899174D01*
X12036743Y-13899174D02*
X12055791Y-13889650D01*
X12055791Y-13889650D02*
X12084363Y-13889650D01*
X12084363Y-13889650D02*
X12103410Y-13899174D01*
X12103410Y-13899174D02*
X12112934Y-13918222D01*
X12112934Y-13918222D02*
X12112934Y-14022984D01*
X12112934Y-13918222D02*
X12122458Y-13899174D01*
X12122458Y-13899174D02*
X12141505Y-13889650D01*
X12141505Y-13889650D02*
X12170077Y-13889650D01*
X12170077Y-13889650D02*
X12189124Y-13899174D01*
X12189124Y-13899174D02*
X12198648Y-13918222D01*
X12198648Y-13918222D02*
X12198648Y-14022984D01*
X12293886Y-14022984D02*
X12293886Y-13889650D01*
X12293886Y-13908698D02*
X12303410Y-13899174D01*
X12303410Y-13899174D02*
X12322458Y-13889650D01*
X12322458Y-13889650D02*
X12351029Y-13889650D01*
X12351029Y-13889650D02*
X12370077Y-13899174D01*
X12370077Y-13899174D02*
X12379601Y-13918222D01*
X12379601Y-13918222D02*
X12379601Y-14022984D01*
X12379601Y-13918222D02*
X12389124Y-13899174D01*
X12389124Y-13899174D02*
X12408172Y-13889650D01*
X12408172Y-13889650D02*
X12436743Y-13889650D01*
X12436743Y-13889650D02*
X12455791Y-13899174D01*
X12455791Y-13899174D02*
X12465315Y-13918222D01*
X12465315Y-13918222D02*
X12465315Y-14022984D01*
X12855791Y-13813460D02*
X12684363Y-14070603D01*
X13112934Y-13822984D02*
X13131982Y-13822984D01*
X13131982Y-13822984D02*
X13151029Y-13832508D01*
X13151029Y-13832508D02*
X13160553Y-13842031D01*
X13160553Y-13842031D02*
X13170077Y-13861079D01*
X13170077Y-13861079D02*
X13179601Y-13899174D01*
X13179601Y-13899174D02*
X13179601Y-13946793D01*
X13179601Y-13946793D02*
X13170077Y-13984888D01*
X13170077Y-13984888D02*
X13160553Y-14003936D01*
X13160553Y-14003936D02*
X13151029Y-14013460D01*
X13151029Y-14013460D02*
X13131982Y-14022984D01*
X13131982Y-14022984D02*
X13112934Y-14022984D01*
X13112934Y-14022984D02*
X13093886Y-14013460D01*
X13093886Y-14013460D02*
X13084363Y-14003936D01*
X13084363Y-14003936D02*
X13074839Y-13984888D01*
X13074839Y-13984888D02*
X13065315Y-13946793D01*
X13065315Y-13946793D02*
X13065315Y-13899174D01*
X13065315Y-13899174D02*
X13074839Y-13861079D01*
X13074839Y-13861079D02*
X13084363Y-13842031D01*
X13084363Y-13842031D02*
X13093886Y-13832508D01*
X13093886Y-13832508D02*
X13112934Y-13822984D01*
X13265315Y-14003936D02*
X13274839Y-14013460D01*
X13274839Y-14013460D02*
X13265315Y-14022984D01*
X13265315Y-14022984D02*
X13255791Y-14013460D01*
X13255791Y-14013460D02*
X13265315Y-14003936D01*
X13265315Y-14003936D02*
X13265315Y-14022984D01*
X13398648Y-13822984D02*
X13417696Y-13822984D01*
X13417696Y-13822984D02*
X13436744Y-13832508D01*
X13436744Y-13832508D02*
X13446267Y-13842031D01*
X13446267Y-13842031D02*
X13455791Y-13861079D01*
X13455791Y-13861079D02*
X13465315Y-13899174D01*
X13465315Y-13899174D02*
X13465315Y-13946793D01*
X13465315Y-13946793D02*
X13455791Y-13984888D01*
X13455791Y-13984888D02*
X13446267Y-14003936D01*
X13446267Y-14003936D02*
X13436744Y-14013460D01*
X13436744Y-14013460D02*
X13417696Y-14022984D01*
X13417696Y-14022984D02*
X13398648Y-14022984D01*
X13398648Y-14022984D02*
X13379601Y-14013460D01*
X13379601Y-14013460D02*
X13370077Y-14003936D01*
X13370077Y-14003936D02*
X13360553Y-13984888D01*
X13360553Y-13984888D02*
X13351029Y-13946793D01*
X13351029Y-13946793D02*
X13351029Y-13899174D01*
X13351029Y-13899174D02*
X13360553Y-13861079D01*
X13360553Y-13861079D02*
X13370077Y-13842031D01*
X13370077Y-13842031D02*
X13379601Y-13832508D01*
X13379601Y-13832508D02*
X13398648Y-13822984D01*
X13531982Y-13822984D02*
X13655791Y-13822984D01*
X13655791Y-13822984D02*
X13589125Y-13899174D01*
X13589125Y-13899174D02*
X13617696Y-13899174D01*
X13617696Y-13899174D02*
X13636744Y-13908698D01*
X13636744Y-13908698D02*
X13646267Y-13918222D01*
X13646267Y-13918222D02*
X13655791Y-13937269D01*
X13655791Y-13937269D02*
X13655791Y-13984888D01*
X13655791Y-13984888D02*
X13646267Y-14003936D01*
X13646267Y-14003936D02*
X13636744Y-14013460D01*
X13636744Y-14013460D02*
X13617696Y-14022984D01*
X13617696Y-14022984D02*
X13560553Y-14022984D01*
X13560553Y-14022984D02*
X13541506Y-14013460D01*
X13541506Y-14013460D02*
X13531982Y-14003936D01*
X13846267Y-14022984D02*
X13731982Y-14022984D01*
X13789125Y-14022984D02*
X13789125Y-13822984D01*
X13789125Y-13822984D02*
X13770077Y-13851555D01*
X13770077Y-13851555D02*
X13751029Y-13870603D01*
X13751029Y-13870603D02*
X13731982Y-13880127D01*
X14027220Y-13822984D02*
X13931982Y-13822984D01*
X13931982Y-13822984D02*
X13922458Y-13918222D01*
X13922458Y-13918222D02*
X13931982Y-13908698D01*
X13931982Y-13908698D02*
X13951029Y-13899174D01*
X13951029Y-13899174D02*
X13998648Y-13899174D01*
X13998648Y-13899174D02*
X14017696Y-13908698D01*
X14017696Y-13908698D02*
X14027220Y-13918222D01*
X14027220Y-13918222D02*
X14036744Y-13937269D01*
X14036744Y-13937269D02*
X14036744Y-13984888D01*
X14036744Y-13984888D02*
X14027220Y-14003936D01*
X14027220Y-14003936D02*
X14017696Y-14013460D01*
X14017696Y-14013460D02*
X13998648Y-14022984D01*
X13998648Y-14022984D02*
X13951029Y-14022984D01*
X13951029Y-14022984D02*
X13931982Y-14013460D01*
X13931982Y-14013460D02*
X13922458Y-14003936D01*
X14112934Y-13822984D02*
X14112934Y-13861079D01*
X14189125Y-13822984D02*
X14189125Y-13861079D01*
X14484363Y-14099174D02*
X14474839Y-14089650D01*
X14474839Y-14089650D02*
X14455791Y-14061079D01*
X14455791Y-14061079D02*
X14446268Y-14042031D01*
X14446268Y-14042031D02*
X14436744Y-14013460D01*
X14436744Y-14013460D02*
X14427220Y-13965841D01*
X14427220Y-13965841D02*
X14427220Y-13927746D01*
X14427220Y-13927746D02*
X14436744Y-13880127D01*
X14436744Y-13880127D02*
X14446268Y-13851555D01*
X14446268Y-13851555D02*
X14455791Y-13832508D01*
X14455791Y-13832508D02*
X14474839Y-13803936D01*
X14474839Y-13803936D02*
X14484363Y-13794412D01*
X14665315Y-14022984D02*
X14551029Y-14022984D01*
X14608172Y-14022984D02*
X14608172Y-13822984D01*
X14608172Y-13822984D02*
X14589125Y-13851555D01*
X14589125Y-13851555D02*
X14570077Y-13870603D01*
X14570077Y-13870603D02*
X14551029Y-13880127D01*
X14741506Y-13842031D02*
X14751029Y-13832508D01*
X14751029Y-13832508D02*
X14770077Y-13822984D01*
X14770077Y-13822984D02*
X14817696Y-13822984D01*
X14817696Y-13822984D02*
X14836744Y-13832508D01*
X14836744Y-13832508D02*
X14846268Y-13842031D01*
X14846268Y-13842031D02*
X14855791Y-13861079D01*
X14855791Y-13861079D02*
X14855791Y-13880127D01*
X14855791Y-13880127D02*
X14846268Y-13908698D01*
X14846268Y-13908698D02*
X14731982Y-14022984D01*
X14731982Y-14022984D02*
X14855791Y-14022984D01*
X14979601Y-13822984D02*
X14998649Y-13822984D01*
X14998649Y-13822984D02*
X15017696Y-13832508D01*
X15017696Y-13832508D02*
X15027220Y-13842031D01*
X15027220Y-13842031D02*
X15036744Y-13861079D01*
X15036744Y-13861079D02*
X15046268Y-13899174D01*
X15046268Y-13899174D02*
X15046268Y-13946793D01*
X15046268Y-13946793D02*
X15036744Y-13984888D01*
X15036744Y-13984888D02*
X15027220Y-14003936D01*
X15027220Y-14003936D02*
X15017696Y-14013460D01*
X15017696Y-14013460D02*
X14998649Y-14022984D01*
X14998649Y-14022984D02*
X14979601Y-14022984D01*
X14979601Y-14022984D02*
X14960553Y-14013460D01*
X14960553Y-14013460D02*
X14951029Y-14003936D01*
X14951029Y-14003936D02*
X14941506Y-13984888D01*
X14941506Y-13984888D02*
X14931982Y-13946793D01*
X14931982Y-13946793D02*
X14931982Y-13899174D01*
X14931982Y-13899174D02*
X14941506Y-13861079D01*
X14941506Y-13861079D02*
X14951029Y-13842031D01*
X14951029Y-13842031D02*
X14960553Y-13832508D01*
X14960553Y-13832508D02*
X14979601Y-13822984D01*
X15284363Y-14022984D02*
X15284363Y-13822984D01*
X15370077Y-14022984D02*
X15370077Y-13918222D01*
X15370077Y-13918222D02*
X15360553Y-13899174D01*
X15360553Y-13899174D02*
X15341506Y-13889650D01*
X15341506Y-13889650D02*
X15312934Y-13889650D01*
X15312934Y-13889650D02*
X15293887Y-13899174D01*
X15293887Y-13899174D02*
X15284363Y-13908698D01*
X15493887Y-14022984D02*
X15474839Y-14013460D01*
X15474839Y-14013460D02*
X15465315Y-14003936D01*
X15465315Y-14003936D02*
X15455791Y-13984888D01*
X15455791Y-13984888D02*
X15455791Y-13927746D01*
X15455791Y-13927746D02*
X15465315Y-13908698D01*
X15465315Y-13908698D02*
X15474839Y-13899174D01*
X15474839Y-13899174D02*
X15493887Y-13889650D01*
X15493887Y-13889650D02*
X15522458Y-13889650D01*
X15522458Y-13889650D02*
X15541506Y-13899174D01*
X15541506Y-13899174D02*
X15551030Y-13908698D01*
X15551030Y-13908698D02*
X15560553Y-13927746D01*
X15560553Y-13927746D02*
X15560553Y-13984888D01*
X15560553Y-13984888D02*
X15551030Y-14003936D01*
X15551030Y-14003936D02*
X15541506Y-14013460D01*
X15541506Y-14013460D02*
X15522458Y-14022984D01*
X15522458Y-14022984D02*
X15493887Y-14022984D01*
X15674839Y-14022984D02*
X15655791Y-14013460D01*
X15655791Y-14013460D02*
X15646268Y-13994412D01*
X15646268Y-13994412D02*
X15646268Y-13822984D01*
X15827220Y-14013460D02*
X15808172Y-14022984D01*
X15808172Y-14022984D02*
X15770077Y-14022984D01*
X15770077Y-14022984D02*
X15751030Y-14013460D01*
X15751030Y-14013460D02*
X15741506Y-13994412D01*
X15741506Y-13994412D02*
X15741506Y-13918222D01*
X15741506Y-13918222D02*
X15751030Y-13899174D01*
X15751030Y-13899174D02*
X15770077Y-13889650D01*
X15770077Y-13889650D02*
X15808172Y-13889650D01*
X15808172Y-13889650D02*
X15827220Y-13899174D01*
X15827220Y-13899174D02*
X15836744Y-13918222D01*
X15836744Y-13918222D02*
X15836744Y-13937269D01*
X15836744Y-13937269D02*
X15741506Y-13956317D01*
X15912934Y-14013460D02*
X15931982Y-14022984D01*
X15931982Y-14022984D02*
X15970077Y-14022984D01*
X15970077Y-14022984D02*
X15989125Y-14013460D01*
X15989125Y-14013460D02*
X15998649Y-13994412D01*
X15998649Y-13994412D02*
X15998649Y-13984888D01*
X15998649Y-13984888D02*
X15989125Y-13965841D01*
X15989125Y-13965841D02*
X15970077Y-13956317D01*
X15970077Y-13956317D02*
X15941506Y-13956317D01*
X15941506Y-13956317D02*
X15922458Y-13946793D01*
X15922458Y-13946793D02*
X15912934Y-13927746D01*
X15912934Y-13927746D02*
X15912934Y-13918222D01*
X15912934Y-13918222D02*
X15922458Y-13899174D01*
X15922458Y-13899174D02*
X15941506Y-13889650D01*
X15941506Y-13889650D02*
X15970077Y-13889650D01*
X15970077Y-13889650D02*
X15989125Y-13899174D01*
X16065315Y-14099174D02*
X16074839Y-14089650D01*
X16074839Y-14089650D02*
X16093887Y-14061079D01*
X16093887Y-14061079D02*
X16103411Y-14042031D01*
X16103411Y-14042031D02*
X16112934Y-14013460D01*
X16112934Y-14013460D02*
X16122458Y-13965841D01*
X16122458Y-13965841D02*
X16122458Y-13927746D01*
X16122458Y-13927746D02*
X16112934Y-13880127D01*
X16112934Y-13880127D02*
X16103411Y-13851555D01*
X16103411Y-13851555D02*
X16093887Y-13832508D01*
X16093887Y-13832508D02*
X16074839Y-13803936D01*
X16074839Y-13803936D02*
X16065315Y-13794412D01*
D15*
X10894656Y-14230856D02*
X10894656Y-14160144D01*
X10823944Y-14160144D01*
X10823944Y-14230856D01*
X10894656Y-14230856D01*
D11*
X11274839Y-14286984D02*
X11160553Y-14286984D01*
X11217696Y-14286984D02*
X11217696Y-14086984D01*
X11217696Y-14086984D02*
X11198648Y-14115555D01*
X11198648Y-14115555D02*
X11179601Y-14134603D01*
X11179601Y-14134603D02*
X11160553Y-14144127D01*
X11360553Y-14267936D02*
X11370077Y-14277460D01*
X11370077Y-14277460D02*
X11360553Y-14286984D01*
X11360553Y-14286984D02*
X11351029Y-14277460D01*
X11351029Y-14277460D02*
X11360553Y-14267936D01*
X11360553Y-14267936D02*
X11360553Y-14286984D01*
X11493886Y-14086984D02*
X11512934Y-14086984D01*
X11512934Y-14086984D02*
X11531982Y-14096508D01*
X11531982Y-14096508D02*
X11541505Y-14106031D01*
X11541505Y-14106031D02*
X11551029Y-14125079D01*
X11551029Y-14125079D02*
X11560553Y-14163174D01*
X11560553Y-14163174D02*
X11560553Y-14210793D01*
X11560553Y-14210793D02*
X11551029Y-14248888D01*
X11551029Y-14248888D02*
X11541505Y-14267936D01*
X11541505Y-14267936D02*
X11531982Y-14277460D01*
X11531982Y-14277460D02*
X11512934Y-14286984D01*
X11512934Y-14286984D02*
X11493886Y-14286984D01*
X11493886Y-14286984D02*
X11474839Y-14277460D01*
X11474839Y-14277460D02*
X11465315Y-14267936D01*
X11465315Y-14267936D02*
X11455791Y-14248888D01*
X11455791Y-14248888D02*
X11446267Y-14210793D01*
X11446267Y-14210793D02*
X11446267Y-14163174D01*
X11446267Y-14163174D02*
X11455791Y-14125079D01*
X11455791Y-14125079D02*
X11465315Y-14106031D01*
X11465315Y-14106031D02*
X11474839Y-14096508D01*
X11474839Y-14096508D02*
X11493886Y-14086984D01*
X11684362Y-14086984D02*
X11703410Y-14086984D01*
X11703410Y-14086984D02*
X11722458Y-14096508D01*
X11722458Y-14096508D02*
X11731982Y-14106031D01*
X11731982Y-14106031D02*
X11741505Y-14125079D01*
X11741505Y-14125079D02*
X11751029Y-14163174D01*
X11751029Y-14163174D02*
X11751029Y-14210793D01*
X11751029Y-14210793D02*
X11741505Y-14248888D01*
X11741505Y-14248888D02*
X11731982Y-14267936D01*
X11731982Y-14267936D02*
X11722458Y-14277460D01*
X11722458Y-14277460D02*
X11703410Y-14286984D01*
X11703410Y-14286984D02*
X11684362Y-14286984D01*
X11684362Y-14286984D02*
X11665315Y-14277460D01*
X11665315Y-14277460D02*
X11655791Y-14267936D01*
X11655791Y-14267936D02*
X11646267Y-14248888D01*
X11646267Y-14248888D02*
X11636743Y-14210793D01*
X11636743Y-14210793D02*
X11636743Y-14163174D01*
X11636743Y-14163174D02*
X11646267Y-14125079D01*
X11646267Y-14125079D02*
X11655791Y-14106031D01*
X11655791Y-14106031D02*
X11665315Y-14096508D01*
X11665315Y-14096508D02*
X11684362Y-14086984D01*
X11874839Y-14086984D02*
X11893886Y-14086984D01*
X11893886Y-14086984D02*
X11912934Y-14096508D01*
X11912934Y-14096508D02*
X11922458Y-14106031D01*
X11922458Y-14106031D02*
X11931982Y-14125079D01*
X11931982Y-14125079D02*
X11941505Y-14163174D01*
X11941505Y-14163174D02*
X11941505Y-14210793D01*
X11941505Y-14210793D02*
X11931982Y-14248888D01*
X11931982Y-14248888D02*
X11922458Y-14267936D01*
X11922458Y-14267936D02*
X11912934Y-14277460D01*
X11912934Y-14277460D02*
X11893886Y-14286984D01*
X11893886Y-14286984D02*
X11874839Y-14286984D01*
X11874839Y-14286984D02*
X11855791Y-14277460D01*
X11855791Y-14277460D02*
X11846267Y-14267936D01*
X11846267Y-14267936D02*
X11836743Y-14248888D01*
X11836743Y-14248888D02*
X11827220Y-14210793D01*
X11827220Y-14210793D02*
X11827220Y-14163174D01*
X11827220Y-14163174D02*
X11836743Y-14125079D01*
X11836743Y-14125079D02*
X11846267Y-14106031D01*
X11846267Y-14106031D02*
X11855791Y-14096508D01*
X11855791Y-14096508D02*
X11874839Y-14086984D01*
X12027220Y-14286984D02*
X12027220Y-14153650D01*
X12027220Y-14172698D02*
X12036743Y-14163174D01*
X12036743Y-14163174D02*
X12055791Y-14153650D01*
X12055791Y-14153650D02*
X12084363Y-14153650D01*
X12084363Y-14153650D02*
X12103410Y-14163174D01*
X12103410Y-14163174D02*
X12112934Y-14182222D01*
X12112934Y-14182222D02*
X12112934Y-14286984D01*
X12112934Y-14182222D02*
X12122458Y-14163174D01*
X12122458Y-14163174D02*
X12141505Y-14153650D01*
X12141505Y-14153650D02*
X12170077Y-14153650D01*
X12170077Y-14153650D02*
X12189124Y-14163174D01*
X12189124Y-14163174D02*
X12198648Y-14182222D01*
X12198648Y-14182222D02*
X12198648Y-14286984D01*
X12293886Y-14286984D02*
X12293886Y-14153650D01*
X12293886Y-14172698D02*
X12303410Y-14163174D01*
X12303410Y-14163174D02*
X12322458Y-14153650D01*
X12322458Y-14153650D02*
X12351029Y-14153650D01*
X12351029Y-14153650D02*
X12370077Y-14163174D01*
X12370077Y-14163174D02*
X12379601Y-14182222D01*
X12379601Y-14182222D02*
X12379601Y-14286984D01*
X12379601Y-14182222D02*
X12389124Y-14163174D01*
X12389124Y-14163174D02*
X12408172Y-14153650D01*
X12408172Y-14153650D02*
X12436743Y-14153650D01*
X12436743Y-14153650D02*
X12455791Y-14163174D01*
X12455791Y-14163174D02*
X12465315Y-14182222D01*
X12465315Y-14182222D02*
X12465315Y-14286984D01*
X12855791Y-14077460D02*
X12684363Y-14334603D01*
X13112934Y-14086984D02*
X13131982Y-14086984D01*
X13131982Y-14086984D02*
X13151029Y-14096508D01*
X13151029Y-14096508D02*
X13160553Y-14106031D01*
X13160553Y-14106031D02*
X13170077Y-14125079D01*
X13170077Y-14125079D02*
X13179601Y-14163174D01*
X13179601Y-14163174D02*
X13179601Y-14210793D01*
X13179601Y-14210793D02*
X13170077Y-14248888D01*
X13170077Y-14248888D02*
X13160553Y-14267936D01*
X13160553Y-14267936D02*
X13151029Y-14277460D01*
X13151029Y-14277460D02*
X13131982Y-14286984D01*
X13131982Y-14286984D02*
X13112934Y-14286984D01*
X13112934Y-14286984D02*
X13093886Y-14277460D01*
X13093886Y-14277460D02*
X13084363Y-14267936D01*
X13084363Y-14267936D02*
X13074839Y-14248888D01*
X13074839Y-14248888D02*
X13065315Y-14210793D01*
X13065315Y-14210793D02*
X13065315Y-14163174D01*
X13065315Y-14163174D02*
X13074839Y-14125079D01*
X13074839Y-14125079D02*
X13084363Y-14106031D01*
X13084363Y-14106031D02*
X13093886Y-14096508D01*
X13093886Y-14096508D02*
X13112934Y-14086984D01*
X13265315Y-14267936D02*
X13274839Y-14277460D01*
X13274839Y-14277460D02*
X13265315Y-14286984D01*
X13265315Y-14286984D02*
X13255791Y-14277460D01*
X13255791Y-14277460D02*
X13265315Y-14267936D01*
X13265315Y-14267936D02*
X13265315Y-14286984D01*
X13398648Y-14086984D02*
X13417696Y-14086984D01*
X13417696Y-14086984D02*
X13436744Y-14096508D01*
X13436744Y-14096508D02*
X13446267Y-14106031D01*
X13446267Y-14106031D02*
X13455791Y-14125079D01*
X13455791Y-14125079D02*
X13465315Y-14163174D01*
X13465315Y-14163174D02*
X13465315Y-14210793D01*
X13465315Y-14210793D02*
X13455791Y-14248888D01*
X13455791Y-14248888D02*
X13446267Y-14267936D01*
X13446267Y-14267936D02*
X13436744Y-14277460D01*
X13436744Y-14277460D02*
X13417696Y-14286984D01*
X13417696Y-14286984D02*
X13398648Y-14286984D01*
X13398648Y-14286984D02*
X13379601Y-14277460D01*
X13379601Y-14277460D02*
X13370077Y-14267936D01*
X13370077Y-14267936D02*
X13360553Y-14248888D01*
X13360553Y-14248888D02*
X13351029Y-14210793D01*
X13351029Y-14210793D02*
X13351029Y-14163174D01*
X13351029Y-14163174D02*
X13360553Y-14125079D01*
X13360553Y-14125079D02*
X13370077Y-14106031D01*
X13370077Y-14106031D02*
X13379601Y-14096508D01*
X13379601Y-14096508D02*
X13398648Y-14086984D01*
X13531982Y-14086984D02*
X13655791Y-14086984D01*
X13655791Y-14086984D02*
X13589125Y-14163174D01*
X13589125Y-14163174D02*
X13617696Y-14163174D01*
X13617696Y-14163174D02*
X13636744Y-14172698D01*
X13636744Y-14172698D02*
X13646267Y-14182222D01*
X13646267Y-14182222D02*
X13655791Y-14201269D01*
X13655791Y-14201269D02*
X13655791Y-14248888D01*
X13655791Y-14248888D02*
X13646267Y-14267936D01*
X13646267Y-14267936D02*
X13636744Y-14277460D01*
X13636744Y-14277460D02*
X13617696Y-14286984D01*
X13617696Y-14286984D02*
X13560553Y-14286984D01*
X13560553Y-14286984D02*
X13541506Y-14277460D01*
X13541506Y-14277460D02*
X13531982Y-14267936D01*
X13751029Y-14286984D02*
X13789125Y-14286984D01*
X13789125Y-14286984D02*
X13808172Y-14277460D01*
X13808172Y-14277460D02*
X13817696Y-14267936D01*
X13817696Y-14267936D02*
X13836744Y-14239365D01*
X13836744Y-14239365D02*
X13846267Y-14201269D01*
X13846267Y-14201269D02*
X13846267Y-14125079D01*
X13846267Y-14125079D02*
X13836744Y-14106031D01*
X13836744Y-14106031D02*
X13827220Y-14096508D01*
X13827220Y-14096508D02*
X13808172Y-14086984D01*
X13808172Y-14086984D02*
X13770077Y-14086984D01*
X13770077Y-14086984D02*
X13751029Y-14096508D01*
X13751029Y-14096508D02*
X13741506Y-14106031D01*
X13741506Y-14106031D02*
X13731982Y-14125079D01*
X13731982Y-14125079D02*
X13731982Y-14172698D01*
X13731982Y-14172698D02*
X13741506Y-14191746D01*
X13741506Y-14191746D02*
X13751029Y-14201269D01*
X13751029Y-14201269D02*
X13770077Y-14210793D01*
X13770077Y-14210793D02*
X13808172Y-14210793D01*
X13808172Y-14210793D02*
X13827220Y-14201269D01*
X13827220Y-14201269D02*
X13836744Y-14191746D01*
X13836744Y-14191746D02*
X13846267Y-14172698D01*
X14017696Y-14153650D02*
X14017696Y-14286984D01*
X13970077Y-14077460D02*
X13922458Y-14220317D01*
X13922458Y-14220317D02*
X14046267Y-14220317D01*
X14112934Y-14086984D02*
X14112934Y-14125079D01*
X14189125Y-14086984D02*
X14189125Y-14125079D01*
X14484363Y-14363174D02*
X14474839Y-14353650D01*
X14474839Y-14353650D02*
X14455791Y-14325079D01*
X14455791Y-14325079D02*
X14446268Y-14306031D01*
X14446268Y-14306031D02*
X14436744Y-14277460D01*
X14436744Y-14277460D02*
X14427220Y-14229841D01*
X14427220Y-14229841D02*
X14427220Y-14191746D01*
X14427220Y-14191746D02*
X14436744Y-14144127D01*
X14436744Y-14144127D02*
X14446268Y-14115555D01*
X14446268Y-14115555D02*
X14455791Y-14096508D01*
X14455791Y-14096508D02*
X14474839Y-14067936D01*
X14474839Y-14067936D02*
X14484363Y-14058412D01*
X14665315Y-14286984D02*
X14551029Y-14286984D01*
X14608172Y-14286984D02*
X14608172Y-14086984D01*
X14608172Y-14086984D02*
X14589125Y-14115555D01*
X14589125Y-14115555D02*
X14570077Y-14134603D01*
X14570077Y-14134603D02*
X14551029Y-14144127D01*
X14836744Y-14086984D02*
X14798648Y-14086984D01*
X14798648Y-14086984D02*
X14779601Y-14096508D01*
X14779601Y-14096508D02*
X14770077Y-14106031D01*
X14770077Y-14106031D02*
X14751029Y-14134603D01*
X14751029Y-14134603D02*
X14741506Y-14172698D01*
X14741506Y-14172698D02*
X14741506Y-14248888D01*
X14741506Y-14248888D02*
X14751029Y-14267936D01*
X14751029Y-14267936D02*
X14760553Y-14277460D01*
X14760553Y-14277460D02*
X14779601Y-14286984D01*
X14779601Y-14286984D02*
X14817696Y-14286984D01*
X14817696Y-14286984D02*
X14836744Y-14277460D01*
X14836744Y-14277460D02*
X14846268Y-14267936D01*
X14846268Y-14267936D02*
X14855791Y-14248888D01*
X14855791Y-14248888D02*
X14855791Y-14201269D01*
X14855791Y-14201269D02*
X14846268Y-14182222D01*
X14846268Y-14182222D02*
X14836744Y-14172698D01*
X14836744Y-14172698D02*
X14817696Y-14163174D01*
X14817696Y-14163174D02*
X14779601Y-14163174D01*
X14779601Y-14163174D02*
X14760553Y-14172698D01*
X14760553Y-14172698D02*
X14751029Y-14182222D01*
X14751029Y-14182222D02*
X14741506Y-14201269D01*
X15093887Y-14286984D02*
X15093887Y-14086984D01*
X15179601Y-14286984D02*
X15179601Y-14182222D01*
X15179601Y-14182222D02*
X15170077Y-14163174D01*
X15170077Y-14163174D02*
X15151030Y-14153650D01*
X15151030Y-14153650D02*
X15122458Y-14153650D01*
X15122458Y-14153650D02*
X15103410Y-14163174D01*
X15103410Y-14163174D02*
X15093887Y-14172698D01*
X15303410Y-14286984D02*
X15284363Y-14277460D01*
X15284363Y-14277460D02*
X15274839Y-14267936D01*
X15274839Y-14267936D02*
X15265315Y-14248888D01*
X15265315Y-14248888D02*
X15265315Y-14191746D01*
X15265315Y-14191746D02*
X15274839Y-14172698D01*
X15274839Y-14172698D02*
X15284363Y-14163174D01*
X15284363Y-14163174D02*
X15303410Y-14153650D01*
X15303410Y-14153650D02*
X15331982Y-14153650D01*
X15331982Y-14153650D02*
X15351030Y-14163174D01*
X15351030Y-14163174D02*
X15360553Y-14172698D01*
X15360553Y-14172698D02*
X15370077Y-14191746D01*
X15370077Y-14191746D02*
X15370077Y-14248888D01*
X15370077Y-14248888D02*
X15360553Y-14267936D01*
X15360553Y-14267936D02*
X15351030Y-14277460D01*
X15351030Y-14277460D02*
X15331982Y-14286984D01*
X15331982Y-14286984D02*
X15303410Y-14286984D01*
X15484363Y-14286984D02*
X15465315Y-14277460D01*
X15465315Y-14277460D02*
X15455791Y-14258412D01*
X15455791Y-14258412D02*
X15455791Y-14086984D01*
X15636744Y-14277460D02*
X15617696Y-14286984D01*
X15617696Y-14286984D02*
X15579601Y-14286984D01*
X15579601Y-14286984D02*
X15560553Y-14277460D01*
X15560553Y-14277460D02*
X15551030Y-14258412D01*
X15551030Y-14258412D02*
X15551030Y-14182222D01*
X15551030Y-14182222D02*
X15560553Y-14163174D01*
X15560553Y-14163174D02*
X15579601Y-14153650D01*
X15579601Y-14153650D02*
X15617696Y-14153650D01*
X15617696Y-14153650D02*
X15636744Y-14163174D01*
X15636744Y-14163174D02*
X15646268Y-14182222D01*
X15646268Y-14182222D02*
X15646268Y-14201269D01*
X15646268Y-14201269D02*
X15551030Y-14220317D01*
X15722458Y-14277460D02*
X15741506Y-14286984D01*
X15741506Y-14286984D02*
X15779601Y-14286984D01*
X15779601Y-14286984D02*
X15798649Y-14277460D01*
X15798649Y-14277460D02*
X15808172Y-14258412D01*
X15808172Y-14258412D02*
X15808172Y-14248888D01*
X15808172Y-14248888D02*
X15798649Y-14229841D01*
X15798649Y-14229841D02*
X15779601Y-14220317D01*
X15779601Y-14220317D02*
X15751030Y-14220317D01*
X15751030Y-14220317D02*
X15731982Y-14210793D01*
X15731982Y-14210793D02*
X15722458Y-14191746D01*
X15722458Y-14191746D02*
X15722458Y-14182222D01*
X15722458Y-14182222D02*
X15731982Y-14163174D01*
X15731982Y-14163174D02*
X15751030Y-14153650D01*
X15751030Y-14153650D02*
X15779601Y-14153650D01*
X15779601Y-14153650D02*
X15798649Y-14163174D01*
X15874839Y-14363174D02*
X15884363Y-14353650D01*
X15884363Y-14353650D02*
X15903411Y-14325079D01*
X15903411Y-14325079D02*
X15912934Y-14306031D01*
X15912934Y-14306031D02*
X15922458Y-14277460D01*
X15922458Y-14277460D02*
X15931982Y-14229841D01*
X15931982Y-14229841D02*
X15931982Y-14191746D01*
X15931982Y-14191746D02*
X15922458Y-14144127D01*
X15922458Y-14144127D02*
X15912934Y-14115555D01*
X15912934Y-14115555D02*
X15903411Y-14096508D01*
X15903411Y-14096508D02*
X15884363Y-14067936D01*
X15884363Y-14067936D02*
X15874839Y-14058412D01*
D16*
X10858300Y-14510500D02*
X10909300Y-14459500D01*
X10858300Y-14408500D01*
X10807300Y-14459500D01*
X10858300Y-14510500D01*
D11*
X11274839Y-14550984D02*
X11160553Y-14550984D01*
X11217696Y-14550984D02*
X11217696Y-14350984D01*
X11217696Y-14350984D02*
X11198648Y-14379555D01*
X11198648Y-14379555D02*
X11179601Y-14398603D01*
X11179601Y-14398603D02*
X11160553Y-14408127D01*
X11360553Y-14531936D02*
X11370077Y-14541460D01*
X11370077Y-14541460D02*
X11360553Y-14550984D01*
X11360553Y-14550984D02*
X11351029Y-14541460D01*
X11351029Y-14541460D02*
X11360553Y-14531936D01*
X11360553Y-14531936D02*
X11360553Y-14550984D01*
X11493886Y-14350984D02*
X11512934Y-14350984D01*
X11512934Y-14350984D02*
X11531982Y-14360508D01*
X11531982Y-14360508D02*
X11541505Y-14370031D01*
X11541505Y-14370031D02*
X11551029Y-14389079D01*
X11551029Y-14389079D02*
X11560553Y-14427174D01*
X11560553Y-14427174D02*
X11560553Y-14474793D01*
X11560553Y-14474793D02*
X11551029Y-14512888D01*
X11551029Y-14512888D02*
X11541505Y-14531936D01*
X11541505Y-14531936D02*
X11531982Y-14541460D01*
X11531982Y-14541460D02*
X11512934Y-14550984D01*
X11512934Y-14550984D02*
X11493886Y-14550984D01*
X11493886Y-14550984D02*
X11474839Y-14541460D01*
X11474839Y-14541460D02*
X11465315Y-14531936D01*
X11465315Y-14531936D02*
X11455791Y-14512888D01*
X11455791Y-14512888D02*
X11446267Y-14474793D01*
X11446267Y-14474793D02*
X11446267Y-14427174D01*
X11446267Y-14427174D02*
X11455791Y-14389079D01*
X11455791Y-14389079D02*
X11465315Y-14370031D01*
X11465315Y-14370031D02*
X11474839Y-14360508D01*
X11474839Y-14360508D02*
X11493886Y-14350984D01*
X11636743Y-14370031D02*
X11646267Y-14360508D01*
X11646267Y-14360508D02*
X11665315Y-14350984D01*
X11665315Y-14350984D02*
X11712934Y-14350984D01*
X11712934Y-14350984D02*
X11731982Y-14360508D01*
X11731982Y-14360508D02*
X11741505Y-14370031D01*
X11741505Y-14370031D02*
X11751029Y-14389079D01*
X11751029Y-14389079D02*
X11751029Y-14408127D01*
X11751029Y-14408127D02*
X11741505Y-14436698D01*
X11741505Y-14436698D02*
X11627220Y-14550984D01*
X11627220Y-14550984D02*
X11751029Y-14550984D01*
X11874839Y-14350984D02*
X11893886Y-14350984D01*
X11893886Y-14350984D02*
X11912934Y-14360508D01*
X11912934Y-14360508D02*
X11922458Y-14370031D01*
X11922458Y-14370031D02*
X11931982Y-14389079D01*
X11931982Y-14389079D02*
X11941505Y-14427174D01*
X11941505Y-14427174D02*
X11941505Y-14474793D01*
X11941505Y-14474793D02*
X11931982Y-14512888D01*
X11931982Y-14512888D02*
X11922458Y-14531936D01*
X11922458Y-14531936D02*
X11912934Y-14541460D01*
X11912934Y-14541460D02*
X11893886Y-14550984D01*
X11893886Y-14550984D02*
X11874839Y-14550984D01*
X11874839Y-14550984D02*
X11855791Y-14541460D01*
X11855791Y-14541460D02*
X11846267Y-14531936D01*
X11846267Y-14531936D02*
X11836743Y-14512888D01*
X11836743Y-14512888D02*
X11827220Y-14474793D01*
X11827220Y-14474793D02*
X11827220Y-14427174D01*
X11827220Y-14427174D02*
X11836743Y-14389079D01*
X11836743Y-14389079D02*
X11846267Y-14370031D01*
X11846267Y-14370031D02*
X11855791Y-14360508D01*
X11855791Y-14360508D02*
X11874839Y-14350984D01*
X12027220Y-14550984D02*
X12027220Y-14417650D01*
X12027220Y-14436698D02*
X12036743Y-14427174D01*
X12036743Y-14427174D02*
X12055791Y-14417650D01*
X12055791Y-14417650D02*
X12084363Y-14417650D01*
X12084363Y-14417650D02*
X12103410Y-14427174D01*
X12103410Y-14427174D02*
X12112934Y-14446222D01*
X12112934Y-14446222D02*
X12112934Y-14550984D01*
X12112934Y-14446222D02*
X12122458Y-14427174D01*
X12122458Y-14427174D02*
X12141505Y-14417650D01*
X12141505Y-14417650D02*
X12170077Y-14417650D01*
X12170077Y-14417650D02*
X12189124Y-14427174D01*
X12189124Y-14427174D02*
X12198648Y-14446222D01*
X12198648Y-14446222D02*
X12198648Y-14550984D01*
X12293886Y-14550984D02*
X12293886Y-14417650D01*
X12293886Y-14436698D02*
X12303410Y-14427174D01*
X12303410Y-14427174D02*
X12322458Y-14417650D01*
X12322458Y-14417650D02*
X12351029Y-14417650D01*
X12351029Y-14417650D02*
X12370077Y-14427174D01*
X12370077Y-14427174D02*
X12379601Y-14446222D01*
X12379601Y-14446222D02*
X12379601Y-14550984D01*
X12379601Y-14446222D02*
X12389124Y-14427174D01*
X12389124Y-14427174D02*
X12408172Y-14417650D01*
X12408172Y-14417650D02*
X12436743Y-14417650D01*
X12436743Y-14417650D02*
X12455791Y-14427174D01*
X12455791Y-14427174D02*
X12465315Y-14446222D01*
X12465315Y-14446222D02*
X12465315Y-14550984D01*
X12855791Y-14341460D02*
X12684363Y-14598603D01*
X13112934Y-14350984D02*
X13131982Y-14350984D01*
X13131982Y-14350984D02*
X13151029Y-14360508D01*
X13151029Y-14360508D02*
X13160553Y-14370031D01*
X13160553Y-14370031D02*
X13170077Y-14389079D01*
X13170077Y-14389079D02*
X13179601Y-14427174D01*
X13179601Y-14427174D02*
X13179601Y-14474793D01*
X13179601Y-14474793D02*
X13170077Y-14512888D01*
X13170077Y-14512888D02*
X13160553Y-14531936D01*
X13160553Y-14531936D02*
X13151029Y-14541460D01*
X13151029Y-14541460D02*
X13131982Y-14550984D01*
X13131982Y-14550984D02*
X13112934Y-14550984D01*
X13112934Y-14550984D02*
X13093886Y-14541460D01*
X13093886Y-14541460D02*
X13084363Y-14531936D01*
X13084363Y-14531936D02*
X13074839Y-14512888D01*
X13074839Y-14512888D02*
X13065315Y-14474793D01*
X13065315Y-14474793D02*
X13065315Y-14427174D01*
X13065315Y-14427174D02*
X13074839Y-14389079D01*
X13074839Y-14389079D02*
X13084363Y-14370031D01*
X13084363Y-14370031D02*
X13093886Y-14360508D01*
X13093886Y-14360508D02*
X13112934Y-14350984D01*
X13265315Y-14531936D02*
X13274839Y-14541460D01*
X13274839Y-14541460D02*
X13265315Y-14550984D01*
X13265315Y-14550984D02*
X13255791Y-14541460D01*
X13255791Y-14541460D02*
X13265315Y-14531936D01*
X13265315Y-14531936D02*
X13265315Y-14550984D01*
X13398648Y-14350984D02*
X13417696Y-14350984D01*
X13417696Y-14350984D02*
X13436744Y-14360508D01*
X13436744Y-14360508D02*
X13446267Y-14370031D01*
X13446267Y-14370031D02*
X13455791Y-14389079D01*
X13455791Y-14389079D02*
X13465315Y-14427174D01*
X13465315Y-14427174D02*
X13465315Y-14474793D01*
X13465315Y-14474793D02*
X13455791Y-14512888D01*
X13455791Y-14512888D02*
X13446267Y-14531936D01*
X13446267Y-14531936D02*
X13436744Y-14541460D01*
X13436744Y-14541460D02*
X13417696Y-14550984D01*
X13417696Y-14550984D02*
X13398648Y-14550984D01*
X13398648Y-14550984D02*
X13379601Y-14541460D01*
X13379601Y-14541460D02*
X13370077Y-14531936D01*
X13370077Y-14531936D02*
X13360553Y-14512888D01*
X13360553Y-14512888D02*
X13351029Y-14474793D01*
X13351029Y-14474793D02*
X13351029Y-14427174D01*
X13351029Y-14427174D02*
X13360553Y-14389079D01*
X13360553Y-14389079D02*
X13370077Y-14370031D01*
X13370077Y-14370031D02*
X13379601Y-14360508D01*
X13379601Y-14360508D02*
X13398648Y-14350984D01*
X13636744Y-14417650D02*
X13636744Y-14550984D01*
X13589125Y-14341460D02*
X13541506Y-14484317D01*
X13541506Y-14484317D02*
X13665315Y-14484317D01*
X13779601Y-14350984D02*
X13798648Y-14350984D01*
X13798648Y-14350984D02*
X13817696Y-14360508D01*
X13817696Y-14360508D02*
X13827220Y-14370031D01*
X13827220Y-14370031D02*
X13836744Y-14389079D01*
X13836744Y-14389079D02*
X13846267Y-14427174D01*
X13846267Y-14427174D02*
X13846267Y-14474793D01*
X13846267Y-14474793D02*
X13836744Y-14512888D01*
X13836744Y-14512888D02*
X13827220Y-14531936D01*
X13827220Y-14531936D02*
X13817696Y-14541460D01*
X13817696Y-14541460D02*
X13798648Y-14550984D01*
X13798648Y-14550984D02*
X13779601Y-14550984D01*
X13779601Y-14550984D02*
X13760553Y-14541460D01*
X13760553Y-14541460D02*
X13751029Y-14531936D01*
X13751029Y-14531936D02*
X13741506Y-14512888D01*
X13741506Y-14512888D02*
X13731982Y-14474793D01*
X13731982Y-14474793D02*
X13731982Y-14427174D01*
X13731982Y-14427174D02*
X13741506Y-14389079D01*
X13741506Y-14389079D02*
X13751029Y-14370031D01*
X13751029Y-14370031D02*
X13760553Y-14360508D01*
X13760553Y-14360508D02*
X13779601Y-14350984D01*
X13922458Y-14370031D02*
X13931982Y-14360508D01*
X13931982Y-14360508D02*
X13951029Y-14350984D01*
X13951029Y-14350984D02*
X13998648Y-14350984D01*
X13998648Y-14350984D02*
X14017696Y-14360508D01*
X14017696Y-14360508D02*
X14027220Y-14370031D01*
X14027220Y-14370031D02*
X14036744Y-14389079D01*
X14036744Y-14389079D02*
X14036744Y-14408127D01*
X14036744Y-14408127D02*
X14027220Y-14436698D01*
X14027220Y-14436698D02*
X13912934Y-14550984D01*
X13912934Y-14550984D02*
X14036744Y-14550984D01*
X14112934Y-14350984D02*
X14112934Y-14389079D01*
X14189125Y-14350984D02*
X14189125Y-14389079D01*
X14484363Y-14627174D02*
X14474839Y-14617650D01*
X14474839Y-14617650D02*
X14455791Y-14589079D01*
X14455791Y-14589079D02*
X14446268Y-14570031D01*
X14446268Y-14570031D02*
X14436744Y-14541460D01*
X14436744Y-14541460D02*
X14427220Y-14493841D01*
X14427220Y-14493841D02*
X14427220Y-14455746D01*
X14427220Y-14455746D02*
X14436744Y-14408127D01*
X14436744Y-14408127D02*
X14446268Y-14379555D01*
X14446268Y-14379555D02*
X14455791Y-14360508D01*
X14455791Y-14360508D02*
X14474839Y-14331936D01*
X14474839Y-14331936D02*
X14484363Y-14322412D01*
X14646268Y-14417650D02*
X14646268Y-14550984D01*
X14598648Y-14341460D02*
X14551029Y-14484317D01*
X14551029Y-14484317D02*
X14674839Y-14484317D01*
X14731982Y-14350984D02*
X14855791Y-14350984D01*
X14855791Y-14350984D02*
X14789125Y-14427174D01*
X14789125Y-14427174D02*
X14817696Y-14427174D01*
X14817696Y-14427174D02*
X14836744Y-14436698D01*
X14836744Y-14436698D02*
X14846268Y-14446222D01*
X14846268Y-14446222D02*
X14855791Y-14465269D01*
X14855791Y-14465269D02*
X14855791Y-14512888D01*
X14855791Y-14512888D02*
X14846268Y-14531936D01*
X14846268Y-14531936D02*
X14836744Y-14541460D01*
X14836744Y-14541460D02*
X14817696Y-14550984D01*
X14817696Y-14550984D02*
X14760553Y-14550984D01*
X14760553Y-14550984D02*
X14741506Y-14541460D01*
X14741506Y-14541460D02*
X14731982Y-14531936D01*
X15093887Y-14550984D02*
X15093887Y-14350984D01*
X15179601Y-14550984D02*
X15179601Y-14446222D01*
X15179601Y-14446222D02*
X15170077Y-14427174D01*
X15170077Y-14427174D02*
X15151030Y-14417650D01*
X15151030Y-14417650D02*
X15122458Y-14417650D01*
X15122458Y-14417650D02*
X15103410Y-14427174D01*
X15103410Y-14427174D02*
X15093887Y-14436698D01*
X15303410Y-14550984D02*
X15284363Y-14541460D01*
X15284363Y-14541460D02*
X15274839Y-14531936D01*
X15274839Y-14531936D02*
X15265315Y-14512888D01*
X15265315Y-14512888D02*
X15265315Y-14455746D01*
X15265315Y-14455746D02*
X15274839Y-14436698D01*
X15274839Y-14436698D02*
X15284363Y-14427174D01*
X15284363Y-14427174D02*
X15303410Y-14417650D01*
X15303410Y-14417650D02*
X15331982Y-14417650D01*
X15331982Y-14417650D02*
X15351030Y-14427174D01*
X15351030Y-14427174D02*
X15360553Y-14436698D01*
X15360553Y-14436698D02*
X15370077Y-14455746D01*
X15370077Y-14455746D02*
X15370077Y-14512888D01*
X15370077Y-14512888D02*
X15360553Y-14531936D01*
X15360553Y-14531936D02*
X15351030Y-14541460D01*
X15351030Y-14541460D02*
X15331982Y-14550984D01*
X15331982Y-14550984D02*
X15303410Y-14550984D01*
X15484363Y-14550984D02*
X15465315Y-14541460D01*
X15465315Y-14541460D02*
X15455791Y-14522412D01*
X15455791Y-14522412D02*
X15455791Y-14350984D01*
X15636744Y-14541460D02*
X15617696Y-14550984D01*
X15617696Y-14550984D02*
X15579601Y-14550984D01*
X15579601Y-14550984D02*
X15560553Y-14541460D01*
X15560553Y-14541460D02*
X15551030Y-14522412D01*
X15551030Y-14522412D02*
X15551030Y-14446222D01*
X15551030Y-14446222D02*
X15560553Y-14427174D01*
X15560553Y-14427174D02*
X15579601Y-14417650D01*
X15579601Y-14417650D02*
X15617696Y-14417650D01*
X15617696Y-14417650D02*
X15636744Y-14427174D01*
X15636744Y-14427174D02*
X15646268Y-14446222D01*
X15646268Y-14446222D02*
X15646268Y-14465269D01*
X15646268Y-14465269D02*
X15551030Y-14484317D01*
X15722458Y-14541460D02*
X15741506Y-14550984D01*
X15741506Y-14550984D02*
X15779601Y-14550984D01*
X15779601Y-14550984D02*
X15798649Y-14541460D01*
X15798649Y-14541460D02*
X15808172Y-14522412D01*
X15808172Y-14522412D02*
X15808172Y-14512888D01*
X15808172Y-14512888D02*
X15798649Y-14493841D01*
X15798649Y-14493841D02*
X15779601Y-14484317D01*
X15779601Y-14484317D02*
X15751030Y-14484317D01*
X15751030Y-14484317D02*
X15731982Y-14474793D01*
X15731982Y-14474793D02*
X15722458Y-14455746D01*
X15722458Y-14455746D02*
X15722458Y-14446222D01*
X15722458Y-14446222D02*
X15731982Y-14427174D01*
X15731982Y-14427174D02*
X15751030Y-14417650D01*
X15751030Y-14417650D02*
X15779601Y-14417650D01*
X15779601Y-14417650D02*
X15798649Y-14427174D01*
X15874839Y-14627174D02*
X15884363Y-14617650D01*
X15884363Y-14617650D02*
X15903411Y-14589079D01*
X15903411Y-14589079D02*
X15912934Y-14570031D01*
X15912934Y-14570031D02*
X15922458Y-14541460D01*
X15922458Y-14541460D02*
X15931982Y-14493841D01*
X15931982Y-14493841D02*
X15931982Y-14455746D01*
X15931982Y-14455746D02*
X15922458Y-14408127D01*
X15922458Y-14408127D02*
X15912934Y-14379555D01*
X15912934Y-14379555D02*
X15903411Y-14360508D01*
X15903411Y-14360508D02*
X15884363Y-14331936D01*
X15884363Y-14331936D02*
X15874839Y-14322412D01*
D17*
X10799300Y-14668500D02*
X10909300Y-14778500D01*
X10909300Y-14668500D02*
X10799300Y-14778500D01*
X10909300Y-14723500D02*
G75*
G03*
X10909300Y-14723500I-55000J0D01*
G01*
D11*
X11274839Y-14814984D02*
X11160553Y-14814984D01*
X11217696Y-14814984D02*
X11217696Y-14614984D01*
X11217696Y-14614984D02*
X11198648Y-14643555D01*
X11198648Y-14643555D02*
X11179601Y-14662603D01*
X11179601Y-14662603D02*
X11160553Y-14672127D01*
X11360553Y-14795936D02*
X11370077Y-14805460D01*
X11370077Y-14805460D02*
X11360553Y-14814984D01*
X11360553Y-14814984D02*
X11351029Y-14805460D01*
X11351029Y-14805460D02*
X11360553Y-14795936D01*
X11360553Y-14795936D02*
X11360553Y-14814984D01*
X11560553Y-14814984D02*
X11446267Y-14814984D01*
X11503410Y-14814984D02*
X11503410Y-14614984D01*
X11503410Y-14614984D02*
X11484362Y-14643555D01*
X11484362Y-14643555D02*
X11465315Y-14662603D01*
X11465315Y-14662603D02*
X11446267Y-14672127D01*
X11684362Y-14614984D02*
X11703410Y-14614984D01*
X11703410Y-14614984D02*
X11722458Y-14624508D01*
X11722458Y-14624508D02*
X11731982Y-14634031D01*
X11731982Y-14634031D02*
X11741505Y-14653079D01*
X11741505Y-14653079D02*
X11751029Y-14691174D01*
X11751029Y-14691174D02*
X11751029Y-14738793D01*
X11751029Y-14738793D02*
X11741505Y-14776888D01*
X11741505Y-14776888D02*
X11731982Y-14795936D01*
X11731982Y-14795936D02*
X11722458Y-14805460D01*
X11722458Y-14805460D02*
X11703410Y-14814984D01*
X11703410Y-14814984D02*
X11684362Y-14814984D01*
X11684362Y-14814984D02*
X11665315Y-14805460D01*
X11665315Y-14805460D02*
X11655791Y-14795936D01*
X11655791Y-14795936D02*
X11646267Y-14776888D01*
X11646267Y-14776888D02*
X11636743Y-14738793D01*
X11636743Y-14738793D02*
X11636743Y-14691174D01*
X11636743Y-14691174D02*
X11646267Y-14653079D01*
X11646267Y-14653079D02*
X11655791Y-14634031D01*
X11655791Y-14634031D02*
X11665315Y-14624508D01*
X11665315Y-14624508D02*
X11684362Y-14614984D01*
X11874839Y-14614984D02*
X11893886Y-14614984D01*
X11893886Y-14614984D02*
X11912934Y-14624508D01*
X11912934Y-14624508D02*
X11922458Y-14634031D01*
X11922458Y-14634031D02*
X11931982Y-14653079D01*
X11931982Y-14653079D02*
X11941505Y-14691174D01*
X11941505Y-14691174D02*
X11941505Y-14738793D01*
X11941505Y-14738793D02*
X11931982Y-14776888D01*
X11931982Y-14776888D02*
X11922458Y-14795936D01*
X11922458Y-14795936D02*
X11912934Y-14805460D01*
X11912934Y-14805460D02*
X11893886Y-14814984D01*
X11893886Y-14814984D02*
X11874839Y-14814984D01*
X11874839Y-14814984D02*
X11855791Y-14805460D01*
X11855791Y-14805460D02*
X11846267Y-14795936D01*
X11846267Y-14795936D02*
X11836743Y-14776888D01*
X11836743Y-14776888D02*
X11827220Y-14738793D01*
X11827220Y-14738793D02*
X11827220Y-14691174D01*
X11827220Y-14691174D02*
X11836743Y-14653079D01*
X11836743Y-14653079D02*
X11846267Y-14634031D01*
X11846267Y-14634031D02*
X11855791Y-14624508D01*
X11855791Y-14624508D02*
X11874839Y-14614984D01*
X12027220Y-14814984D02*
X12027220Y-14681650D01*
X12027220Y-14700698D02*
X12036743Y-14691174D01*
X12036743Y-14691174D02*
X12055791Y-14681650D01*
X12055791Y-14681650D02*
X12084363Y-14681650D01*
X12084363Y-14681650D02*
X12103410Y-14691174D01*
X12103410Y-14691174D02*
X12112934Y-14710222D01*
X12112934Y-14710222D02*
X12112934Y-14814984D01*
X12112934Y-14710222D02*
X12122458Y-14691174D01*
X12122458Y-14691174D02*
X12141505Y-14681650D01*
X12141505Y-14681650D02*
X12170077Y-14681650D01*
X12170077Y-14681650D02*
X12189124Y-14691174D01*
X12189124Y-14691174D02*
X12198648Y-14710222D01*
X12198648Y-14710222D02*
X12198648Y-14814984D01*
X12293886Y-14814984D02*
X12293886Y-14681650D01*
X12293886Y-14700698D02*
X12303410Y-14691174D01*
X12303410Y-14691174D02*
X12322458Y-14681650D01*
X12322458Y-14681650D02*
X12351029Y-14681650D01*
X12351029Y-14681650D02*
X12370077Y-14691174D01*
X12370077Y-14691174D02*
X12379601Y-14710222D01*
X12379601Y-14710222D02*
X12379601Y-14814984D01*
X12379601Y-14710222D02*
X12389124Y-14691174D01*
X12389124Y-14691174D02*
X12408172Y-14681650D01*
X12408172Y-14681650D02*
X12436743Y-14681650D01*
X12436743Y-14681650D02*
X12455791Y-14691174D01*
X12455791Y-14691174D02*
X12465315Y-14710222D01*
X12465315Y-14710222D02*
X12465315Y-14814984D01*
X12855791Y-14605460D02*
X12684363Y-14862603D01*
X13112934Y-14614984D02*
X13131982Y-14614984D01*
X13131982Y-14614984D02*
X13151029Y-14624508D01*
X13151029Y-14624508D02*
X13160553Y-14634031D01*
X13160553Y-14634031D02*
X13170077Y-14653079D01*
X13170077Y-14653079D02*
X13179601Y-14691174D01*
X13179601Y-14691174D02*
X13179601Y-14738793D01*
X13179601Y-14738793D02*
X13170077Y-14776888D01*
X13170077Y-14776888D02*
X13160553Y-14795936D01*
X13160553Y-14795936D02*
X13151029Y-14805460D01*
X13151029Y-14805460D02*
X13131982Y-14814984D01*
X13131982Y-14814984D02*
X13112934Y-14814984D01*
X13112934Y-14814984D02*
X13093886Y-14805460D01*
X13093886Y-14805460D02*
X13084363Y-14795936D01*
X13084363Y-14795936D02*
X13074839Y-14776888D01*
X13074839Y-14776888D02*
X13065315Y-14738793D01*
X13065315Y-14738793D02*
X13065315Y-14691174D01*
X13065315Y-14691174D02*
X13074839Y-14653079D01*
X13074839Y-14653079D02*
X13084363Y-14634031D01*
X13084363Y-14634031D02*
X13093886Y-14624508D01*
X13093886Y-14624508D02*
X13112934Y-14614984D01*
X13265315Y-14795936D02*
X13274839Y-14805460D01*
X13274839Y-14805460D02*
X13265315Y-14814984D01*
X13265315Y-14814984D02*
X13255791Y-14805460D01*
X13255791Y-14805460D02*
X13265315Y-14795936D01*
X13265315Y-14795936D02*
X13265315Y-14814984D01*
X13398648Y-14614984D02*
X13417696Y-14614984D01*
X13417696Y-14614984D02*
X13436744Y-14624508D01*
X13436744Y-14624508D02*
X13446267Y-14634031D01*
X13446267Y-14634031D02*
X13455791Y-14653079D01*
X13455791Y-14653079D02*
X13465315Y-14691174D01*
X13465315Y-14691174D02*
X13465315Y-14738793D01*
X13465315Y-14738793D02*
X13455791Y-14776888D01*
X13455791Y-14776888D02*
X13446267Y-14795936D01*
X13446267Y-14795936D02*
X13436744Y-14805460D01*
X13436744Y-14805460D02*
X13417696Y-14814984D01*
X13417696Y-14814984D02*
X13398648Y-14814984D01*
X13398648Y-14814984D02*
X13379601Y-14805460D01*
X13379601Y-14805460D02*
X13370077Y-14795936D01*
X13370077Y-14795936D02*
X13360553Y-14776888D01*
X13360553Y-14776888D02*
X13351029Y-14738793D01*
X13351029Y-14738793D02*
X13351029Y-14691174D01*
X13351029Y-14691174D02*
X13360553Y-14653079D01*
X13360553Y-14653079D02*
X13370077Y-14634031D01*
X13370077Y-14634031D02*
X13379601Y-14624508D01*
X13379601Y-14624508D02*
X13398648Y-14614984D01*
X13636744Y-14681650D02*
X13636744Y-14814984D01*
X13589125Y-14605460D02*
X13541506Y-14748317D01*
X13541506Y-14748317D02*
X13665315Y-14748317D01*
X13722458Y-14614984D02*
X13846267Y-14614984D01*
X13846267Y-14614984D02*
X13779601Y-14691174D01*
X13779601Y-14691174D02*
X13808172Y-14691174D01*
X13808172Y-14691174D02*
X13827220Y-14700698D01*
X13827220Y-14700698D02*
X13836744Y-14710222D01*
X13836744Y-14710222D02*
X13846267Y-14729269D01*
X13846267Y-14729269D02*
X13846267Y-14776888D01*
X13846267Y-14776888D02*
X13836744Y-14795936D01*
X13836744Y-14795936D02*
X13827220Y-14805460D01*
X13827220Y-14805460D02*
X13808172Y-14814984D01*
X13808172Y-14814984D02*
X13751029Y-14814984D01*
X13751029Y-14814984D02*
X13731982Y-14805460D01*
X13731982Y-14805460D02*
X13722458Y-14795936D01*
X13912934Y-14614984D02*
X14036744Y-14614984D01*
X14036744Y-14614984D02*
X13970077Y-14691174D01*
X13970077Y-14691174D02*
X13998648Y-14691174D01*
X13998648Y-14691174D02*
X14017696Y-14700698D01*
X14017696Y-14700698D02*
X14027220Y-14710222D01*
X14027220Y-14710222D02*
X14036744Y-14729269D01*
X14036744Y-14729269D02*
X14036744Y-14776888D01*
X14036744Y-14776888D02*
X14027220Y-14795936D01*
X14027220Y-14795936D02*
X14017696Y-14805460D01*
X14017696Y-14805460D02*
X13998648Y-14814984D01*
X13998648Y-14814984D02*
X13941506Y-14814984D01*
X13941506Y-14814984D02*
X13922458Y-14805460D01*
X13922458Y-14805460D02*
X13912934Y-14795936D01*
X14112934Y-14614984D02*
X14112934Y-14653079D01*
X14189125Y-14614984D02*
X14189125Y-14653079D01*
X14484363Y-14891174D02*
X14474839Y-14881650D01*
X14474839Y-14881650D02*
X14455791Y-14853079D01*
X14455791Y-14853079D02*
X14446268Y-14834031D01*
X14446268Y-14834031D02*
X14436744Y-14805460D01*
X14436744Y-14805460D02*
X14427220Y-14757841D01*
X14427220Y-14757841D02*
X14427220Y-14719746D01*
X14427220Y-14719746D02*
X14436744Y-14672127D01*
X14436744Y-14672127D02*
X14446268Y-14643555D01*
X14446268Y-14643555D02*
X14455791Y-14624508D01*
X14455791Y-14624508D02*
X14474839Y-14595936D01*
X14474839Y-14595936D02*
X14484363Y-14586412D01*
X14570077Y-14814984D02*
X14608172Y-14814984D01*
X14608172Y-14814984D02*
X14627220Y-14805460D01*
X14627220Y-14805460D02*
X14636744Y-14795936D01*
X14636744Y-14795936D02*
X14655791Y-14767365D01*
X14655791Y-14767365D02*
X14665315Y-14729269D01*
X14665315Y-14729269D02*
X14665315Y-14653079D01*
X14665315Y-14653079D02*
X14655791Y-14634031D01*
X14655791Y-14634031D02*
X14646268Y-14624508D01*
X14646268Y-14624508D02*
X14627220Y-14614984D01*
X14627220Y-14614984D02*
X14589125Y-14614984D01*
X14589125Y-14614984D02*
X14570077Y-14624508D01*
X14570077Y-14624508D02*
X14560553Y-14634031D01*
X14560553Y-14634031D02*
X14551029Y-14653079D01*
X14551029Y-14653079D02*
X14551029Y-14700698D01*
X14551029Y-14700698D02*
X14560553Y-14719746D01*
X14560553Y-14719746D02*
X14570077Y-14729269D01*
X14570077Y-14729269D02*
X14589125Y-14738793D01*
X14589125Y-14738793D02*
X14627220Y-14738793D01*
X14627220Y-14738793D02*
X14646268Y-14729269D01*
X14646268Y-14729269D02*
X14655791Y-14719746D01*
X14655791Y-14719746D02*
X14665315Y-14700698D01*
X14903410Y-14814984D02*
X14903410Y-14614984D01*
X14989125Y-14814984D02*
X14989125Y-14710222D01*
X14989125Y-14710222D02*
X14979601Y-14691174D01*
X14979601Y-14691174D02*
X14960553Y-14681650D01*
X14960553Y-14681650D02*
X14931982Y-14681650D01*
X14931982Y-14681650D02*
X14912934Y-14691174D01*
X14912934Y-14691174D02*
X14903410Y-14700698D01*
X15112934Y-14814984D02*
X15093887Y-14805460D01*
X15093887Y-14805460D02*
X15084363Y-14795936D01*
X15084363Y-14795936D02*
X15074839Y-14776888D01*
X15074839Y-14776888D02*
X15074839Y-14719746D01*
X15074839Y-14719746D02*
X15084363Y-14700698D01*
X15084363Y-14700698D02*
X15093887Y-14691174D01*
X15093887Y-14691174D02*
X15112934Y-14681650D01*
X15112934Y-14681650D02*
X15141506Y-14681650D01*
X15141506Y-14681650D02*
X15160553Y-14691174D01*
X15160553Y-14691174D02*
X15170077Y-14700698D01*
X15170077Y-14700698D02*
X15179601Y-14719746D01*
X15179601Y-14719746D02*
X15179601Y-14776888D01*
X15179601Y-14776888D02*
X15170077Y-14795936D01*
X15170077Y-14795936D02*
X15160553Y-14805460D01*
X15160553Y-14805460D02*
X15141506Y-14814984D01*
X15141506Y-14814984D02*
X15112934Y-14814984D01*
X15293887Y-14814984D02*
X15274839Y-14805460D01*
X15274839Y-14805460D02*
X15265315Y-14786412D01*
X15265315Y-14786412D02*
X15265315Y-14614984D01*
X15446268Y-14805460D02*
X15427220Y-14814984D01*
X15427220Y-14814984D02*
X15389125Y-14814984D01*
X15389125Y-14814984D02*
X15370077Y-14805460D01*
X15370077Y-14805460D02*
X15360553Y-14786412D01*
X15360553Y-14786412D02*
X15360553Y-14710222D01*
X15360553Y-14710222D02*
X15370077Y-14691174D01*
X15370077Y-14691174D02*
X15389125Y-14681650D01*
X15389125Y-14681650D02*
X15427220Y-14681650D01*
X15427220Y-14681650D02*
X15446268Y-14691174D01*
X15446268Y-14691174D02*
X15455791Y-14710222D01*
X15455791Y-14710222D02*
X15455791Y-14729269D01*
X15455791Y-14729269D02*
X15360553Y-14748317D01*
X15531982Y-14805460D02*
X15551030Y-14814984D01*
X15551030Y-14814984D02*
X15589125Y-14814984D01*
X15589125Y-14814984D02*
X15608172Y-14805460D01*
X15608172Y-14805460D02*
X15617696Y-14786412D01*
X15617696Y-14786412D02*
X15617696Y-14776888D01*
X15617696Y-14776888D02*
X15608172Y-14757841D01*
X15608172Y-14757841D02*
X15589125Y-14748317D01*
X15589125Y-14748317D02*
X15560553Y-14748317D01*
X15560553Y-14748317D02*
X15541506Y-14738793D01*
X15541506Y-14738793D02*
X15531982Y-14719746D01*
X15531982Y-14719746D02*
X15531982Y-14710222D01*
X15531982Y-14710222D02*
X15541506Y-14691174D01*
X15541506Y-14691174D02*
X15560553Y-14681650D01*
X15560553Y-14681650D02*
X15589125Y-14681650D01*
X15589125Y-14681650D02*
X15608172Y-14691174D01*
X15684363Y-14891174D02*
X15693887Y-14881650D01*
X15693887Y-14881650D02*
X15712934Y-14853079D01*
X15712934Y-14853079D02*
X15722458Y-14834031D01*
X15722458Y-14834031D02*
X15731982Y-14805460D01*
X15731982Y-14805460D02*
X15741506Y-14757841D01*
X15741506Y-14757841D02*
X15741506Y-14719746D01*
X15741506Y-14719746D02*
X15731982Y-14672127D01*
X15731982Y-14672127D02*
X15722458Y-14643555D01*
X15722458Y-14643555D02*
X15712934Y-14624508D01*
X15712934Y-14624508D02*
X15693887Y-14595936D01*
X15693887Y-14595936D02*
X15684363Y-14586412D01*
M02*
