%TF.GenerationSoftware,KiCad,Pcbnew,7.0.8-1.fc38*%
%TF.CreationDate,2023-10-28T17:25:38+02:00*%
%TF.ProjectId,AppleVGA,4170706c-6556-4474-912e-6b696361645f,A*%
%TF.SameCoordinates,Original*%
%TF.FileFunction,Drillmap*%
%TF.FilePolarity,Positive*%
%FSLAX45Y45*%
G04 Gerber Fmt 4.5, Leading zero omitted, Abs format (unit mm)*
G04 Created by KiCad (PCBNEW 7.0.8-1.fc38) date 2023-10-28 17:25:38*
%MOMM*%
%LPD*%
G01*
G04 APERTURE LIST*
%ADD10C,0.254000*%
%ADD11C,0.200000*%
%ADD12C,0.150000*%
%ADD13C,0.180000*%
%ADD14C,0.350000*%
G04 APERTURE END LIST*
D10*
X21158200Y-12750800D02*
X21158200Y-11938000D01*
X21971000Y-11938000D02*
X21971000Y-5842000D01*
X21971000Y-5842000D02*
X10922000Y-5842000D01*
X14655800Y-12750800D02*
X21158200Y-12750800D01*
X21158200Y-11938000D02*
X21971000Y-11938000D01*
X10922000Y-11938000D02*
X14655800Y-11938000D01*
X14655800Y-11938000D02*
X14655800Y-12750800D01*
X10922000Y-5842000D02*
X10922000Y-11938000D01*
D11*
D12*
X11671000Y-7429500D02*
X11821000Y-7579500D01*
X11821000Y-7429500D02*
X11671000Y-7579500D01*
X11671000Y-7914500D02*
X11821000Y-8064500D01*
X11821000Y-7914500D02*
X11671000Y-8064500D01*
D13*
X11533000Y-7474500D02*
G75*
G03*
X11533000Y-7474500I-90000J0D01*
G01*
X11533000Y-8019500D02*
G75*
G03*
X11533000Y-8019500I-90000J0D01*
G01*
D14*
X21082000Y-9081000D02*
X21082000Y-9431000D01*
X20907000Y-9256000D02*
X21257000Y-9256000D01*
D11*
X11170077Y-13074984D02*
X11170077Y-12874984D01*
X11170077Y-12874984D02*
X11217696Y-12874984D01*
X11217696Y-12874984D02*
X11246267Y-12884508D01*
X11246267Y-12884508D02*
X11265315Y-12903555D01*
X11265315Y-12903555D02*
X11274839Y-12922603D01*
X11274839Y-12922603D02*
X11284362Y-12960698D01*
X11284362Y-12960698D02*
X11284362Y-12989269D01*
X11284362Y-12989269D02*
X11274839Y-13027365D01*
X11274839Y-13027365D02*
X11265315Y-13046412D01*
X11265315Y-13046412D02*
X11246267Y-13065460D01*
X11246267Y-13065460D02*
X11217696Y-13074984D01*
X11217696Y-13074984D02*
X11170077Y-13074984D01*
X11370077Y-13074984D02*
X11370077Y-12941650D01*
X11370077Y-12979746D02*
X11379601Y-12960698D01*
X11379601Y-12960698D02*
X11389124Y-12951174D01*
X11389124Y-12951174D02*
X11408172Y-12941650D01*
X11408172Y-12941650D02*
X11427220Y-12941650D01*
X11493886Y-13074984D02*
X11493886Y-12941650D01*
X11493886Y-12874984D02*
X11484362Y-12884508D01*
X11484362Y-12884508D02*
X11493886Y-12894031D01*
X11493886Y-12894031D02*
X11503410Y-12884508D01*
X11503410Y-12884508D02*
X11493886Y-12874984D01*
X11493886Y-12874984D02*
X11493886Y-12894031D01*
X11617696Y-13074984D02*
X11598648Y-13065460D01*
X11598648Y-13065460D02*
X11589124Y-13046412D01*
X11589124Y-13046412D02*
X11589124Y-12874984D01*
X11722458Y-13074984D02*
X11703410Y-13065460D01*
X11703410Y-13065460D02*
X11693886Y-13046412D01*
X11693886Y-13046412D02*
X11693886Y-12874984D01*
X11951029Y-13074984D02*
X11951029Y-12874984D01*
X11951029Y-12874984D02*
X12017696Y-13017841D01*
X12017696Y-13017841D02*
X12084362Y-12874984D01*
X12084362Y-12874984D02*
X12084362Y-13074984D01*
X12265315Y-13074984D02*
X12265315Y-12970222D01*
X12265315Y-12970222D02*
X12255791Y-12951174D01*
X12255791Y-12951174D02*
X12236743Y-12941650D01*
X12236743Y-12941650D02*
X12198648Y-12941650D01*
X12198648Y-12941650D02*
X12179601Y-12951174D01*
X12265315Y-13065460D02*
X12246267Y-13074984D01*
X12246267Y-13074984D02*
X12198648Y-13074984D01*
X12198648Y-13074984D02*
X12179601Y-13065460D01*
X12179601Y-13065460D02*
X12170077Y-13046412D01*
X12170077Y-13046412D02*
X12170077Y-13027365D01*
X12170077Y-13027365D02*
X12179601Y-13008317D01*
X12179601Y-13008317D02*
X12198648Y-12998793D01*
X12198648Y-12998793D02*
X12246267Y-12998793D01*
X12246267Y-12998793D02*
X12265315Y-12989269D01*
X12360553Y-12941650D02*
X12360553Y-13141650D01*
X12360553Y-12951174D02*
X12379601Y-12941650D01*
X12379601Y-12941650D02*
X12417696Y-12941650D01*
X12417696Y-12941650D02*
X12436743Y-12951174D01*
X12436743Y-12951174D02*
X12446267Y-12960698D01*
X12446267Y-12960698D02*
X12455791Y-12979746D01*
X12455791Y-12979746D02*
X12455791Y-13036888D01*
X12455791Y-13036888D02*
X12446267Y-13055936D01*
X12446267Y-13055936D02*
X12436743Y-13065460D01*
X12436743Y-13065460D02*
X12417696Y-13074984D01*
X12417696Y-13074984D02*
X12379601Y-13074984D01*
X12379601Y-13074984D02*
X12360553Y-13065460D01*
X12541505Y-13055936D02*
X12551029Y-13065460D01*
X12551029Y-13065460D02*
X12541505Y-13074984D01*
X12541505Y-13074984D02*
X12531982Y-13065460D01*
X12531982Y-13065460D02*
X12541505Y-13055936D01*
X12541505Y-13055936D02*
X12541505Y-13074984D01*
X12541505Y-12951174D02*
X12551029Y-12960698D01*
X12551029Y-12960698D02*
X12541505Y-12970222D01*
X12541505Y-12970222D02*
X12531982Y-12960698D01*
X12531982Y-12960698D02*
X12541505Y-12951174D01*
X12541505Y-12951174D02*
X12541505Y-12970222D01*
D12*
X10759300Y-13328500D02*
X10909300Y-13478500D01*
X10909300Y-13328500D02*
X10759300Y-13478500D01*
D11*
X11274839Y-13494984D02*
X11160553Y-13494984D01*
X11217696Y-13494984D02*
X11217696Y-13294984D01*
X11217696Y-13294984D02*
X11198648Y-13323555D01*
X11198648Y-13323555D02*
X11179601Y-13342603D01*
X11179601Y-13342603D02*
X11160553Y-13352127D01*
X11360553Y-13475936D02*
X11370077Y-13485460D01*
X11370077Y-13485460D02*
X11360553Y-13494984D01*
X11360553Y-13494984D02*
X11351029Y-13485460D01*
X11351029Y-13485460D02*
X11360553Y-13475936D01*
X11360553Y-13475936D02*
X11360553Y-13494984D01*
X11551029Y-13294984D02*
X11455791Y-13294984D01*
X11455791Y-13294984D02*
X11446267Y-13390222D01*
X11446267Y-13390222D02*
X11455791Y-13380698D01*
X11455791Y-13380698D02*
X11474839Y-13371174D01*
X11474839Y-13371174D02*
X11522458Y-13371174D01*
X11522458Y-13371174D02*
X11541505Y-13380698D01*
X11541505Y-13380698D02*
X11551029Y-13390222D01*
X11551029Y-13390222D02*
X11560553Y-13409269D01*
X11560553Y-13409269D02*
X11560553Y-13456888D01*
X11560553Y-13456888D02*
X11551029Y-13475936D01*
X11551029Y-13475936D02*
X11541505Y-13485460D01*
X11541505Y-13485460D02*
X11522458Y-13494984D01*
X11522458Y-13494984D02*
X11474839Y-13494984D01*
X11474839Y-13494984D02*
X11455791Y-13485460D01*
X11455791Y-13485460D02*
X11446267Y-13475936D01*
X11684362Y-13294984D02*
X11703410Y-13294984D01*
X11703410Y-13294984D02*
X11722458Y-13304508D01*
X11722458Y-13304508D02*
X11731982Y-13314031D01*
X11731982Y-13314031D02*
X11741505Y-13333079D01*
X11741505Y-13333079D02*
X11751029Y-13371174D01*
X11751029Y-13371174D02*
X11751029Y-13418793D01*
X11751029Y-13418793D02*
X11741505Y-13456888D01*
X11741505Y-13456888D02*
X11731982Y-13475936D01*
X11731982Y-13475936D02*
X11722458Y-13485460D01*
X11722458Y-13485460D02*
X11703410Y-13494984D01*
X11703410Y-13494984D02*
X11684362Y-13494984D01*
X11684362Y-13494984D02*
X11665315Y-13485460D01*
X11665315Y-13485460D02*
X11655791Y-13475936D01*
X11655791Y-13475936D02*
X11646267Y-13456888D01*
X11646267Y-13456888D02*
X11636743Y-13418793D01*
X11636743Y-13418793D02*
X11636743Y-13371174D01*
X11636743Y-13371174D02*
X11646267Y-13333079D01*
X11646267Y-13333079D02*
X11655791Y-13314031D01*
X11655791Y-13314031D02*
X11665315Y-13304508D01*
X11665315Y-13304508D02*
X11684362Y-13294984D01*
X11874839Y-13294984D02*
X11893886Y-13294984D01*
X11893886Y-13294984D02*
X11912934Y-13304508D01*
X11912934Y-13304508D02*
X11922458Y-13314031D01*
X11922458Y-13314031D02*
X11931982Y-13333079D01*
X11931982Y-13333079D02*
X11941505Y-13371174D01*
X11941505Y-13371174D02*
X11941505Y-13418793D01*
X11941505Y-13418793D02*
X11931982Y-13456888D01*
X11931982Y-13456888D02*
X11922458Y-13475936D01*
X11922458Y-13475936D02*
X11912934Y-13485460D01*
X11912934Y-13485460D02*
X11893886Y-13494984D01*
X11893886Y-13494984D02*
X11874839Y-13494984D01*
X11874839Y-13494984D02*
X11855791Y-13485460D01*
X11855791Y-13485460D02*
X11846267Y-13475936D01*
X11846267Y-13475936D02*
X11836743Y-13456888D01*
X11836743Y-13456888D02*
X11827220Y-13418793D01*
X11827220Y-13418793D02*
X11827220Y-13371174D01*
X11827220Y-13371174D02*
X11836743Y-13333079D01*
X11836743Y-13333079D02*
X11846267Y-13314031D01*
X11846267Y-13314031D02*
X11855791Y-13304508D01*
X11855791Y-13304508D02*
X11874839Y-13294984D01*
X12027220Y-13494984D02*
X12027220Y-13361650D01*
X12027220Y-13380698D02*
X12036743Y-13371174D01*
X12036743Y-13371174D02*
X12055791Y-13361650D01*
X12055791Y-13361650D02*
X12084363Y-13361650D01*
X12084363Y-13361650D02*
X12103410Y-13371174D01*
X12103410Y-13371174D02*
X12112934Y-13390222D01*
X12112934Y-13390222D02*
X12112934Y-13494984D01*
X12112934Y-13390222D02*
X12122458Y-13371174D01*
X12122458Y-13371174D02*
X12141505Y-13361650D01*
X12141505Y-13361650D02*
X12170077Y-13361650D01*
X12170077Y-13361650D02*
X12189124Y-13371174D01*
X12189124Y-13371174D02*
X12198648Y-13390222D01*
X12198648Y-13390222D02*
X12198648Y-13494984D01*
X12293886Y-13494984D02*
X12293886Y-13361650D01*
X12293886Y-13380698D02*
X12303410Y-13371174D01*
X12303410Y-13371174D02*
X12322458Y-13361650D01*
X12322458Y-13361650D02*
X12351029Y-13361650D01*
X12351029Y-13361650D02*
X12370077Y-13371174D01*
X12370077Y-13371174D02*
X12379601Y-13390222D01*
X12379601Y-13390222D02*
X12379601Y-13494984D01*
X12379601Y-13390222D02*
X12389124Y-13371174D01*
X12389124Y-13371174D02*
X12408172Y-13361650D01*
X12408172Y-13361650D02*
X12436743Y-13361650D01*
X12436743Y-13361650D02*
X12455791Y-13371174D01*
X12455791Y-13371174D02*
X12465315Y-13390222D01*
X12465315Y-13390222D02*
X12465315Y-13494984D01*
X12855791Y-13285460D02*
X12684363Y-13542603D01*
X13112934Y-13294984D02*
X13131982Y-13294984D01*
X13131982Y-13294984D02*
X13151029Y-13304508D01*
X13151029Y-13304508D02*
X13160553Y-13314031D01*
X13160553Y-13314031D02*
X13170077Y-13333079D01*
X13170077Y-13333079D02*
X13179601Y-13371174D01*
X13179601Y-13371174D02*
X13179601Y-13418793D01*
X13179601Y-13418793D02*
X13170077Y-13456888D01*
X13170077Y-13456888D02*
X13160553Y-13475936D01*
X13160553Y-13475936D02*
X13151029Y-13485460D01*
X13151029Y-13485460D02*
X13131982Y-13494984D01*
X13131982Y-13494984D02*
X13112934Y-13494984D01*
X13112934Y-13494984D02*
X13093886Y-13485460D01*
X13093886Y-13485460D02*
X13084363Y-13475936D01*
X13084363Y-13475936D02*
X13074839Y-13456888D01*
X13074839Y-13456888D02*
X13065315Y-13418793D01*
X13065315Y-13418793D02*
X13065315Y-13371174D01*
X13065315Y-13371174D02*
X13074839Y-13333079D01*
X13074839Y-13333079D02*
X13084363Y-13314031D01*
X13084363Y-13314031D02*
X13093886Y-13304508D01*
X13093886Y-13304508D02*
X13112934Y-13294984D01*
X13265315Y-13475936D02*
X13274839Y-13485460D01*
X13274839Y-13485460D02*
X13265315Y-13494984D01*
X13265315Y-13494984D02*
X13255791Y-13485460D01*
X13255791Y-13485460D02*
X13265315Y-13475936D01*
X13265315Y-13475936D02*
X13265315Y-13494984D01*
X13398648Y-13294984D02*
X13417696Y-13294984D01*
X13417696Y-13294984D02*
X13436744Y-13304508D01*
X13436744Y-13304508D02*
X13446267Y-13314031D01*
X13446267Y-13314031D02*
X13455791Y-13333079D01*
X13455791Y-13333079D02*
X13465315Y-13371174D01*
X13465315Y-13371174D02*
X13465315Y-13418793D01*
X13465315Y-13418793D02*
X13455791Y-13456888D01*
X13455791Y-13456888D02*
X13446267Y-13475936D01*
X13446267Y-13475936D02*
X13436744Y-13485460D01*
X13436744Y-13485460D02*
X13417696Y-13494984D01*
X13417696Y-13494984D02*
X13398648Y-13494984D01*
X13398648Y-13494984D02*
X13379601Y-13485460D01*
X13379601Y-13485460D02*
X13370077Y-13475936D01*
X13370077Y-13475936D02*
X13360553Y-13456888D01*
X13360553Y-13456888D02*
X13351029Y-13418793D01*
X13351029Y-13418793D02*
X13351029Y-13371174D01*
X13351029Y-13371174D02*
X13360553Y-13333079D01*
X13360553Y-13333079D02*
X13370077Y-13314031D01*
X13370077Y-13314031D02*
X13379601Y-13304508D01*
X13379601Y-13304508D02*
X13398648Y-13294984D01*
X13646267Y-13294984D02*
X13551029Y-13294984D01*
X13551029Y-13294984D02*
X13541506Y-13390222D01*
X13541506Y-13390222D02*
X13551029Y-13380698D01*
X13551029Y-13380698D02*
X13570077Y-13371174D01*
X13570077Y-13371174D02*
X13617696Y-13371174D01*
X13617696Y-13371174D02*
X13636744Y-13380698D01*
X13636744Y-13380698D02*
X13646267Y-13390222D01*
X13646267Y-13390222D02*
X13655791Y-13409269D01*
X13655791Y-13409269D02*
X13655791Y-13456888D01*
X13655791Y-13456888D02*
X13646267Y-13475936D01*
X13646267Y-13475936D02*
X13636744Y-13485460D01*
X13636744Y-13485460D02*
X13617696Y-13494984D01*
X13617696Y-13494984D02*
X13570077Y-13494984D01*
X13570077Y-13494984D02*
X13551029Y-13485460D01*
X13551029Y-13485460D02*
X13541506Y-13475936D01*
X13751029Y-13494984D02*
X13789125Y-13494984D01*
X13789125Y-13494984D02*
X13808172Y-13485460D01*
X13808172Y-13485460D02*
X13817696Y-13475936D01*
X13817696Y-13475936D02*
X13836744Y-13447365D01*
X13836744Y-13447365D02*
X13846267Y-13409269D01*
X13846267Y-13409269D02*
X13846267Y-13333079D01*
X13846267Y-13333079D02*
X13836744Y-13314031D01*
X13836744Y-13314031D02*
X13827220Y-13304508D01*
X13827220Y-13304508D02*
X13808172Y-13294984D01*
X13808172Y-13294984D02*
X13770077Y-13294984D01*
X13770077Y-13294984D02*
X13751029Y-13304508D01*
X13751029Y-13304508D02*
X13741506Y-13314031D01*
X13741506Y-13314031D02*
X13731982Y-13333079D01*
X13731982Y-13333079D02*
X13731982Y-13380698D01*
X13731982Y-13380698D02*
X13741506Y-13399746D01*
X13741506Y-13399746D02*
X13751029Y-13409269D01*
X13751029Y-13409269D02*
X13770077Y-13418793D01*
X13770077Y-13418793D02*
X13808172Y-13418793D01*
X13808172Y-13418793D02*
X13827220Y-13409269D01*
X13827220Y-13409269D02*
X13836744Y-13399746D01*
X13836744Y-13399746D02*
X13846267Y-13380698D01*
X14036744Y-13494984D02*
X13922458Y-13494984D01*
X13979601Y-13494984D02*
X13979601Y-13294984D01*
X13979601Y-13294984D02*
X13960553Y-13323555D01*
X13960553Y-13323555D02*
X13941506Y-13342603D01*
X13941506Y-13342603D02*
X13922458Y-13352127D01*
X14112934Y-13294984D02*
X14112934Y-13333079D01*
X14189125Y-13294984D02*
X14189125Y-13333079D01*
X14484363Y-13571174D02*
X14474839Y-13561650D01*
X14474839Y-13561650D02*
X14455791Y-13533079D01*
X14455791Y-13533079D02*
X14446268Y-13514031D01*
X14446268Y-13514031D02*
X14436744Y-13485460D01*
X14436744Y-13485460D02*
X14427220Y-13437841D01*
X14427220Y-13437841D02*
X14427220Y-13399746D01*
X14427220Y-13399746D02*
X14436744Y-13352127D01*
X14436744Y-13352127D02*
X14446268Y-13323555D01*
X14446268Y-13323555D02*
X14455791Y-13304508D01*
X14455791Y-13304508D02*
X14474839Y-13275936D01*
X14474839Y-13275936D02*
X14484363Y-13266412D01*
X14551029Y-13314031D02*
X14560553Y-13304508D01*
X14560553Y-13304508D02*
X14579601Y-13294984D01*
X14579601Y-13294984D02*
X14627220Y-13294984D01*
X14627220Y-13294984D02*
X14646268Y-13304508D01*
X14646268Y-13304508D02*
X14655791Y-13314031D01*
X14655791Y-13314031D02*
X14665315Y-13333079D01*
X14665315Y-13333079D02*
X14665315Y-13352127D01*
X14665315Y-13352127D02*
X14655791Y-13380698D01*
X14655791Y-13380698D02*
X14541506Y-13494984D01*
X14541506Y-13494984D02*
X14665315Y-13494984D01*
X14903410Y-13494984D02*
X14903410Y-13294984D01*
X14989125Y-13494984D02*
X14989125Y-13390222D01*
X14989125Y-13390222D02*
X14979601Y-13371174D01*
X14979601Y-13371174D02*
X14960553Y-13361650D01*
X14960553Y-13361650D02*
X14931982Y-13361650D01*
X14931982Y-13361650D02*
X14912934Y-13371174D01*
X14912934Y-13371174D02*
X14903410Y-13380698D01*
X15112934Y-13494984D02*
X15093887Y-13485460D01*
X15093887Y-13485460D02*
X15084363Y-13475936D01*
X15084363Y-13475936D02*
X15074839Y-13456888D01*
X15074839Y-13456888D02*
X15074839Y-13399746D01*
X15074839Y-13399746D02*
X15084363Y-13380698D01*
X15084363Y-13380698D02*
X15093887Y-13371174D01*
X15093887Y-13371174D02*
X15112934Y-13361650D01*
X15112934Y-13361650D02*
X15141506Y-13361650D01*
X15141506Y-13361650D02*
X15160553Y-13371174D01*
X15160553Y-13371174D02*
X15170077Y-13380698D01*
X15170077Y-13380698D02*
X15179601Y-13399746D01*
X15179601Y-13399746D02*
X15179601Y-13456888D01*
X15179601Y-13456888D02*
X15170077Y-13475936D01*
X15170077Y-13475936D02*
X15160553Y-13485460D01*
X15160553Y-13485460D02*
X15141506Y-13494984D01*
X15141506Y-13494984D02*
X15112934Y-13494984D01*
X15293887Y-13494984D02*
X15274839Y-13485460D01*
X15274839Y-13485460D02*
X15265315Y-13466412D01*
X15265315Y-13466412D02*
X15265315Y-13294984D01*
X15446268Y-13485460D02*
X15427220Y-13494984D01*
X15427220Y-13494984D02*
X15389125Y-13494984D01*
X15389125Y-13494984D02*
X15370077Y-13485460D01*
X15370077Y-13485460D02*
X15360553Y-13466412D01*
X15360553Y-13466412D02*
X15360553Y-13390222D01*
X15360553Y-13390222D02*
X15370077Y-13371174D01*
X15370077Y-13371174D02*
X15389125Y-13361650D01*
X15389125Y-13361650D02*
X15427220Y-13361650D01*
X15427220Y-13361650D02*
X15446268Y-13371174D01*
X15446268Y-13371174D02*
X15455791Y-13390222D01*
X15455791Y-13390222D02*
X15455791Y-13409269D01*
X15455791Y-13409269D02*
X15360553Y-13428317D01*
X15531982Y-13485460D02*
X15551030Y-13494984D01*
X15551030Y-13494984D02*
X15589125Y-13494984D01*
X15589125Y-13494984D02*
X15608172Y-13485460D01*
X15608172Y-13485460D02*
X15617696Y-13466412D01*
X15617696Y-13466412D02*
X15617696Y-13456888D01*
X15617696Y-13456888D02*
X15608172Y-13437841D01*
X15608172Y-13437841D02*
X15589125Y-13428317D01*
X15589125Y-13428317D02*
X15560553Y-13428317D01*
X15560553Y-13428317D02*
X15541506Y-13418793D01*
X15541506Y-13418793D02*
X15531982Y-13399746D01*
X15531982Y-13399746D02*
X15531982Y-13390222D01*
X15531982Y-13390222D02*
X15541506Y-13371174D01*
X15541506Y-13371174D02*
X15560553Y-13361650D01*
X15560553Y-13361650D02*
X15589125Y-13361650D01*
X15589125Y-13361650D02*
X15608172Y-13371174D01*
X15684363Y-13571174D02*
X15693887Y-13561650D01*
X15693887Y-13561650D02*
X15712934Y-13533079D01*
X15712934Y-13533079D02*
X15722458Y-13514031D01*
X15722458Y-13514031D02*
X15731982Y-13485460D01*
X15731982Y-13485460D02*
X15741506Y-13437841D01*
X15741506Y-13437841D02*
X15741506Y-13399746D01*
X15741506Y-13399746D02*
X15731982Y-13352127D01*
X15731982Y-13352127D02*
X15722458Y-13323555D01*
X15722458Y-13323555D02*
X15712934Y-13304508D01*
X15712934Y-13304508D02*
X15693887Y-13275936D01*
X15693887Y-13275936D02*
X15684363Y-13266412D01*
X16046268Y-13571174D02*
X16036744Y-13561650D01*
X16036744Y-13561650D02*
X16017696Y-13533079D01*
X16017696Y-13533079D02*
X16008172Y-13514031D01*
X16008172Y-13514031D02*
X15998649Y-13485460D01*
X15998649Y-13485460D02*
X15989125Y-13437841D01*
X15989125Y-13437841D02*
X15989125Y-13399746D01*
X15989125Y-13399746D02*
X15998649Y-13352127D01*
X15998649Y-13352127D02*
X16008172Y-13323555D01*
X16008172Y-13323555D02*
X16017696Y-13304508D01*
X16017696Y-13304508D02*
X16036744Y-13275936D01*
X16036744Y-13275936D02*
X16046268Y-13266412D01*
X16122458Y-13361650D02*
X16122458Y-13494984D01*
X16122458Y-13380698D02*
X16131982Y-13371174D01*
X16131982Y-13371174D02*
X16151030Y-13361650D01*
X16151030Y-13361650D02*
X16179601Y-13361650D01*
X16179601Y-13361650D02*
X16198649Y-13371174D01*
X16198649Y-13371174D02*
X16208172Y-13390222D01*
X16208172Y-13390222D02*
X16208172Y-13494984D01*
X16331982Y-13494984D02*
X16312934Y-13485460D01*
X16312934Y-13485460D02*
X16303411Y-13475936D01*
X16303411Y-13475936D02*
X16293887Y-13456888D01*
X16293887Y-13456888D02*
X16293887Y-13399746D01*
X16293887Y-13399746D02*
X16303411Y-13380698D01*
X16303411Y-13380698D02*
X16312934Y-13371174D01*
X16312934Y-13371174D02*
X16331982Y-13361650D01*
X16331982Y-13361650D02*
X16360553Y-13361650D01*
X16360553Y-13361650D02*
X16379601Y-13371174D01*
X16379601Y-13371174D02*
X16389125Y-13380698D01*
X16389125Y-13380698D02*
X16398649Y-13399746D01*
X16398649Y-13399746D02*
X16398649Y-13456888D01*
X16398649Y-13456888D02*
X16389125Y-13475936D01*
X16389125Y-13475936D02*
X16379601Y-13485460D01*
X16379601Y-13485460D02*
X16360553Y-13494984D01*
X16360553Y-13494984D02*
X16331982Y-13494984D01*
X16455792Y-13361650D02*
X16531982Y-13361650D01*
X16484363Y-13294984D02*
X16484363Y-13466412D01*
X16484363Y-13466412D02*
X16493887Y-13485460D01*
X16493887Y-13485460D02*
X16512934Y-13494984D01*
X16512934Y-13494984D02*
X16531982Y-13494984D01*
X16751030Y-13361650D02*
X16751030Y-13561650D01*
X16751030Y-13371174D02*
X16770077Y-13361650D01*
X16770077Y-13361650D02*
X16808173Y-13361650D01*
X16808173Y-13361650D02*
X16827220Y-13371174D01*
X16827220Y-13371174D02*
X16836744Y-13380698D01*
X16836744Y-13380698D02*
X16846268Y-13399746D01*
X16846268Y-13399746D02*
X16846268Y-13456888D01*
X16846268Y-13456888D02*
X16836744Y-13475936D01*
X16836744Y-13475936D02*
X16827220Y-13485460D01*
X16827220Y-13485460D02*
X16808173Y-13494984D01*
X16808173Y-13494984D02*
X16770077Y-13494984D01*
X16770077Y-13494984D02*
X16751030Y-13485460D01*
X16960554Y-13494984D02*
X16941506Y-13485460D01*
X16941506Y-13485460D02*
X16931982Y-13466412D01*
X16931982Y-13466412D02*
X16931982Y-13294984D01*
X17122458Y-13494984D02*
X17122458Y-13390222D01*
X17122458Y-13390222D02*
X17112935Y-13371174D01*
X17112935Y-13371174D02*
X17093887Y-13361650D01*
X17093887Y-13361650D02*
X17055792Y-13361650D01*
X17055792Y-13361650D02*
X17036744Y-13371174D01*
X17122458Y-13485460D02*
X17103411Y-13494984D01*
X17103411Y-13494984D02*
X17055792Y-13494984D01*
X17055792Y-13494984D02*
X17036744Y-13485460D01*
X17036744Y-13485460D02*
X17027220Y-13466412D01*
X17027220Y-13466412D02*
X17027220Y-13447365D01*
X17027220Y-13447365D02*
X17036744Y-13428317D01*
X17036744Y-13428317D02*
X17055792Y-13418793D01*
X17055792Y-13418793D02*
X17103411Y-13418793D01*
X17103411Y-13418793D02*
X17122458Y-13409269D01*
X17189125Y-13361650D02*
X17265315Y-13361650D01*
X17217696Y-13294984D02*
X17217696Y-13466412D01*
X17217696Y-13466412D02*
X17227220Y-13485460D01*
X17227220Y-13485460D02*
X17246268Y-13494984D01*
X17246268Y-13494984D02*
X17265315Y-13494984D01*
X17408173Y-13485460D02*
X17389125Y-13494984D01*
X17389125Y-13494984D02*
X17351030Y-13494984D01*
X17351030Y-13494984D02*
X17331982Y-13485460D01*
X17331982Y-13485460D02*
X17322458Y-13466412D01*
X17322458Y-13466412D02*
X17322458Y-13390222D01*
X17322458Y-13390222D02*
X17331982Y-13371174D01*
X17331982Y-13371174D02*
X17351030Y-13361650D01*
X17351030Y-13361650D02*
X17389125Y-13361650D01*
X17389125Y-13361650D02*
X17408173Y-13371174D01*
X17408173Y-13371174D02*
X17417696Y-13390222D01*
X17417696Y-13390222D02*
X17417696Y-13409269D01*
X17417696Y-13409269D02*
X17322458Y-13428317D01*
X17589125Y-13494984D02*
X17589125Y-13294984D01*
X17589125Y-13485460D02*
X17570077Y-13494984D01*
X17570077Y-13494984D02*
X17531982Y-13494984D01*
X17531982Y-13494984D02*
X17512935Y-13485460D01*
X17512935Y-13485460D02*
X17503411Y-13475936D01*
X17503411Y-13475936D02*
X17493887Y-13456888D01*
X17493887Y-13456888D02*
X17493887Y-13399746D01*
X17493887Y-13399746D02*
X17503411Y-13380698D01*
X17503411Y-13380698D02*
X17512935Y-13371174D01*
X17512935Y-13371174D02*
X17531982Y-13361650D01*
X17531982Y-13361650D02*
X17570077Y-13361650D01*
X17570077Y-13361650D02*
X17589125Y-13371174D01*
X17665316Y-13571174D02*
X17674839Y-13561650D01*
X17674839Y-13561650D02*
X17693887Y-13533079D01*
X17693887Y-13533079D02*
X17703411Y-13514031D01*
X17703411Y-13514031D02*
X17712935Y-13485460D01*
X17712935Y-13485460D02*
X17722458Y-13437841D01*
X17722458Y-13437841D02*
X17722458Y-13399746D01*
X17722458Y-13399746D02*
X17712935Y-13352127D01*
X17712935Y-13352127D02*
X17703411Y-13323555D01*
X17703411Y-13323555D02*
X17693887Y-13304508D01*
X17693887Y-13304508D02*
X17674839Y-13275936D01*
X17674839Y-13275936D02*
X17665316Y-13266412D01*
D13*
X10909300Y-13673500D02*
G75*
G03*
X10909300Y-13673500I-90000J0D01*
G01*
D11*
X11274839Y-13764984D02*
X11160553Y-13764984D01*
X11217696Y-13764984D02*
X11217696Y-13564984D01*
X11217696Y-13564984D02*
X11198648Y-13593555D01*
X11198648Y-13593555D02*
X11179601Y-13612603D01*
X11179601Y-13612603D02*
X11160553Y-13622127D01*
X11360553Y-13745936D02*
X11370077Y-13755460D01*
X11370077Y-13755460D02*
X11360553Y-13764984D01*
X11360553Y-13764984D02*
X11351029Y-13755460D01*
X11351029Y-13755460D02*
X11360553Y-13745936D01*
X11360553Y-13745936D02*
X11360553Y-13764984D01*
X11484362Y-13650698D02*
X11465315Y-13641174D01*
X11465315Y-13641174D02*
X11455791Y-13631650D01*
X11455791Y-13631650D02*
X11446267Y-13612603D01*
X11446267Y-13612603D02*
X11446267Y-13603079D01*
X11446267Y-13603079D02*
X11455791Y-13584031D01*
X11455791Y-13584031D02*
X11465315Y-13574508D01*
X11465315Y-13574508D02*
X11484362Y-13564984D01*
X11484362Y-13564984D02*
X11522458Y-13564984D01*
X11522458Y-13564984D02*
X11541505Y-13574508D01*
X11541505Y-13574508D02*
X11551029Y-13584031D01*
X11551029Y-13584031D02*
X11560553Y-13603079D01*
X11560553Y-13603079D02*
X11560553Y-13612603D01*
X11560553Y-13612603D02*
X11551029Y-13631650D01*
X11551029Y-13631650D02*
X11541505Y-13641174D01*
X11541505Y-13641174D02*
X11522458Y-13650698D01*
X11522458Y-13650698D02*
X11484362Y-13650698D01*
X11484362Y-13650698D02*
X11465315Y-13660222D01*
X11465315Y-13660222D02*
X11455791Y-13669746D01*
X11455791Y-13669746D02*
X11446267Y-13688793D01*
X11446267Y-13688793D02*
X11446267Y-13726888D01*
X11446267Y-13726888D02*
X11455791Y-13745936D01*
X11455791Y-13745936D02*
X11465315Y-13755460D01*
X11465315Y-13755460D02*
X11484362Y-13764984D01*
X11484362Y-13764984D02*
X11522458Y-13764984D01*
X11522458Y-13764984D02*
X11541505Y-13755460D01*
X11541505Y-13755460D02*
X11551029Y-13745936D01*
X11551029Y-13745936D02*
X11560553Y-13726888D01*
X11560553Y-13726888D02*
X11560553Y-13688793D01*
X11560553Y-13688793D02*
X11551029Y-13669746D01*
X11551029Y-13669746D02*
X11541505Y-13660222D01*
X11541505Y-13660222D02*
X11522458Y-13650698D01*
X11684362Y-13564984D02*
X11703410Y-13564984D01*
X11703410Y-13564984D02*
X11722458Y-13574508D01*
X11722458Y-13574508D02*
X11731982Y-13584031D01*
X11731982Y-13584031D02*
X11741505Y-13603079D01*
X11741505Y-13603079D02*
X11751029Y-13641174D01*
X11751029Y-13641174D02*
X11751029Y-13688793D01*
X11751029Y-13688793D02*
X11741505Y-13726888D01*
X11741505Y-13726888D02*
X11731982Y-13745936D01*
X11731982Y-13745936D02*
X11722458Y-13755460D01*
X11722458Y-13755460D02*
X11703410Y-13764984D01*
X11703410Y-13764984D02*
X11684362Y-13764984D01*
X11684362Y-13764984D02*
X11665315Y-13755460D01*
X11665315Y-13755460D02*
X11655791Y-13745936D01*
X11655791Y-13745936D02*
X11646267Y-13726888D01*
X11646267Y-13726888D02*
X11636743Y-13688793D01*
X11636743Y-13688793D02*
X11636743Y-13641174D01*
X11636743Y-13641174D02*
X11646267Y-13603079D01*
X11646267Y-13603079D02*
X11655791Y-13584031D01*
X11655791Y-13584031D02*
X11665315Y-13574508D01*
X11665315Y-13574508D02*
X11684362Y-13564984D01*
X11874839Y-13564984D02*
X11893886Y-13564984D01*
X11893886Y-13564984D02*
X11912934Y-13574508D01*
X11912934Y-13574508D02*
X11922458Y-13584031D01*
X11922458Y-13584031D02*
X11931982Y-13603079D01*
X11931982Y-13603079D02*
X11941505Y-13641174D01*
X11941505Y-13641174D02*
X11941505Y-13688793D01*
X11941505Y-13688793D02*
X11931982Y-13726888D01*
X11931982Y-13726888D02*
X11922458Y-13745936D01*
X11922458Y-13745936D02*
X11912934Y-13755460D01*
X11912934Y-13755460D02*
X11893886Y-13764984D01*
X11893886Y-13764984D02*
X11874839Y-13764984D01*
X11874839Y-13764984D02*
X11855791Y-13755460D01*
X11855791Y-13755460D02*
X11846267Y-13745936D01*
X11846267Y-13745936D02*
X11836743Y-13726888D01*
X11836743Y-13726888D02*
X11827220Y-13688793D01*
X11827220Y-13688793D02*
X11827220Y-13641174D01*
X11827220Y-13641174D02*
X11836743Y-13603079D01*
X11836743Y-13603079D02*
X11846267Y-13584031D01*
X11846267Y-13584031D02*
X11855791Y-13574508D01*
X11855791Y-13574508D02*
X11874839Y-13564984D01*
X12027220Y-13764984D02*
X12027220Y-13631650D01*
X12027220Y-13650698D02*
X12036743Y-13641174D01*
X12036743Y-13641174D02*
X12055791Y-13631650D01*
X12055791Y-13631650D02*
X12084363Y-13631650D01*
X12084363Y-13631650D02*
X12103410Y-13641174D01*
X12103410Y-13641174D02*
X12112934Y-13660222D01*
X12112934Y-13660222D02*
X12112934Y-13764984D01*
X12112934Y-13660222D02*
X12122458Y-13641174D01*
X12122458Y-13641174D02*
X12141505Y-13631650D01*
X12141505Y-13631650D02*
X12170077Y-13631650D01*
X12170077Y-13631650D02*
X12189124Y-13641174D01*
X12189124Y-13641174D02*
X12198648Y-13660222D01*
X12198648Y-13660222D02*
X12198648Y-13764984D01*
X12293886Y-13764984D02*
X12293886Y-13631650D01*
X12293886Y-13650698D02*
X12303410Y-13641174D01*
X12303410Y-13641174D02*
X12322458Y-13631650D01*
X12322458Y-13631650D02*
X12351029Y-13631650D01*
X12351029Y-13631650D02*
X12370077Y-13641174D01*
X12370077Y-13641174D02*
X12379601Y-13660222D01*
X12379601Y-13660222D02*
X12379601Y-13764984D01*
X12379601Y-13660222D02*
X12389124Y-13641174D01*
X12389124Y-13641174D02*
X12408172Y-13631650D01*
X12408172Y-13631650D02*
X12436743Y-13631650D01*
X12436743Y-13631650D02*
X12455791Y-13641174D01*
X12455791Y-13641174D02*
X12465315Y-13660222D01*
X12465315Y-13660222D02*
X12465315Y-13764984D01*
X12855791Y-13555460D02*
X12684363Y-13812603D01*
X13112934Y-13564984D02*
X13131982Y-13564984D01*
X13131982Y-13564984D02*
X13151029Y-13574508D01*
X13151029Y-13574508D02*
X13160553Y-13584031D01*
X13160553Y-13584031D02*
X13170077Y-13603079D01*
X13170077Y-13603079D02*
X13179601Y-13641174D01*
X13179601Y-13641174D02*
X13179601Y-13688793D01*
X13179601Y-13688793D02*
X13170077Y-13726888D01*
X13170077Y-13726888D02*
X13160553Y-13745936D01*
X13160553Y-13745936D02*
X13151029Y-13755460D01*
X13151029Y-13755460D02*
X13131982Y-13764984D01*
X13131982Y-13764984D02*
X13112934Y-13764984D01*
X13112934Y-13764984D02*
X13093886Y-13755460D01*
X13093886Y-13755460D02*
X13084363Y-13745936D01*
X13084363Y-13745936D02*
X13074839Y-13726888D01*
X13074839Y-13726888D02*
X13065315Y-13688793D01*
X13065315Y-13688793D02*
X13065315Y-13641174D01*
X13065315Y-13641174D02*
X13074839Y-13603079D01*
X13074839Y-13603079D02*
X13084363Y-13584031D01*
X13084363Y-13584031D02*
X13093886Y-13574508D01*
X13093886Y-13574508D02*
X13112934Y-13564984D01*
X13265315Y-13745936D02*
X13274839Y-13755460D01*
X13274839Y-13755460D02*
X13265315Y-13764984D01*
X13265315Y-13764984D02*
X13255791Y-13755460D01*
X13255791Y-13755460D02*
X13265315Y-13745936D01*
X13265315Y-13745936D02*
X13265315Y-13764984D01*
X13398648Y-13564984D02*
X13417696Y-13564984D01*
X13417696Y-13564984D02*
X13436744Y-13574508D01*
X13436744Y-13574508D02*
X13446267Y-13584031D01*
X13446267Y-13584031D02*
X13455791Y-13603079D01*
X13455791Y-13603079D02*
X13465315Y-13641174D01*
X13465315Y-13641174D02*
X13465315Y-13688793D01*
X13465315Y-13688793D02*
X13455791Y-13726888D01*
X13455791Y-13726888D02*
X13446267Y-13745936D01*
X13446267Y-13745936D02*
X13436744Y-13755460D01*
X13436744Y-13755460D02*
X13417696Y-13764984D01*
X13417696Y-13764984D02*
X13398648Y-13764984D01*
X13398648Y-13764984D02*
X13379601Y-13755460D01*
X13379601Y-13755460D02*
X13370077Y-13745936D01*
X13370077Y-13745936D02*
X13360553Y-13726888D01*
X13360553Y-13726888D02*
X13351029Y-13688793D01*
X13351029Y-13688793D02*
X13351029Y-13641174D01*
X13351029Y-13641174D02*
X13360553Y-13603079D01*
X13360553Y-13603079D02*
X13370077Y-13584031D01*
X13370077Y-13584031D02*
X13379601Y-13574508D01*
X13379601Y-13574508D02*
X13398648Y-13564984D01*
X13531982Y-13564984D02*
X13665315Y-13564984D01*
X13665315Y-13564984D02*
X13579601Y-13764984D01*
X13779601Y-13564984D02*
X13798648Y-13564984D01*
X13798648Y-13564984D02*
X13817696Y-13574508D01*
X13817696Y-13574508D02*
X13827220Y-13584031D01*
X13827220Y-13584031D02*
X13836744Y-13603079D01*
X13836744Y-13603079D02*
X13846267Y-13641174D01*
X13846267Y-13641174D02*
X13846267Y-13688793D01*
X13846267Y-13688793D02*
X13836744Y-13726888D01*
X13836744Y-13726888D02*
X13827220Y-13745936D01*
X13827220Y-13745936D02*
X13817696Y-13755460D01*
X13817696Y-13755460D02*
X13798648Y-13764984D01*
X13798648Y-13764984D02*
X13779601Y-13764984D01*
X13779601Y-13764984D02*
X13760553Y-13755460D01*
X13760553Y-13755460D02*
X13751029Y-13745936D01*
X13751029Y-13745936D02*
X13741506Y-13726888D01*
X13741506Y-13726888D02*
X13731982Y-13688793D01*
X13731982Y-13688793D02*
X13731982Y-13641174D01*
X13731982Y-13641174D02*
X13741506Y-13603079D01*
X13741506Y-13603079D02*
X13751029Y-13584031D01*
X13751029Y-13584031D02*
X13760553Y-13574508D01*
X13760553Y-13574508D02*
X13779601Y-13564984D01*
X13941506Y-13764984D02*
X13979601Y-13764984D01*
X13979601Y-13764984D02*
X13998648Y-13755460D01*
X13998648Y-13755460D02*
X14008172Y-13745936D01*
X14008172Y-13745936D02*
X14027220Y-13717365D01*
X14027220Y-13717365D02*
X14036744Y-13679269D01*
X14036744Y-13679269D02*
X14036744Y-13603079D01*
X14036744Y-13603079D02*
X14027220Y-13584031D01*
X14027220Y-13584031D02*
X14017696Y-13574508D01*
X14017696Y-13574508D02*
X13998648Y-13564984D01*
X13998648Y-13564984D02*
X13960553Y-13564984D01*
X13960553Y-13564984D02*
X13941506Y-13574508D01*
X13941506Y-13574508D02*
X13931982Y-13584031D01*
X13931982Y-13584031D02*
X13922458Y-13603079D01*
X13922458Y-13603079D02*
X13922458Y-13650698D01*
X13922458Y-13650698D02*
X13931982Y-13669746D01*
X13931982Y-13669746D02*
X13941506Y-13679269D01*
X13941506Y-13679269D02*
X13960553Y-13688793D01*
X13960553Y-13688793D02*
X13998648Y-13688793D01*
X13998648Y-13688793D02*
X14017696Y-13679269D01*
X14017696Y-13679269D02*
X14027220Y-13669746D01*
X14027220Y-13669746D02*
X14036744Y-13650698D01*
X14112934Y-13564984D02*
X14112934Y-13603079D01*
X14189125Y-13564984D02*
X14189125Y-13603079D01*
X14484363Y-13841174D02*
X14474839Y-13831650D01*
X14474839Y-13831650D02*
X14455791Y-13803079D01*
X14455791Y-13803079D02*
X14446268Y-13784031D01*
X14446268Y-13784031D02*
X14436744Y-13755460D01*
X14436744Y-13755460D02*
X14427220Y-13707841D01*
X14427220Y-13707841D02*
X14427220Y-13669746D01*
X14427220Y-13669746D02*
X14436744Y-13622127D01*
X14436744Y-13622127D02*
X14446268Y-13593555D01*
X14446268Y-13593555D02*
X14455791Y-13574508D01*
X14455791Y-13574508D02*
X14474839Y-13545936D01*
X14474839Y-13545936D02*
X14484363Y-13536412D01*
X14551029Y-13584031D02*
X14560553Y-13574508D01*
X14560553Y-13574508D02*
X14579601Y-13564984D01*
X14579601Y-13564984D02*
X14627220Y-13564984D01*
X14627220Y-13564984D02*
X14646268Y-13574508D01*
X14646268Y-13574508D02*
X14655791Y-13584031D01*
X14655791Y-13584031D02*
X14665315Y-13603079D01*
X14665315Y-13603079D02*
X14665315Y-13622127D01*
X14665315Y-13622127D02*
X14655791Y-13650698D01*
X14655791Y-13650698D02*
X14541506Y-13764984D01*
X14541506Y-13764984D02*
X14665315Y-13764984D01*
X14903410Y-13764984D02*
X14903410Y-13564984D01*
X14989125Y-13764984D02*
X14989125Y-13660222D01*
X14989125Y-13660222D02*
X14979601Y-13641174D01*
X14979601Y-13641174D02*
X14960553Y-13631650D01*
X14960553Y-13631650D02*
X14931982Y-13631650D01*
X14931982Y-13631650D02*
X14912934Y-13641174D01*
X14912934Y-13641174D02*
X14903410Y-13650698D01*
X15112934Y-13764984D02*
X15093887Y-13755460D01*
X15093887Y-13755460D02*
X15084363Y-13745936D01*
X15084363Y-13745936D02*
X15074839Y-13726888D01*
X15074839Y-13726888D02*
X15074839Y-13669746D01*
X15074839Y-13669746D02*
X15084363Y-13650698D01*
X15084363Y-13650698D02*
X15093887Y-13641174D01*
X15093887Y-13641174D02*
X15112934Y-13631650D01*
X15112934Y-13631650D02*
X15141506Y-13631650D01*
X15141506Y-13631650D02*
X15160553Y-13641174D01*
X15160553Y-13641174D02*
X15170077Y-13650698D01*
X15170077Y-13650698D02*
X15179601Y-13669746D01*
X15179601Y-13669746D02*
X15179601Y-13726888D01*
X15179601Y-13726888D02*
X15170077Y-13745936D01*
X15170077Y-13745936D02*
X15160553Y-13755460D01*
X15160553Y-13755460D02*
X15141506Y-13764984D01*
X15141506Y-13764984D02*
X15112934Y-13764984D01*
X15293887Y-13764984D02*
X15274839Y-13755460D01*
X15274839Y-13755460D02*
X15265315Y-13736412D01*
X15265315Y-13736412D02*
X15265315Y-13564984D01*
X15446268Y-13755460D02*
X15427220Y-13764984D01*
X15427220Y-13764984D02*
X15389125Y-13764984D01*
X15389125Y-13764984D02*
X15370077Y-13755460D01*
X15370077Y-13755460D02*
X15360553Y-13736412D01*
X15360553Y-13736412D02*
X15360553Y-13660222D01*
X15360553Y-13660222D02*
X15370077Y-13641174D01*
X15370077Y-13641174D02*
X15389125Y-13631650D01*
X15389125Y-13631650D02*
X15427220Y-13631650D01*
X15427220Y-13631650D02*
X15446268Y-13641174D01*
X15446268Y-13641174D02*
X15455791Y-13660222D01*
X15455791Y-13660222D02*
X15455791Y-13679269D01*
X15455791Y-13679269D02*
X15360553Y-13698317D01*
X15531982Y-13755460D02*
X15551030Y-13764984D01*
X15551030Y-13764984D02*
X15589125Y-13764984D01*
X15589125Y-13764984D02*
X15608172Y-13755460D01*
X15608172Y-13755460D02*
X15617696Y-13736412D01*
X15617696Y-13736412D02*
X15617696Y-13726888D01*
X15617696Y-13726888D02*
X15608172Y-13707841D01*
X15608172Y-13707841D02*
X15589125Y-13698317D01*
X15589125Y-13698317D02*
X15560553Y-13698317D01*
X15560553Y-13698317D02*
X15541506Y-13688793D01*
X15541506Y-13688793D02*
X15531982Y-13669746D01*
X15531982Y-13669746D02*
X15531982Y-13660222D01*
X15531982Y-13660222D02*
X15541506Y-13641174D01*
X15541506Y-13641174D02*
X15560553Y-13631650D01*
X15560553Y-13631650D02*
X15589125Y-13631650D01*
X15589125Y-13631650D02*
X15608172Y-13641174D01*
X15684363Y-13841174D02*
X15693887Y-13831650D01*
X15693887Y-13831650D02*
X15712934Y-13803079D01*
X15712934Y-13803079D02*
X15722458Y-13784031D01*
X15722458Y-13784031D02*
X15731982Y-13755460D01*
X15731982Y-13755460D02*
X15741506Y-13707841D01*
X15741506Y-13707841D02*
X15741506Y-13669746D01*
X15741506Y-13669746D02*
X15731982Y-13622127D01*
X15731982Y-13622127D02*
X15722458Y-13593555D01*
X15722458Y-13593555D02*
X15712934Y-13574508D01*
X15712934Y-13574508D02*
X15693887Y-13545936D01*
X15693887Y-13545936D02*
X15684363Y-13536412D01*
X16046268Y-13841174D02*
X16036744Y-13831650D01*
X16036744Y-13831650D02*
X16017696Y-13803079D01*
X16017696Y-13803079D02*
X16008172Y-13784031D01*
X16008172Y-13784031D02*
X15998649Y-13755460D01*
X15998649Y-13755460D02*
X15989125Y-13707841D01*
X15989125Y-13707841D02*
X15989125Y-13669746D01*
X15989125Y-13669746D02*
X15998649Y-13622127D01*
X15998649Y-13622127D02*
X16008172Y-13593555D01*
X16008172Y-13593555D02*
X16017696Y-13574508D01*
X16017696Y-13574508D02*
X16036744Y-13545936D01*
X16036744Y-13545936D02*
X16046268Y-13536412D01*
X16122458Y-13631650D02*
X16122458Y-13764984D01*
X16122458Y-13650698D02*
X16131982Y-13641174D01*
X16131982Y-13641174D02*
X16151030Y-13631650D01*
X16151030Y-13631650D02*
X16179601Y-13631650D01*
X16179601Y-13631650D02*
X16198649Y-13641174D01*
X16198649Y-13641174D02*
X16208172Y-13660222D01*
X16208172Y-13660222D02*
X16208172Y-13764984D01*
X16331982Y-13764984D02*
X16312934Y-13755460D01*
X16312934Y-13755460D02*
X16303411Y-13745936D01*
X16303411Y-13745936D02*
X16293887Y-13726888D01*
X16293887Y-13726888D02*
X16293887Y-13669746D01*
X16293887Y-13669746D02*
X16303411Y-13650698D01*
X16303411Y-13650698D02*
X16312934Y-13641174D01*
X16312934Y-13641174D02*
X16331982Y-13631650D01*
X16331982Y-13631650D02*
X16360553Y-13631650D01*
X16360553Y-13631650D02*
X16379601Y-13641174D01*
X16379601Y-13641174D02*
X16389125Y-13650698D01*
X16389125Y-13650698D02*
X16398649Y-13669746D01*
X16398649Y-13669746D02*
X16398649Y-13726888D01*
X16398649Y-13726888D02*
X16389125Y-13745936D01*
X16389125Y-13745936D02*
X16379601Y-13755460D01*
X16379601Y-13755460D02*
X16360553Y-13764984D01*
X16360553Y-13764984D02*
X16331982Y-13764984D01*
X16455792Y-13631650D02*
X16531982Y-13631650D01*
X16484363Y-13564984D02*
X16484363Y-13736412D01*
X16484363Y-13736412D02*
X16493887Y-13755460D01*
X16493887Y-13755460D02*
X16512934Y-13764984D01*
X16512934Y-13764984D02*
X16531982Y-13764984D01*
X16751030Y-13631650D02*
X16751030Y-13831650D01*
X16751030Y-13641174D02*
X16770077Y-13631650D01*
X16770077Y-13631650D02*
X16808173Y-13631650D01*
X16808173Y-13631650D02*
X16827220Y-13641174D01*
X16827220Y-13641174D02*
X16836744Y-13650698D01*
X16836744Y-13650698D02*
X16846268Y-13669746D01*
X16846268Y-13669746D02*
X16846268Y-13726888D01*
X16846268Y-13726888D02*
X16836744Y-13745936D01*
X16836744Y-13745936D02*
X16827220Y-13755460D01*
X16827220Y-13755460D02*
X16808173Y-13764984D01*
X16808173Y-13764984D02*
X16770077Y-13764984D01*
X16770077Y-13764984D02*
X16751030Y-13755460D01*
X16960554Y-13764984D02*
X16941506Y-13755460D01*
X16941506Y-13755460D02*
X16931982Y-13736412D01*
X16931982Y-13736412D02*
X16931982Y-13564984D01*
X17122458Y-13764984D02*
X17122458Y-13660222D01*
X17122458Y-13660222D02*
X17112935Y-13641174D01*
X17112935Y-13641174D02*
X17093887Y-13631650D01*
X17093887Y-13631650D02*
X17055792Y-13631650D01*
X17055792Y-13631650D02*
X17036744Y-13641174D01*
X17122458Y-13755460D02*
X17103411Y-13764984D01*
X17103411Y-13764984D02*
X17055792Y-13764984D01*
X17055792Y-13764984D02*
X17036744Y-13755460D01*
X17036744Y-13755460D02*
X17027220Y-13736412D01*
X17027220Y-13736412D02*
X17027220Y-13717365D01*
X17027220Y-13717365D02*
X17036744Y-13698317D01*
X17036744Y-13698317D02*
X17055792Y-13688793D01*
X17055792Y-13688793D02*
X17103411Y-13688793D01*
X17103411Y-13688793D02*
X17122458Y-13679269D01*
X17189125Y-13631650D02*
X17265315Y-13631650D01*
X17217696Y-13564984D02*
X17217696Y-13736412D01*
X17217696Y-13736412D02*
X17227220Y-13755460D01*
X17227220Y-13755460D02*
X17246268Y-13764984D01*
X17246268Y-13764984D02*
X17265315Y-13764984D01*
X17408173Y-13755460D02*
X17389125Y-13764984D01*
X17389125Y-13764984D02*
X17351030Y-13764984D01*
X17351030Y-13764984D02*
X17331982Y-13755460D01*
X17331982Y-13755460D02*
X17322458Y-13736412D01*
X17322458Y-13736412D02*
X17322458Y-13660222D01*
X17322458Y-13660222D02*
X17331982Y-13641174D01*
X17331982Y-13641174D02*
X17351030Y-13631650D01*
X17351030Y-13631650D02*
X17389125Y-13631650D01*
X17389125Y-13631650D02*
X17408173Y-13641174D01*
X17408173Y-13641174D02*
X17417696Y-13660222D01*
X17417696Y-13660222D02*
X17417696Y-13679269D01*
X17417696Y-13679269D02*
X17322458Y-13698317D01*
X17589125Y-13764984D02*
X17589125Y-13564984D01*
X17589125Y-13755460D02*
X17570077Y-13764984D01*
X17570077Y-13764984D02*
X17531982Y-13764984D01*
X17531982Y-13764984D02*
X17512935Y-13755460D01*
X17512935Y-13755460D02*
X17503411Y-13745936D01*
X17503411Y-13745936D02*
X17493887Y-13726888D01*
X17493887Y-13726888D02*
X17493887Y-13669746D01*
X17493887Y-13669746D02*
X17503411Y-13650698D01*
X17503411Y-13650698D02*
X17512935Y-13641174D01*
X17512935Y-13641174D02*
X17531982Y-13631650D01*
X17531982Y-13631650D02*
X17570077Y-13631650D01*
X17570077Y-13631650D02*
X17589125Y-13641174D01*
X17665316Y-13841174D02*
X17674839Y-13831650D01*
X17674839Y-13831650D02*
X17693887Y-13803079D01*
X17693887Y-13803079D02*
X17703411Y-13784031D01*
X17703411Y-13784031D02*
X17712935Y-13755460D01*
X17712935Y-13755460D02*
X17722458Y-13707841D01*
X17722458Y-13707841D02*
X17722458Y-13669746D01*
X17722458Y-13669746D02*
X17712935Y-13622127D01*
X17712935Y-13622127D02*
X17703411Y-13593555D01*
X17703411Y-13593555D02*
X17693887Y-13574508D01*
X17693887Y-13574508D02*
X17674839Y-13545936D01*
X17674839Y-13545936D02*
X17665316Y-13536412D01*
X10809300Y-13873500D02*
X10809300Y-14073500D01*
X10709300Y-13973500D02*
X10909300Y-13973500D01*
X11151029Y-13864984D02*
X11274839Y-13864984D01*
X11274839Y-13864984D02*
X11208172Y-13941174D01*
X11208172Y-13941174D02*
X11236743Y-13941174D01*
X11236743Y-13941174D02*
X11255791Y-13950698D01*
X11255791Y-13950698D02*
X11265315Y-13960222D01*
X11265315Y-13960222D02*
X11274839Y-13979269D01*
X11274839Y-13979269D02*
X11274839Y-14026888D01*
X11274839Y-14026888D02*
X11265315Y-14045936D01*
X11265315Y-14045936D02*
X11255791Y-14055460D01*
X11255791Y-14055460D02*
X11236743Y-14064984D01*
X11236743Y-14064984D02*
X11179601Y-14064984D01*
X11179601Y-14064984D02*
X11160553Y-14055460D01*
X11160553Y-14055460D02*
X11151029Y-14045936D01*
X11360553Y-14045936D02*
X11370077Y-14055460D01*
X11370077Y-14055460D02*
X11360553Y-14064984D01*
X11360553Y-14064984D02*
X11351029Y-14055460D01*
X11351029Y-14055460D02*
X11360553Y-14045936D01*
X11360553Y-14045936D02*
X11360553Y-14064984D01*
X11551029Y-13864984D02*
X11455791Y-13864984D01*
X11455791Y-13864984D02*
X11446267Y-13960222D01*
X11446267Y-13960222D02*
X11455791Y-13950698D01*
X11455791Y-13950698D02*
X11474839Y-13941174D01*
X11474839Y-13941174D02*
X11522458Y-13941174D01*
X11522458Y-13941174D02*
X11541505Y-13950698D01*
X11541505Y-13950698D02*
X11551029Y-13960222D01*
X11551029Y-13960222D02*
X11560553Y-13979269D01*
X11560553Y-13979269D02*
X11560553Y-14026888D01*
X11560553Y-14026888D02*
X11551029Y-14045936D01*
X11551029Y-14045936D02*
X11541505Y-14055460D01*
X11541505Y-14055460D02*
X11522458Y-14064984D01*
X11522458Y-14064984D02*
X11474839Y-14064984D01*
X11474839Y-14064984D02*
X11455791Y-14055460D01*
X11455791Y-14055460D02*
X11446267Y-14045936D01*
X11684362Y-13864984D02*
X11703410Y-13864984D01*
X11703410Y-13864984D02*
X11722458Y-13874508D01*
X11722458Y-13874508D02*
X11731982Y-13884031D01*
X11731982Y-13884031D02*
X11741505Y-13903079D01*
X11741505Y-13903079D02*
X11751029Y-13941174D01*
X11751029Y-13941174D02*
X11751029Y-13988793D01*
X11751029Y-13988793D02*
X11741505Y-14026888D01*
X11741505Y-14026888D02*
X11731982Y-14045936D01*
X11731982Y-14045936D02*
X11722458Y-14055460D01*
X11722458Y-14055460D02*
X11703410Y-14064984D01*
X11703410Y-14064984D02*
X11684362Y-14064984D01*
X11684362Y-14064984D02*
X11665315Y-14055460D01*
X11665315Y-14055460D02*
X11655791Y-14045936D01*
X11655791Y-14045936D02*
X11646267Y-14026888D01*
X11646267Y-14026888D02*
X11636743Y-13988793D01*
X11636743Y-13988793D02*
X11636743Y-13941174D01*
X11636743Y-13941174D02*
X11646267Y-13903079D01*
X11646267Y-13903079D02*
X11655791Y-13884031D01*
X11655791Y-13884031D02*
X11665315Y-13874508D01*
X11665315Y-13874508D02*
X11684362Y-13864984D01*
X11874839Y-13864984D02*
X11893886Y-13864984D01*
X11893886Y-13864984D02*
X11912934Y-13874508D01*
X11912934Y-13874508D02*
X11922458Y-13884031D01*
X11922458Y-13884031D02*
X11931982Y-13903079D01*
X11931982Y-13903079D02*
X11941505Y-13941174D01*
X11941505Y-13941174D02*
X11941505Y-13988793D01*
X11941505Y-13988793D02*
X11931982Y-14026888D01*
X11931982Y-14026888D02*
X11922458Y-14045936D01*
X11922458Y-14045936D02*
X11912934Y-14055460D01*
X11912934Y-14055460D02*
X11893886Y-14064984D01*
X11893886Y-14064984D02*
X11874839Y-14064984D01*
X11874839Y-14064984D02*
X11855791Y-14055460D01*
X11855791Y-14055460D02*
X11846267Y-14045936D01*
X11846267Y-14045936D02*
X11836743Y-14026888D01*
X11836743Y-14026888D02*
X11827220Y-13988793D01*
X11827220Y-13988793D02*
X11827220Y-13941174D01*
X11827220Y-13941174D02*
X11836743Y-13903079D01*
X11836743Y-13903079D02*
X11846267Y-13884031D01*
X11846267Y-13884031D02*
X11855791Y-13874508D01*
X11855791Y-13874508D02*
X11874839Y-13864984D01*
X12027220Y-14064984D02*
X12027220Y-13931650D01*
X12027220Y-13950698D02*
X12036743Y-13941174D01*
X12036743Y-13941174D02*
X12055791Y-13931650D01*
X12055791Y-13931650D02*
X12084363Y-13931650D01*
X12084363Y-13931650D02*
X12103410Y-13941174D01*
X12103410Y-13941174D02*
X12112934Y-13960222D01*
X12112934Y-13960222D02*
X12112934Y-14064984D01*
X12112934Y-13960222D02*
X12122458Y-13941174D01*
X12122458Y-13941174D02*
X12141505Y-13931650D01*
X12141505Y-13931650D02*
X12170077Y-13931650D01*
X12170077Y-13931650D02*
X12189124Y-13941174D01*
X12189124Y-13941174D02*
X12198648Y-13960222D01*
X12198648Y-13960222D02*
X12198648Y-14064984D01*
X12293886Y-14064984D02*
X12293886Y-13931650D01*
X12293886Y-13950698D02*
X12303410Y-13941174D01*
X12303410Y-13941174D02*
X12322458Y-13931650D01*
X12322458Y-13931650D02*
X12351029Y-13931650D01*
X12351029Y-13931650D02*
X12370077Y-13941174D01*
X12370077Y-13941174D02*
X12379601Y-13960222D01*
X12379601Y-13960222D02*
X12379601Y-14064984D01*
X12379601Y-13960222D02*
X12389124Y-13941174D01*
X12389124Y-13941174D02*
X12408172Y-13931650D01*
X12408172Y-13931650D02*
X12436743Y-13931650D01*
X12436743Y-13931650D02*
X12455791Y-13941174D01*
X12455791Y-13941174D02*
X12465315Y-13960222D01*
X12465315Y-13960222D02*
X12465315Y-14064984D01*
X12855791Y-13855460D02*
X12684363Y-14112603D01*
X13112934Y-13864984D02*
X13131982Y-13864984D01*
X13131982Y-13864984D02*
X13151029Y-13874508D01*
X13151029Y-13874508D02*
X13160553Y-13884031D01*
X13160553Y-13884031D02*
X13170077Y-13903079D01*
X13170077Y-13903079D02*
X13179601Y-13941174D01*
X13179601Y-13941174D02*
X13179601Y-13988793D01*
X13179601Y-13988793D02*
X13170077Y-14026888D01*
X13170077Y-14026888D02*
X13160553Y-14045936D01*
X13160553Y-14045936D02*
X13151029Y-14055460D01*
X13151029Y-14055460D02*
X13131982Y-14064984D01*
X13131982Y-14064984D02*
X13112934Y-14064984D01*
X13112934Y-14064984D02*
X13093886Y-14055460D01*
X13093886Y-14055460D02*
X13084363Y-14045936D01*
X13084363Y-14045936D02*
X13074839Y-14026888D01*
X13074839Y-14026888D02*
X13065315Y-13988793D01*
X13065315Y-13988793D02*
X13065315Y-13941174D01*
X13065315Y-13941174D02*
X13074839Y-13903079D01*
X13074839Y-13903079D02*
X13084363Y-13884031D01*
X13084363Y-13884031D02*
X13093886Y-13874508D01*
X13093886Y-13874508D02*
X13112934Y-13864984D01*
X13265315Y-14045936D02*
X13274839Y-14055460D01*
X13274839Y-14055460D02*
X13265315Y-14064984D01*
X13265315Y-14064984D02*
X13255791Y-14055460D01*
X13255791Y-14055460D02*
X13265315Y-14045936D01*
X13265315Y-14045936D02*
X13265315Y-14064984D01*
X13465315Y-14064984D02*
X13351029Y-14064984D01*
X13408172Y-14064984D02*
X13408172Y-13864984D01*
X13408172Y-13864984D02*
X13389125Y-13893555D01*
X13389125Y-13893555D02*
X13370077Y-13912603D01*
X13370077Y-13912603D02*
X13351029Y-13922127D01*
X13531982Y-13864984D02*
X13655791Y-13864984D01*
X13655791Y-13864984D02*
X13589125Y-13941174D01*
X13589125Y-13941174D02*
X13617696Y-13941174D01*
X13617696Y-13941174D02*
X13636744Y-13950698D01*
X13636744Y-13950698D02*
X13646267Y-13960222D01*
X13646267Y-13960222D02*
X13655791Y-13979269D01*
X13655791Y-13979269D02*
X13655791Y-14026888D01*
X13655791Y-14026888D02*
X13646267Y-14045936D01*
X13646267Y-14045936D02*
X13636744Y-14055460D01*
X13636744Y-14055460D02*
X13617696Y-14064984D01*
X13617696Y-14064984D02*
X13560553Y-14064984D01*
X13560553Y-14064984D02*
X13541506Y-14055460D01*
X13541506Y-14055460D02*
X13531982Y-14045936D01*
X13722458Y-13864984D02*
X13855791Y-13864984D01*
X13855791Y-13864984D02*
X13770077Y-14064984D01*
X13960553Y-13950698D02*
X13941506Y-13941174D01*
X13941506Y-13941174D02*
X13931982Y-13931650D01*
X13931982Y-13931650D02*
X13922458Y-13912603D01*
X13922458Y-13912603D02*
X13922458Y-13903079D01*
X13922458Y-13903079D02*
X13931982Y-13884031D01*
X13931982Y-13884031D02*
X13941506Y-13874508D01*
X13941506Y-13874508D02*
X13960553Y-13864984D01*
X13960553Y-13864984D02*
X13998648Y-13864984D01*
X13998648Y-13864984D02*
X14017696Y-13874508D01*
X14017696Y-13874508D02*
X14027220Y-13884031D01*
X14027220Y-13884031D02*
X14036744Y-13903079D01*
X14036744Y-13903079D02*
X14036744Y-13912603D01*
X14036744Y-13912603D02*
X14027220Y-13931650D01*
X14027220Y-13931650D02*
X14017696Y-13941174D01*
X14017696Y-13941174D02*
X13998648Y-13950698D01*
X13998648Y-13950698D02*
X13960553Y-13950698D01*
X13960553Y-13950698D02*
X13941506Y-13960222D01*
X13941506Y-13960222D02*
X13931982Y-13969746D01*
X13931982Y-13969746D02*
X13922458Y-13988793D01*
X13922458Y-13988793D02*
X13922458Y-14026888D01*
X13922458Y-14026888D02*
X13931982Y-14045936D01*
X13931982Y-14045936D02*
X13941506Y-14055460D01*
X13941506Y-14055460D02*
X13960553Y-14064984D01*
X13960553Y-14064984D02*
X13998648Y-14064984D01*
X13998648Y-14064984D02*
X14017696Y-14055460D01*
X14017696Y-14055460D02*
X14027220Y-14045936D01*
X14027220Y-14045936D02*
X14036744Y-14026888D01*
X14036744Y-14026888D02*
X14036744Y-13988793D01*
X14036744Y-13988793D02*
X14027220Y-13969746D01*
X14027220Y-13969746D02*
X14017696Y-13960222D01*
X14017696Y-13960222D02*
X13998648Y-13950698D01*
X14112934Y-13864984D02*
X14112934Y-13903079D01*
X14189125Y-13864984D02*
X14189125Y-13903079D01*
X14484363Y-14141174D02*
X14474839Y-14131650D01*
X14474839Y-14131650D02*
X14455791Y-14103079D01*
X14455791Y-14103079D02*
X14446268Y-14084031D01*
X14446268Y-14084031D02*
X14436744Y-14055460D01*
X14436744Y-14055460D02*
X14427220Y-14007841D01*
X14427220Y-14007841D02*
X14427220Y-13969746D01*
X14427220Y-13969746D02*
X14436744Y-13922127D01*
X14436744Y-13922127D02*
X14446268Y-13893555D01*
X14446268Y-13893555D02*
X14455791Y-13874508D01*
X14455791Y-13874508D02*
X14474839Y-13845936D01*
X14474839Y-13845936D02*
X14484363Y-13836412D01*
X14665315Y-14064984D02*
X14551029Y-14064984D01*
X14608172Y-14064984D02*
X14608172Y-13864984D01*
X14608172Y-13864984D02*
X14589125Y-13893555D01*
X14589125Y-13893555D02*
X14570077Y-13912603D01*
X14570077Y-13912603D02*
X14551029Y-13922127D01*
X14903410Y-14064984D02*
X14903410Y-13864984D01*
X14989125Y-14064984D02*
X14989125Y-13960222D01*
X14989125Y-13960222D02*
X14979601Y-13941174D01*
X14979601Y-13941174D02*
X14960553Y-13931650D01*
X14960553Y-13931650D02*
X14931982Y-13931650D01*
X14931982Y-13931650D02*
X14912934Y-13941174D01*
X14912934Y-13941174D02*
X14903410Y-13950698D01*
X15112934Y-14064984D02*
X15093887Y-14055460D01*
X15093887Y-14055460D02*
X15084363Y-14045936D01*
X15084363Y-14045936D02*
X15074839Y-14026888D01*
X15074839Y-14026888D02*
X15074839Y-13969746D01*
X15074839Y-13969746D02*
X15084363Y-13950698D01*
X15084363Y-13950698D02*
X15093887Y-13941174D01*
X15093887Y-13941174D02*
X15112934Y-13931650D01*
X15112934Y-13931650D02*
X15141506Y-13931650D01*
X15141506Y-13931650D02*
X15160553Y-13941174D01*
X15160553Y-13941174D02*
X15170077Y-13950698D01*
X15170077Y-13950698D02*
X15179601Y-13969746D01*
X15179601Y-13969746D02*
X15179601Y-14026888D01*
X15179601Y-14026888D02*
X15170077Y-14045936D01*
X15170077Y-14045936D02*
X15160553Y-14055460D01*
X15160553Y-14055460D02*
X15141506Y-14064984D01*
X15141506Y-14064984D02*
X15112934Y-14064984D01*
X15293887Y-14064984D02*
X15274839Y-14055460D01*
X15274839Y-14055460D02*
X15265315Y-14036412D01*
X15265315Y-14036412D02*
X15265315Y-13864984D01*
X15446268Y-14055460D02*
X15427220Y-14064984D01*
X15427220Y-14064984D02*
X15389125Y-14064984D01*
X15389125Y-14064984D02*
X15370077Y-14055460D01*
X15370077Y-14055460D02*
X15360553Y-14036412D01*
X15360553Y-14036412D02*
X15360553Y-13960222D01*
X15360553Y-13960222D02*
X15370077Y-13941174D01*
X15370077Y-13941174D02*
X15389125Y-13931650D01*
X15389125Y-13931650D02*
X15427220Y-13931650D01*
X15427220Y-13931650D02*
X15446268Y-13941174D01*
X15446268Y-13941174D02*
X15455791Y-13960222D01*
X15455791Y-13960222D02*
X15455791Y-13979269D01*
X15455791Y-13979269D02*
X15360553Y-13998317D01*
X15522458Y-14141174D02*
X15531982Y-14131650D01*
X15531982Y-14131650D02*
X15551030Y-14103079D01*
X15551030Y-14103079D02*
X15560553Y-14084031D01*
X15560553Y-14084031D02*
X15570077Y-14055460D01*
X15570077Y-14055460D02*
X15579601Y-14007841D01*
X15579601Y-14007841D02*
X15579601Y-13969746D01*
X15579601Y-13969746D02*
X15570077Y-13922127D01*
X15570077Y-13922127D02*
X15560553Y-13893555D01*
X15560553Y-13893555D02*
X15551030Y-13874508D01*
X15551030Y-13874508D02*
X15531982Y-13845936D01*
X15531982Y-13845936D02*
X15522458Y-13836412D01*
X15884363Y-14141174D02*
X15874839Y-14131650D01*
X15874839Y-14131650D02*
X15855791Y-14103079D01*
X15855791Y-14103079D02*
X15846268Y-14084031D01*
X15846268Y-14084031D02*
X15836744Y-14055460D01*
X15836744Y-14055460D02*
X15827220Y-14007841D01*
X15827220Y-14007841D02*
X15827220Y-13969746D01*
X15827220Y-13969746D02*
X15836744Y-13922127D01*
X15836744Y-13922127D02*
X15846268Y-13893555D01*
X15846268Y-13893555D02*
X15855791Y-13874508D01*
X15855791Y-13874508D02*
X15874839Y-13845936D01*
X15874839Y-13845936D02*
X15884363Y-13836412D01*
X15960553Y-13931650D02*
X15960553Y-14064984D01*
X15960553Y-13950698D02*
X15970077Y-13941174D01*
X15970077Y-13941174D02*
X15989125Y-13931650D01*
X15989125Y-13931650D02*
X16017696Y-13931650D01*
X16017696Y-13931650D02*
X16036744Y-13941174D01*
X16036744Y-13941174D02*
X16046268Y-13960222D01*
X16046268Y-13960222D02*
X16046268Y-14064984D01*
X16170077Y-14064984D02*
X16151030Y-14055460D01*
X16151030Y-14055460D02*
X16141506Y-14045936D01*
X16141506Y-14045936D02*
X16131982Y-14026888D01*
X16131982Y-14026888D02*
X16131982Y-13969746D01*
X16131982Y-13969746D02*
X16141506Y-13950698D01*
X16141506Y-13950698D02*
X16151030Y-13941174D01*
X16151030Y-13941174D02*
X16170077Y-13931650D01*
X16170077Y-13931650D02*
X16198649Y-13931650D01*
X16198649Y-13931650D02*
X16217696Y-13941174D01*
X16217696Y-13941174D02*
X16227220Y-13950698D01*
X16227220Y-13950698D02*
X16236744Y-13969746D01*
X16236744Y-13969746D02*
X16236744Y-14026888D01*
X16236744Y-14026888D02*
X16227220Y-14045936D01*
X16227220Y-14045936D02*
X16217696Y-14055460D01*
X16217696Y-14055460D02*
X16198649Y-14064984D01*
X16198649Y-14064984D02*
X16170077Y-14064984D01*
X16293887Y-13931650D02*
X16370077Y-13931650D01*
X16322458Y-13864984D02*
X16322458Y-14036412D01*
X16322458Y-14036412D02*
X16331982Y-14055460D01*
X16331982Y-14055460D02*
X16351030Y-14064984D01*
X16351030Y-14064984D02*
X16370077Y-14064984D01*
X16589125Y-13931650D02*
X16589125Y-14131650D01*
X16589125Y-13941174D02*
X16608172Y-13931650D01*
X16608172Y-13931650D02*
X16646268Y-13931650D01*
X16646268Y-13931650D02*
X16665315Y-13941174D01*
X16665315Y-13941174D02*
X16674839Y-13950698D01*
X16674839Y-13950698D02*
X16684363Y-13969746D01*
X16684363Y-13969746D02*
X16684363Y-14026888D01*
X16684363Y-14026888D02*
X16674839Y-14045936D01*
X16674839Y-14045936D02*
X16665315Y-14055460D01*
X16665315Y-14055460D02*
X16646268Y-14064984D01*
X16646268Y-14064984D02*
X16608172Y-14064984D01*
X16608172Y-14064984D02*
X16589125Y-14055460D01*
X16798649Y-14064984D02*
X16779601Y-14055460D01*
X16779601Y-14055460D02*
X16770077Y-14036412D01*
X16770077Y-14036412D02*
X16770077Y-13864984D01*
X16960554Y-14064984D02*
X16960554Y-13960222D01*
X16960554Y-13960222D02*
X16951030Y-13941174D01*
X16951030Y-13941174D02*
X16931982Y-13931650D01*
X16931982Y-13931650D02*
X16893887Y-13931650D01*
X16893887Y-13931650D02*
X16874839Y-13941174D01*
X16960554Y-14055460D02*
X16941506Y-14064984D01*
X16941506Y-14064984D02*
X16893887Y-14064984D01*
X16893887Y-14064984D02*
X16874839Y-14055460D01*
X16874839Y-14055460D02*
X16865315Y-14036412D01*
X16865315Y-14036412D02*
X16865315Y-14017365D01*
X16865315Y-14017365D02*
X16874839Y-13998317D01*
X16874839Y-13998317D02*
X16893887Y-13988793D01*
X16893887Y-13988793D02*
X16941506Y-13988793D01*
X16941506Y-13988793D02*
X16960554Y-13979269D01*
X17027220Y-13931650D02*
X17103411Y-13931650D01*
X17055792Y-13864984D02*
X17055792Y-14036412D01*
X17055792Y-14036412D02*
X17065315Y-14055460D01*
X17065315Y-14055460D02*
X17084363Y-14064984D01*
X17084363Y-14064984D02*
X17103411Y-14064984D01*
X17246268Y-14055460D02*
X17227220Y-14064984D01*
X17227220Y-14064984D02*
X17189125Y-14064984D01*
X17189125Y-14064984D02*
X17170077Y-14055460D01*
X17170077Y-14055460D02*
X17160554Y-14036412D01*
X17160554Y-14036412D02*
X17160554Y-13960222D01*
X17160554Y-13960222D02*
X17170077Y-13941174D01*
X17170077Y-13941174D02*
X17189125Y-13931650D01*
X17189125Y-13931650D02*
X17227220Y-13931650D01*
X17227220Y-13931650D02*
X17246268Y-13941174D01*
X17246268Y-13941174D02*
X17255792Y-13960222D01*
X17255792Y-13960222D02*
X17255792Y-13979269D01*
X17255792Y-13979269D02*
X17160554Y-13998317D01*
X17427220Y-14064984D02*
X17427220Y-13864984D01*
X17427220Y-14055460D02*
X17408173Y-14064984D01*
X17408173Y-14064984D02*
X17370077Y-14064984D01*
X17370077Y-14064984D02*
X17351030Y-14055460D01*
X17351030Y-14055460D02*
X17341506Y-14045936D01*
X17341506Y-14045936D02*
X17331982Y-14026888D01*
X17331982Y-14026888D02*
X17331982Y-13969746D01*
X17331982Y-13969746D02*
X17341506Y-13950698D01*
X17341506Y-13950698D02*
X17351030Y-13941174D01*
X17351030Y-13941174D02*
X17370077Y-13931650D01*
X17370077Y-13931650D02*
X17408173Y-13931650D01*
X17408173Y-13931650D02*
X17427220Y-13941174D01*
X17503411Y-14141174D02*
X17512935Y-14131650D01*
X17512935Y-14131650D02*
X17531982Y-14103079D01*
X17531982Y-14103079D02*
X17541506Y-14084031D01*
X17541506Y-14084031D02*
X17551030Y-14055460D01*
X17551030Y-14055460D02*
X17560554Y-14007841D01*
X17560554Y-14007841D02*
X17560554Y-13969746D01*
X17560554Y-13969746D02*
X17551030Y-13922127D01*
X17551030Y-13922127D02*
X17541506Y-13893555D01*
X17541506Y-13893555D02*
X17531982Y-13874508D01*
X17531982Y-13874508D02*
X17512935Y-13845936D01*
X17512935Y-13845936D02*
X17503411Y-13836412D01*
M02*
